<svg xmlns="http://www.w3.org/2000/svg" width="48" height="48" viewBox="0 0 48 48" fill="none"><g clip-path="url(#clip0_165_1221)"><path d="M17.063 29.0013C18.1287 30.036 18.8395 31.3833 19.093 32.85H25.0568C25.2313 32.85 25.3727 32.9919 25.3727 33.1671C25.3727 33.3424 25.2313 33.4843 25.0568 33.4843H19.0426C18.6447 33.4843 18.322 33.8083 18.322 34.2071V37.6962C18.322 38.0965 18.644 38.4213 19.0426 38.4235H28.9574C29.356 38.4213 29.6779 38.0965 29.6779 37.6962V34.2116C29.6779 33.8121 29.3553 33.4881 28.9574 33.4881H27.3696C27.1936 33.4881 27.0515 33.3454 27.0515 33.1687C27.0515 32.9919 27.1936 32.8492 27.3696 32.8492H28.9574C29.2492 31.3312 29.9938 29.9386 31.0927 28.8563C32.9453 27.0181 34.0171 24.5311 34.084 21.9165C34.1502 19.3019 33.2063 16.7636 31.45 14.8325C29.6937 12.9014 27.2606 11.7285 24.6619 11.5586H24.0135C21.3133 11.5586 18.726 12.6469 16.8313 14.5795C14.9374 16.5121 13.8949 19.1275 13.9385 21.8387C13.9822 24.55 15.1081 27.1299 17.0637 29.0006L17.063 29.0013ZM17.0126 20.7331C17.1728 20.1448 17.5676 19.6493 18.1032 19.3624C17.9212 18.6811 18.043 17.9546 18.4356 17.3701C18.9193 16.7923 19.6082 16.4283 20.3566 16.355C20.7771 15.6134 21.4878 15.0832 22.3152 14.8914C22.8989 14.803 23.4946 14.9231 24 15.2298C24.5047 14.9231 25.1011 14.803 25.6848 14.8914C26.5129 15.0825 27.2229 15.6134 27.6434 16.355C28.388 16.4306 29.074 16.7946 29.5553 17.3701C29.9517 17.9531 30.0758 18.6796 29.8968 19.3624C30.4361 19.6471 30.834 20.1433 30.9965 20.7331C31.1604 21.4558 30.8701 22.2556 30.1541 23.1143C30.5512 23.677 30.7031 24.3778 30.5753 25.0553C30.388 25.6066 29.9577 26.0408 29.4087 26.2311C29.4711 26.7507 29.3357 27.2749 29.0296 27.6985C28.6084 28.2567 27.8668 28.5444 26.8439 28.5822C26.5994 28.9288 25.9428 29.7664 25.1004 29.9438C24.9928 29.968 24.8823 29.9793 24.7717 29.9778C24.5032 29.9869 24.2369 29.9227 24.0007 29.792C23.6796 29.9703 23.3058 30.0239 22.9477 29.9446C22.1053 29.7671 21.448 28.9296 21.2043 28.5829C20.1806 28.5535 19.448 28.2574 19.0185 27.6993C18.7124 27.2756 18.577 26.7515 18.6395 26.2319C18.0911 26.0416 17.6602 25.6073 17.4729 25.056C17.345 24.3786 17.4969 23.6777 17.8941 23.1151C17.1404 22.2775 16.8411 21.4574 17.0141 20.7338L17.0126 20.7331Z" fill="#3E7232"></path><path d="M20.1295 41.2663C20.2867 41.7685 20.5996 42.2073 21.0223 42.5192C21.445 42.8311 21.9557 42.9995 22.4799 43.0003H25.5208C26.0451 42.9995 26.5558 42.8311 26.9785 42.5192C27.4012 42.2073 27.7141 41.7685 27.8713 41.2663L28.5663 39.0625H19.4345L20.1295 41.2663Z" fill="#7AC638"></path><path d="M18.5244 23.2833C18.5244 23.2833 17.8632 24.1586 18.0776 24.873C18.2574 25.305 18.6364 25.6207 19.093 25.7189C19.2517 25.7695 19.342 25.9387 19.2953 26.0995C19.2036 26.5172 19.2855 26.9544 19.5225 27.3094C19.8933 27.7044 20.41 27.9264 20.95 27.9226C20.7605 26.8185 21.6322 26.0912 22.1881 25.842C22.2656 25.7959 22.3588 25.7853 22.4446 25.8125C22.5303 25.8397 22.6003 25.9024 22.6371 25.9847C22.674 26.067 22.674 26.1614 22.6371 26.2438C22.6003 26.3261 22.5303 26.3888 22.4446 26.4167C22.3182 26.4764 21.2231 27.0217 21.6616 28.1084C21.7586 28.261 22.3611 29.1574 23.0771 29.3055C23.2832 29.3515 23.4983 29.3213 23.6841 29.2209V25.7869C23.6841 25.6116 23.8255 25.4697 24 25.4697C24.1745 25.4697 24.3159 25.6116 24.3159 25.7869V29.2382C24.5009 29.3394 24.7168 29.3689 24.9229 29.3228C25.6344 29.1748 26.2369 28.2821 26.3384 28.1303C26.4986 27.792 26.4798 27.3947 26.288 27.073C26.2406 27.0013 26.2248 26.9129 26.2429 26.8291C26.2617 26.7452 26.3136 26.672 26.3866 26.6274C26.4603 26.5829 26.5483 26.5693 26.631 26.5912C26.7145 26.6131 26.7844 26.6682 26.8266 26.743C27.0439 27.0979 27.1237 27.5209 27.05 27.9317C27.5922 27.9362 28.112 27.7119 28.482 27.3139C28.6851 27.0224 28.7739 26.6652 28.7302 26.3117C27.6306 26.1637 26.8514 25.6011 26.8514 24.9078C26.8514 24.7326 26.9928 24.5906 27.1673 24.5906C27.3418 24.5906 27.4832 24.7326 27.4832 24.9078C27.4832 25.2295 28.0857 25.6222 28.9619 25.703C29.3997 25.5935 29.7569 25.2786 29.9224 24.8572C30.1375 24.1593 29.4764 23.2923 29.4764 23.284C29.3673 23.164 29.3673 22.9804 29.4764 22.8611C30.1841 22.0953 30.4827 21.4186 30.3564 20.8605C30.2533 20.4957 30.0149 20.1838 29.6907 19.989C29.423 20.5781 28.9679 21.0614 28.3978 21.3635C28.3519 21.3914 28.3 21.4065 28.2459 21.4058C28.0999 21.4088 27.9713 21.3106 27.9345 21.1694C27.8976 21.0282 27.9616 20.8794 28.0902 20.8099C28.6355 20.5478 29.0401 20.06 29.1981 19.4732V19.4437C29.4012 18.8833 29.338 18.2595 29.0251 17.752C28.6137 17.2921 28.039 17.0134 27.4245 16.9734C27.3222 16.9688 27.229 16.9129 27.1763 16.8253C26.6964 16.0641 26.1526 15.6245 25.5592 15.5188C25.1207 15.4569 24.6739 15.5498 24.2956 15.7816V17.2407C24.4874 17.4567 24.7574 17.5874 25.0447 17.604C25.3945 17.573 25.7209 17.4152 25.9631 17.1599C26.0872 17.0383 26.285 17.0383 26.4091 17.1599C26.5204 17.2785 26.5204 17.4643 26.4091 17.5828C26.0473 17.9703 25.5517 18.2029 25.0237 18.2338C24.7762 18.2293 24.534 18.1651 24.3159 18.048V21.0085C25.2034 20.9104 26.0977 21.1271 26.8431 21.6218C26.9522 21.7033 26.9965 21.8461 26.9529 21.976C26.9101 22.1051 26.789 22.1927 26.6536 22.1927C26.5866 22.1942 26.5219 22.1731 26.4685 22.1331C25.8292 21.72 25.0658 21.5463 24.3121 21.6422V23.3762C24.3121 23.5514 24.1707 23.6934 23.9962 23.6934C23.8217 23.6934 23.6803 23.5514 23.6803 23.3762V21.6376C21.1193 21.4813 20.7823 23.1813 20.7778 23.1979C20.7515 23.3482 20.6221 23.4585 20.4702 23.46H20.4108C20.328 23.4457 20.2551 23.3981 20.2077 23.3293C20.1603 23.2599 20.1422 23.1745 20.158 23.0922C20.158 23.0665 20.5792 20.8379 23.6796 21.007V18.0473C23.4487 18.1817 23.1877 18.2542 22.9214 18.2588C22.7214 18.2572 22.5228 18.2187 22.3355 18.1447C22.1836 18.076 22.1114 17.9 22.1708 17.7437C22.2294 17.5874 22.3994 17.5035 22.5589 17.5526C22.9553 17.7074 23.4058 17.5919 23.6788 17.2649V15.7809C23.3005 15.549 22.8545 15.4569 22.4152 15.5188C21.8218 15.6245 21.278 16.0641 20.7981 16.8261C20.7447 16.9137 20.6514 16.9688 20.5499 16.9741C19.9339 17.0126 19.3578 17.2921 18.9448 17.752C18.6327 18.2595 18.5688 18.8833 18.7718 19.4437V19.4732C18.8162 19.6718 18.8997 19.8606 19.0163 20.0275C19.1028 20.1702 19.0622 20.3568 18.9238 20.4504C18.8734 20.4867 18.8132 20.5056 18.7508 20.5056C18.644 20.504 18.5454 20.4504 18.4853 20.3613C18.4048 20.239 18.3356 20.1083 18.2792 19.9724C17.9535 20.1695 17.7151 20.4844 17.6135 20.8522C17.4917 21.4103 17.7865 22.0832 18.4935 22.8483C18.6191 22.9616 18.6319 23.1541 18.5229 23.284L18.5244 23.2833Z" fill="#3E7232"></path><path d="M10.8036 20.6363C10.9781 20.6363 11.1195 20.4944 11.1195 20.3191C11.1195 20.1439 10.9781 20.002 10.8036 20.002H7.3159C7.1414 20.002 7 20.1439 7 20.3191C7 20.4944 7.1414 20.6363 7.3159 20.6363H10.8036Z" fill="#7AC638"></path><path d="M40.6841 20.6363C40.8586 20.6363 41 20.4944 41 20.3191C41 20.1439 40.8586 20.002 40.6841 20.002H37.1964C37.0219 20.002 36.8805 20.1439 36.8805 20.3191C36.8805 20.4944 37.0219 20.6363 37.1964 20.6363H40.6841Z" fill="#7AC638"></path><path d="M12.4252 9.49524C12.3019 9.37138 12.1018 9.37138 11.9785 9.49524C11.8574 9.62136 11.8574 9.82149 11.9785 9.94762L14.447 12.4217C14.5049 12.4829 14.5861 12.5169 14.6704 12.5146C14.7539 12.5146 14.8344 12.4814 14.8938 12.4217C15.0171 12.2979 15.0171 12.097 14.8938 11.9731L12.4252 9.49448V9.49524Z" fill="#7AC638"></path><path d="M33.553 30.7345C33.4311 30.6552 33.2702 30.6696 33.1641 30.77C33.0581 30.8705 33.034 31.0306 33.1062 31.1575L35.5748 33.6316C35.6981 33.7555 35.8982 33.7555 36.0215 33.6316C36.1449 33.5077 36.1449 33.3068 36.0215 33.183L33.553 30.7345Z" fill="#7AC638"></path><path d="M11.9792 33.6376C12.1026 33.7614 12.3026 33.7614 12.426 33.6376L14.8945 31.1589C14.9758 31.1061 15.0284 31.0185 15.0367 30.9218C15.0457 30.8251 15.0096 30.7292 14.9389 30.6627C14.8682 30.5955 14.7712 30.5653 14.6756 30.5797C14.5801 30.594 14.4959 30.6522 14.4477 30.7368L11.9792 33.1897C11.8559 33.3136 11.8559 33.5145 11.9792 33.6383V33.6376Z" fill="#7AC638"></path><path d="M36.0208 9.49524C35.8974 9.37138 35.6974 9.37138 35.574 9.49524L33.1055 11.9739C32.9821 12.0977 32.9821 12.2986 33.1055 12.4225C33.1649 12.4822 33.2454 12.5154 33.3289 12.5154C33.4131 12.5177 33.4943 12.4837 33.5523 12.4225L36.0208 9.94837C36.1419 9.82225 36.1419 9.62211 36.0208 9.49599V9.49524Z" fill="#7AC638"></path><path d="M24.3159 8.81918V5.3172C24.3159 5.14198 24.1745 5 24 5C23.8255 5 23.6841 5.14198 23.6841 5.3172V8.81918C23.6841 8.9944 23.8255 9.13638 24 9.13638C24.1745 9.13638 24.3159 8.9944 24.3159 8.81918Z" fill="#7AC638"></path></g><defs><clipPath id="clip0_165_1221"><rect width="34" height="38" fill="white" transform="translate(7 5)"></rect></clipPath></defs></svg>