<svg xmlns="http://www.w3.org/2000/svg" width="64" height="64" viewBox="0 0 64 64" fill="none"><circle cx="32" cy="32" r="32" fill="white"></circle><g clip-path="url(#clip0_480_10948)"><path d="M21.2611 38.5117H14.9172C14.4204 38.5117 14 38.9286 14 39.4214V49.0866C14 49.5793 14.4204 49.9962 14.9172 49.9962H21.2611C21.758 49.9962 22.1783 49.5793 22.1783 49.0866V39.4214C22.1783 38.9286 21.758 38.5117 21.2611 38.5117Z" fill="#3E7232"></path><path d="M33.0701 31.1587H26.7262C26.2293 31.1587 25.809 31.5756 25.809 32.0684V49.0867C25.809 49.5794 26.2293 49.9963 26.7262 49.9963H33.0701C33.5669 49.9963 33.9873 49.5794 33.9873 49.0867V32.0684C33.9873 31.5756 33.5669 31.1587 33.0701 31.1587Z" fill="#7AC638"></path><path d="M49.809 24.2223L42.4714 14.3676C42.0892 13.8749 41.3631 13.8749 40.981 14.3676L33.6434 24.2223C33.1848 24.8287 33.6434 25.7005 34.3695 25.7005H37.6179V49.0865C37.6179 49.5792 38.0383 49.9962 38.5351 49.9962H44.879C45.3759 49.9962 45.7962 49.5792 45.7962 49.0865V25.6626H49.0446C49.8472 25.6626 50.2676 24.8287 49.809 24.2223Z" fill="#3E7232"></path></g><defs><clipPath id="clip0_480_10948"><rect width="36" height="36" fill="white" transform="translate(14 14)"></rect></clipPath></defs></svg>