<svg xmlns="http://www.w3.org/2000/svg" width="64" height="64" viewBox="0 0 64 64" fill="none"><circle cx="32" cy="32" r="32" fill="white"></circle><g clip-path="url(#clip0_480_10946)"><path d="M46.0769 15.3138C46.4899 14.8987 47.1622 14.8987 47.5752 15.3138C47.9881 15.729 47.9881 16.4049 47.5752 16.8201L42.8105 21.6104C42.3975 22.0256 41.7252 22.0256 41.3122 21.6104L38.6652 18.9491C38.2522 18.534 38.2522 17.858 38.6652 17.4428C39.0781 17.0277 39.7505 17.0277 40.1634 17.4428L42.064 19.3537L46.0822 15.3138H46.0769Z" fill="#7AC638"></path><path d="M36.2353 45.8708H37.8235V26.7095C37.8235 26.1241 38.3 25.645 38.8824 25.645H45.2353C45.8176 25.645 46.2941 26.1241 46.2941 26.7095V45.8708H48.9412C49.5235 45.8708 50 46.3499 50 46.9353C50 47.5208 49.5235 47.9999 48.9412 47.9999H15.0588C14.4765 47.9999 14 47.5208 14 46.9353C14 46.3499 14.4765 45.8708 15.0588 45.8708H17.7059V38.4192C17.7059 37.8337 18.1824 37.3547 18.7647 37.3547H25.1176C25.7 37.3547 26.1765 37.8337 26.1765 38.4192V45.8708H27.7647V33.6289C27.7647 33.0434 28.2412 32.5644 28.8235 32.5644H35.1765C35.7588 32.5644 36.2353 33.0434 36.2353 33.6289V45.8708Z" fill="#3E7232"></path></g><defs><clipPath id="clip0_480_10946"><rect width="36" height="33" fill="white" transform="translate(14 15)"></rect></clipPath></defs></svg>