<svg xmlns="http://www.w3.org/2000/svg" width="64" height="64" viewBox="0 0 64 64" fill="none"><circle cx="32" cy="32" r="32" fill="white"></circle><path d="M37.5688 26.521L38.4015 26.8313L44.7806 14.3281H43.7902L43.789 14.3287L37.5688 26.521Z" fill="#7AC638"></path><path d="M50.6144 27.4766C49.4415 29.6328 47.0513 31.1124 44.2851 31.1124C41.5189 31.1124 39.1287 29.6328 37.9552 27.4766H50.6144Z" fill="#7AC638"></path><path d="M31.9411 17.9688V24.5736H34.4182L37.0588 20.4435L35.1981 17.9688H31.9411Z" fill="#3E7232"></path><path d="M31.9399 24.5781V50.0037L36.4976 42.932L34.4169 24.5781H31.9399Z" fill="#7AC638"></path><path d="M35.1976 17.9695L45.643 14L46.071 15.2819L37.0589 20.4442L35.1976 17.9695Z" fill="#7AC638"></path><path d="M43.7887 14.3287L44.2843 15.3004L50.1673 26.8313L51 26.521L44.7804 14.3281H43.7899L43.7887 14.3287Z" fill="#7AC638"></path><path d="M37.568 26.5234H51V28.2587H37.568V26.5234Z" fill="#3E7232"></path><path d="M26.3152 26.5216L25.4825 26.8319L19.1033 14.3281H20.0944L20.095 14.3293L26.3152 26.5216Z" fill="#7AC638"></path><path d="M13.2686 27.4766C14.4414 29.6323 16.8317 31.1124 19.5985 31.1124C22.3652 31.1124 24.7543 29.6328 25.9277 27.4766H13.2686Z" fill="#7AC638"></path><path d="M28.6862 17.9695L18.2408 14L17.8121 15.2819L26.8248 20.4448L28.6862 17.9695Z" fill="#7AC638"></path><path d="M20.0958 14.3293L19.6009 15.301L13.7173 26.8319L12.8846 26.5216L19.1042 14.3281H20.0952L20.0958 14.3293Z" fill="#7AC638"></path><path d="M12.8832 26.5234H26.3152V28.2587H12.8832V26.5234Z" fill="#3E7232"></path><path d="M26.8232 20.4435L29.465 24.5736H31.9409V17.9688H28.6851L26.8232 20.4435Z" fill="#3E7232"></path><path d="M27.385 42.932L31.9409 50.0037V24.5781H29.465V24.5793L27.385 42.932Z" fill="#7AC638"></path></svg>