<svg xmlns="http://www.w3.org/2000/svg" width="64" height="64" viewBox="0 0 64 64" fill="none"><circle cx="32" cy="32" r="32" fill="white"></circle><g clip-path="url(#clip0_480_10950)"><path d="M30.0877 38.4986C29.9091 38.3668 29.6263 38.1544 29.5147 38.1251C29.3138 38.1251 29.0533 38.1984 28.8226 38.257C28.525 38.3302 28.2199 38.4107 27.8999 38.44C27.7957 38.4474 27.699 38.4547 27.6023 38.4547C27.2972 38.4547 27.007 38.4034 26.7465 38.2936C26.5605 38.2203 26.3744 38.1105 26.2107 37.9787C26.1512 37.9347 26.0917 37.8762 26.0396 37.8176L25.9726 37.7517C25.9205 37.7004 25.8684 37.6491 25.8238 37.5979C25.7866 37.5466 25.7494 37.5027 25.7196 37.4587C25.5559 37.2317 25.422 37.0194 25.2955 36.8143C25.1764 36.6093 24.9978 36.309 24.9085 36.2431C24.8043 36.1845 24.4248 36.1333 24.1941 36.0967L24.023 36.0747C23.837 36.0454 23.6435 36.0161 23.4574 35.9648L19.9675 46.1146C19.8633 46.4075 19.9451 46.7224 20.1758 46.9347C20.4214 47.1691 20.8009 47.2423 21.1283 47.1105L24.596 45.807C24.6629 45.785 24.7374 45.7997 24.7746 45.8509L26.8432 48.6483C27.007 48.8753 27.2748 48.9998 27.5576 48.9998C27.6097 48.9998 27.6544 48.9998 27.7064 48.9925C28.0339 48.9412 28.2943 48.7289 28.3985 48.436L31.5536 39.2675C31.4122 39.2382 31.2634 39.1943 31.122 39.1357C30.7127 38.96 30.3853 38.7183 30.0951 38.4986" fill="#7AC638"></path><path d="M40.5575 35.9648C40.3714 36.0161 40.178 36.0454 39.9919 36.0747L39.8133 36.0967C39.5901 36.1333 39.2032 36.1845 39.099 36.2504C39.0097 36.309 38.8311 36.6093 38.712 36.807C38.5855 37.034 38.4516 37.2464 38.2953 37.4441C38.2581 37.51 38.2283 37.5539 38.1986 37.5906C38.1465 37.6491 38.087 37.7077 38.0349 37.759L37.9753 37.8176C37.9158 37.8762 37.8637 37.9347 37.7967 37.9787C37.633 38.1178 37.4544 38.2203 37.261 38.2936C37.008 38.4034 36.7326 38.4547 36.4275 38.4547C36.2564 38.4547 36.0927 38.4327 35.9215 38.4107C35.676 38.3741 35.4304 38.3155 35.1923 38.257C34.9914 38.2057 34.7086 38.1325 34.5374 38.1325H34.4407C34.4407 38.1325 34.3514 38.1837 34.143 38.3375L33.9645 38.462C33.6296 38.7183 33.3022 38.96 32.9078 39.1284C32.759 39.1943 32.6101 39.2382 32.4688 39.2749L35.6164 48.4286C35.7057 48.7216 35.9662 48.9339 36.2936 48.9852C36.3457 48.9998 36.3978 48.9998 36.4499 48.9998C36.7326 48.9998 37.0005 48.8753 37.1642 48.6483L39.2255 45.8583C39.2701 45.7997 39.3445 45.785 39.419 45.807L42.8792 47.1105C43.2066 47.2423 43.5861 47.1691 43.8391 46.9347C44.0698 46.715 44.1516 46.4075 44.0475 46.1146L40.5575 35.9648Z" fill="#7AC638"></path><path d="M44.3081 27.2506C44.6355 26.8259 45.0001 26.3499 45.0001 25.786C45.0001 25.2221 44.6355 24.7535 44.3155 24.336C44.0774 24.0285 43.8616 23.7429 43.8021 23.4793C43.75 23.201 43.8467 22.8275 43.9434 22.4687C44.0848 21.9414 44.2262 21.3922 44.0179 20.9015C44.0179 20.9015 44.003 20.8796 43.9955 20.8649C43.7723 20.3816 43.2886 20.096 42.8198 19.8251C42.4849 19.6347 42.165 19.4443 42.0087 19.2319C41.8524 19.0049 41.8003 18.6241 41.7482 18.2506C41.6738 17.7087 41.592 17.1448 41.1976 16.7567C41.1678 16.7274 41.1306 16.7128 41.1009 16.6908C40.7139 16.3759 40.2005 16.2954 39.687 16.2221C39.3075 16.1709 38.9205 16.1123 38.6899 15.9585C38.4592 15.8047 38.2657 15.4752 38.0722 15.153C37.7895 14.6843 37.4992 14.1937 36.9858 13.9813C36.8593 13.93 36.7254 13.9007 36.5914 13.8861C36.197 13.8422 35.7803 13.952 35.3859 14.0545C35.0138 14.1497 34.6343 14.2449 34.3516 14.1937C34.0911 14.1424 33.7935 13.9227 33.4809 13.6957C33.0493 13.3735 32.5656 13.0146 32.0001 13.0146C31.4346 13.0146 30.9509 13.3735 30.5193 13.6957C30.4449 13.7543 30.363 13.8129 30.2886 13.8641C30.0654 14.0252 29.8496 14.157 29.6486 14.1937C29.6338 14.1937 29.6189 14.1937 29.5966 14.1937C29.3212 14.2303 28.964 14.1424 28.6143 14.0545C28.2125 13.952 27.7958 13.8422 27.4014 13.8861C27.2674 13.9007 27.1409 13.93 27.007 13.9813C26.4935 14.1937 26.2033 14.677 25.9205 15.153C25.7271 15.4752 25.5336 15.8047 25.3029 15.9512C25.0648 16.105 24.6778 16.1636 24.2983 16.2148C23.7923 16.288 23.2714 16.3686 22.8845 16.6835C22.8473 16.6981 22.8175 16.7201 22.7877 16.7494C22.3934 17.1375 22.3115 17.7014 22.2371 18.2433C22.185 18.6094 22.1329 18.9902 21.9766 19.2173C21.8204 19.4443 21.5004 19.6273 21.1655 19.8177C20.6818 20.096 20.1833 20.3889 19.9675 20.8942C19.9526 20.9235 19.9526 20.9601 19.9452 20.9894C19.7889 21.4581 19.9079 21.9707 20.0419 22.4614C20.1163 22.747 20.1907 23.0399 20.1982 23.2815C20.1982 23.3474 20.1982 23.4133 20.1833 23.4719C20.1312 23.7356 19.9079 24.0212 19.6698 24.3287C19.3498 24.7461 18.9778 25.2221 18.9778 25.7787C18.9778 26.3352 19.3424 26.8186 19.6698 27.2433C19.9079 27.5509 20.1237 27.8365 20.1758 28.1001C20.2279 28.3784 20.1312 28.7518 20.0345 29.118C19.8931 29.6452 19.7517 30.1871 19.96 30.6851C20.0121 30.8096 20.0865 30.9268 20.1684 31.0293C20.2503 31.1318 20.347 31.2197 20.4512 31.3076C20.4512 31.3076 20.4512 31.3076 20.4586 31.3076C20.667 31.476 20.9125 31.6151 21.1507 31.7543C21.4855 31.952 21.8129 32.1351 21.9618 32.3621C22.118 32.5891 22.1701 32.9772 22.2222 33.3434C22.2966 33.8853 22.3785 34.4418 22.7654 34.8299C23.1226 35.1815 23.6286 35.2767 24.0825 35.3352L24.2537 35.3572C24.6406 35.4085 25.035 35.467 25.2731 35.6208C25.5038 35.7746 25.6899 36.0895 25.8908 36.4264C26.0024 36.6168 26.1215 36.8072 26.248 36.9829C26.2777 37.0269 26.3075 37.0708 26.3447 37.1147C26.3893 37.166 26.4414 37.2099 26.4861 37.2539C26.5307 37.2978 26.5754 37.3564 26.6275 37.393C26.7316 37.4736 26.8507 37.5468 26.9772 37.5981C27.2302 37.7006 27.4981 37.7152 27.766 37.6933C28.0339 37.664 28.3092 37.5981 28.5771 37.5248C28.9417 37.4296 29.3287 37.3344 29.6114 37.3857C29.8793 37.4369 30.1695 37.6566 30.4895 37.891C30.7574 38.096 31.0402 38.3011 31.3527 38.4402C31.5611 38.5281 31.762 38.572 31.9555 38.572C32.1489 38.572 32.3573 38.5281 32.5656 38.4402C32.8782 38.3084 33.1535 38.096 33.4288 37.8983C33.5033 37.8397 33.5851 37.7811 33.6595 37.7299C33.8902 37.5688 34.106 37.4369 34.3069 37.393C34.3367 37.393 34.3739 37.393 34.4111 37.393C34.679 37.371 35.0138 37.4516 35.3338 37.5395C35.5496 37.598 35.7729 37.6493 35.9887 37.6786C36.3086 37.7299 36.6286 37.7372 36.9337 37.6127C37.0602 37.5614 37.1793 37.4882 37.2835 37.4077C37.3355 37.3637 37.3802 37.3125 37.4248 37.2685C37.4695 37.2173 37.529 37.1806 37.5662 37.1221C37.596 37.0854 37.6183 37.0415 37.6481 37.0049C37.782 36.8218 37.9011 36.6314 38.0201 36.4337C38.2211 36.0968 38.4071 35.7819 38.6378 35.6282C38.8759 35.4744 39.2777 35.4158 39.6647 35.3645L39.8358 35.3426C40.2897 35.2767 40.7958 35.1815 41.1529 34.8299C41.5399 34.4418 41.6217 33.8853 41.6962 33.3434C41.7482 32.9699 41.8003 32.5891 41.9566 32.3621C42.1054 32.1351 42.4329 31.952 42.7677 31.7543C43.2514 31.476 43.75 31.1904 43.9583 30.6778C43.9583 30.6778 43.9583 30.6705 43.9583 30.6631C44.1592 30.1725 44.0179 29.6306 43.8839 29.1107C43.7872 28.7445 43.6904 28.371 43.7425 28.1001C43.7946 27.8365 44.0179 27.5509 44.2485 27.2433M37.0304 25.8812C37.0304 25.9471 37.0304 26.013 37.023 26.0789C37.023 26.1888 37.0081 26.2986 36.9932 26.4085C36.9932 26.4524 36.9784 26.5037 36.9709 26.5476C36.9486 26.6794 36.9263 26.8039 36.8965 26.9357C36.8965 26.965 36.8816 26.987 36.8742 27.0163C36.837 27.1627 36.7923 27.3092 36.7477 27.4483C36.7477 27.463 36.7328 27.4849 36.7254 27.4996C36.6733 27.6534 36.6063 27.7925 36.5393 27.939C36.5393 27.9463 36.5393 27.9536 36.5244 27.9683C36.5244 27.9756 36.5096 27.9829 36.5096 27.9976C36.45 28.1294 36.3756 28.2539 36.3012 28.371C36.2863 28.4003 36.264 28.4296 36.2417 28.4589C36.1747 28.5614 36.1077 28.6566 36.0407 28.7518C36.0035 28.7958 35.9738 28.847 35.9366 28.891C35.877 28.9642 35.8175 29.0374 35.758 29.1033C35.7059 29.1619 35.6538 29.2205 35.5943 29.2791C35.5422 29.3304 35.4901 29.3816 35.438 29.4329C35.371 29.4988 35.2966 29.5574 35.2296 29.6233C35.185 29.6599 35.1329 29.7038 35.0808 29.7404C34.999 29.8064 34.9171 29.8649 34.8353 29.9235C34.7906 29.9528 34.7385 29.9894 34.6939 30.0187C34.6046 30.0773 34.5153 30.1286 34.4185 30.1798C34.3664 30.2091 34.3144 30.2311 34.2697 30.2531C34.173 30.3043 34.0762 30.3483 33.9795 30.3922C33.9274 30.4142 33.8753 30.4361 33.8232 30.4508C33.7191 30.4947 33.6149 30.5313 33.5107 30.5606C33.4586 30.5753 33.414 30.5899 33.3619 30.6046C33.2503 30.6339 33.1386 30.6631 33.0196 30.6924C32.9749 30.6998 32.9303 30.7071 32.8856 30.7217C32.7666 30.7437 32.6401 30.7657 32.5136 30.7803C32.4689 30.7803 32.4317 30.7876 32.3871 30.795C32.2606 30.8096 32.1341 30.8096 32.0075 30.8169C31.9852 30.8169 31.9555 30.8169 31.9331 30.8169C31.9108 30.8169 31.8885 30.8169 31.8587 30.8169C31.7471 30.8169 31.6355 30.8096 31.5239 30.8023C31.4494 30.8023 31.3825 30.7876 31.3081 30.7803C31.2337 30.773 31.1518 30.7583 31.0774 30.7437C30.9732 30.7291 30.869 30.7071 30.7723 30.6851C30.7276 30.6778 30.683 30.6631 30.6383 30.6485C30.5044 30.6119 30.3779 30.5753 30.2514 30.5313C30.2291 30.524 30.2067 30.5167 30.1844 30.5094C30.0356 30.4581 29.8942 30.3995 29.7603 30.3336C29.7528 30.3336 29.7454 30.3336 29.7379 30.3263C29.7305 30.319 29.7231 30.319 29.7156 30.3116C29.5817 30.2457 29.4477 30.1798 29.3212 30.0993C29.2989 30.0846 29.2691 30.07 29.2468 30.0553C29.1352 29.9894 29.031 29.9162 28.9268 29.843C28.8896 29.8137 28.8524 29.7917 28.8078 29.7624C28.7259 29.6965 28.6366 29.6306 28.5622 29.5574C28.5176 29.5134 28.4655 29.4768 28.4208 29.4329C28.3539 29.367 28.2869 29.3011 28.2274 29.2352C28.1753 29.1839 28.1232 29.1253 28.0785 29.074C28.0264 29.0081 27.9743 28.9422 27.9223 28.8763C27.8702 28.8177 27.8255 28.7518 27.7809 28.6859C27.7362 28.62 27.6916 28.5541 27.6469 28.4882C27.6023 28.4223 27.5576 28.3491 27.5204 28.2832C27.4832 28.2173 27.446 28.144 27.4088 28.0708C27.3716 27.9976 27.3344 27.9243 27.2972 27.8438C27.2674 27.7779 27.2377 27.7046 27.2153 27.6387C27.1781 27.5509 27.1484 27.4703 27.1186 27.3824C27.0963 27.3238 27.0814 27.2579 27.0665 27.1994C27.0367 27.0968 27.007 26.9943 26.9847 26.8918C26.9772 26.8478 26.9623 26.7966 26.9549 26.7526C26.9326 26.6282 26.9102 26.5037 26.8954 26.3718C26.8954 26.3426 26.8954 26.3133 26.8879 26.284C26.873 26.1375 26.8656 25.9911 26.8656 25.8446C26.8656 25.8373 26.8656 25.8299 26.8656 25.8153C26.8656 25.808 26.8656 25.8007 26.8656 25.7933C26.8656 25.6395 26.873 25.4858 26.8879 25.3393C26.8879 25.3173 26.8879 25.3027 26.8879 25.2807C26.9028 25.1416 26.9251 25.0024 26.9549 24.8633C26.9549 24.8267 26.9698 24.7974 26.9772 24.7608C26.9995 24.6436 27.0367 24.5264 27.0665 24.4166C27.0814 24.3653 27.0963 24.3068 27.1186 24.2555C27.1484 24.1603 27.1856 24.0724 27.2228 23.9772C27.2525 23.904 27.2823 23.8381 27.3121 23.7649C27.327 23.7282 27.3418 23.6843 27.3642 23.6477C27.3865 23.6111 27.4088 23.5671 27.4311 23.5305C27.4683 23.4573 27.5055 23.3841 27.5502 23.3108C27.5948 23.2376 27.6395 23.1644 27.6841 23.0911C27.7288 23.0252 27.7734 22.9593 27.8181 22.8934C27.8702 22.8202 27.9223 22.7543 27.9743 22.6884C28.019 22.6298 28.0711 22.5712 28.1232 22.5126C28.1827 22.4467 28.2348 22.3808 28.2943 22.3222C28.3539 22.2636 28.4134 22.205 28.4729 22.1538C28.5324 22.1025 28.5845 22.0513 28.6441 22C28.7185 21.9414 28.7929 21.8828 28.8673 21.8243C28.9194 21.7876 28.964 21.751 29.0161 21.7144C29.1054 21.6485 29.2022 21.5899 29.2915 21.5387C29.3361 21.5167 29.3733 21.4874 29.4105 21.4654C29.5147 21.4068 29.6263 21.3483 29.7379 21.297C29.7752 21.2823 29.8049 21.2604 29.8421 21.2457C29.9537 21.1945 30.0728 21.1505 30.1919 21.1066C30.2291 21.0919 30.2663 21.0773 30.3035 21.07C30.4151 21.0334 30.5267 20.9967 30.6383 20.9675C30.6904 20.9528 30.7425 20.9382 30.7946 20.9308C30.8913 20.9089 30.9881 20.8869 31.0848 20.8723C31.1667 20.8576 31.2411 20.8503 31.3229 20.8356C31.3974 20.8283 31.4718 20.821 31.5462 20.8137C31.6504 20.8063 31.762 20.799 31.8736 20.799C31.9034 20.799 31.9331 20.799 31.9555 20.799C31.9703 20.799 31.9852 20.799 32.0075 20.799C32.4689 20.799 32.9377 20.8649 33.3916 20.9967C33.414 20.9967 33.4363 21.0041 33.4586 21.0114H33.4809C33.7116 21.0919 33.9349 21.1725 34.1581 21.275C34.6269 21.4947 35.0511 21.7803 35.4157 22.1098L35.4306 22.1318H35.4454C35.9887 22.6444 36.4203 23.2596 36.6956 23.9553L36.7105 23.9772C36.7105 23.9772 36.7328 24.0505 36.7477 24.0871C36.7849 24.1823 36.8146 24.2775 36.8444 24.38C36.8667 24.4459 36.8816 24.5118 36.8965 24.5704C36.9188 24.6729 36.9486 24.7681 36.9635 24.8706C36.9784 24.9439 36.9858 25.0098 37.0007 25.083C37.0156 25.1782 37.0304 25.2734 37.0379 25.3686C37.0379 25.4491 37.0453 25.5297 37.0528 25.6103C37.0528 25.6762 37.0602 25.7421 37.0602 25.808C37.0602 25.8373 37.0602 25.8666 37.0602 25.8959" fill="#3E7232"></path></g><defs><clipPath id="clip0_480_10950"><rect width="26" height="36" fill="white" transform="translate(19 13)"></rect></clipPath></defs></svg>