<svg xmlns="http://www.w3.org/2000/svg" width="64" height="64" viewBox="0 0 64 64" fill="none"><circle cx="32" cy="32" r="32" fill="white"></circle><g clip-path="url(#clip0_480_10947)"><path fill-rule="evenodd" clip-rule="evenodd" d="M47.1577 18.1508C44.3526 15.2832 39.8068 15.279 37.0017 18.1508C36.552 18.6105 36.1643 19.1292 35.8466 19.6943C35.7518 19.9052 35.5455 20.0359 35.3186 20.0359H18.9212L17.1763 22.6126H27.947C28.2275 22.6126 28.4585 22.8445 28.4585 23.1355C28.4585 23.4265 28.2316 23.6584 27.947 23.6584H17.0608L20.3031 26.661H22.6545L24.6015 25.3495C24.7913 25.2187 25.0388 25.2187 25.2327 25.341L27.1055 26.5556L29.1433 25.244C29.3413 25.1049 29.5971 25.1006 29.7992 25.2356L31.903 26.661H35.3145C35.5249 26.661 35.7188 26.7748 35.8219 26.9646C37.7731 30.4943 42.154 31.7426 45.6108 29.7479C49.0677 27.7532 50.2846 23.2746 48.3334 19.7407C48.0116 19.1587 47.6156 18.6274 47.1536 18.1551L47.1577 18.1508Z" fill="#3E7232"></path><path fill-rule="evenodd" clip-rule="evenodd" d="M30.1168 22.6084H30.3561C30.6366 22.6084 30.8676 22.8403 30.8676 23.1313C30.8676 23.4223 30.6407 23.6542 30.3561 23.6542H29.6919C29.4114 23.6542 29.1804 23.4223 29.1804 23.1313C29.1804 22.8403 29.4073 22.6084 29.6919 22.6084H30.1168Z" fill="#7AC638"></path><path fill-rule="evenodd" clip-rule="evenodd" d="M44.9178 21.769C45.7676 21.769 46.4565 22.4733 46.4565 23.342C46.4565 24.2108 45.7676 24.915 44.9178 24.915C44.068 24.915 43.3792 24.2108 43.3792 23.342C43.3792 22.9245 43.54 22.5239 43.8288 22.2287C44.1175 21.9335 44.5094 21.769 44.9178 21.769Z" fill="#7AC638"></path><path fill-rule="evenodd" clip-rule="evenodd" d="M24.911 42.8843L25.5257 42.5174C25.6412 42.4415 25.7814 42.412 25.9176 42.433L34.832 43.7488C35.7106 43.8922 36.614 43.694 37.3524 43.1879L37.3813 43.171L49.2617 36.158C49.2617 36.158 49.2823 36.1453 49.2905 36.1411C49.9547 35.7531 50.1898 34.8886 49.8186 34.2054C49.6412 33.8849 49.3483 33.6488 48.9977 33.556C48.6305 33.4548 48.2345 33.5012 47.9004 33.6825L40.6979 37.4948C40.7268 37.8448 40.6814 38.1948 40.5741 38.528C40.5659 38.5533 40.5535 38.5786 40.5411 38.6039C40.2524 39.2196 39.7739 39.7257 39.1799 40.0419C38.6065 40.3413 37.9423 40.3877 37.3359 40.1769L30.1623 37.7225C29.8571 37.6171 29.6921 37.2797 29.7952 36.9677C29.8983 36.6556 30.2283 36.4869 30.5336 36.5923L37.7072 39.0467C38.0207 39.1563 38.3672 39.1268 38.6642 38.9708C39.019 38.7768 39.3036 38.4774 39.481 38.1105C39.6955 37.3725 39.3036 36.5923 38.59 36.3435L28.768 32.9825C28.0008 32.7042 27.1634 32.7084 26.3961 32.9951L20.1506 35.2049L24.9069 42.8885L24.911 42.8843Z" fill="#7AC638"></path><path fill-rule="evenodd" clip-rule="evenodd" d="M24.2386 44.0229C24.2386 44.0229 24.2262 44.0018 24.2179 43.9891L17.7002 33.459L14 35.8543L20.8972 47.0001L24.5975 44.6048L24.2386 44.0229Z" fill="#3E7232"></path></g><defs><clipPath id="clip0_480_10947"><rect width="36" height="31" fill="white" transform="translate(14 16)"></rect></clipPath></defs></svg>