<svg width="24" height="24" viewBox="0 0 24 24" fill="none" xmlns="http://www.w3.org/2000/svg">
<path d="M6.86626 19.6341L11.8683 10.4636C11.9252 10.3594 12.0749 10.3594 12.1317 10.4636L17.1338 19.6341C17.2011 19.7575 17.0769 19.8974 16.9464 19.8452L12.9659 18.253C12.918 18.2338 12.8833 18.1913 12.8741 18.1405L12.1476 14.145C12.1177 13.9807 11.8823 13.9807 11.8524 14.145L11.126 18.1405C11.1167 18.1913 11.082 18.2338 11.0341 18.253L7.05365 19.8452C6.92313 19.8974 6.79895 19.7575 6.86626 19.6341Z" fill="#CCD1D7"/>
<path d="M9.33335 9.33333V4.12071C9.33335 4.07617 9.38721 4.05386 9.41871 4.08536L14.5813 9.24798C14.6128 9.27948 14.6667 9.25717 14.6667 9.21262V4" stroke="#EE274C" stroke-width="2" stroke-linecap="round"/>
</svg>
