<svg xmlns="http://www.w3.org/2000/svg" width="72" height="72" viewBox="0 0 72 72" fill="none"><circle cx="36" cy="36" r="35.5" stroke="#333333" stroke-opacity="0.4"></circle><path d="M32.4641 25C32.0685 24.3149 31.4787 23.7624 30.7692 23.4125C30.0596 23.0626 29.2623 22.931 28.4779 23.0342C27.6935 23.1375 26.9574 23.471 26.3626 23.9926C25.7678 24.5143 25.3411 25.2006 25.1363 25.9647C24.9315 26.7289 24.958 27.5366 25.2123 28.2858C25.4666 29.0349 25.9373 29.6918 26.565 30.1734C27.1926 30.655 27.949 30.9397 28.7384 30.9914C29.5278 31.0432 30.3149 30.8597 31 30.4641" stroke="#7AC638" stroke-width="2"></path><path d="M33.8259 37.1718L33.9898 38.1583L35.8052 37.8566L34.5644 36.4976L33.8259 37.1718ZM21.169 43.9128L22.1514 44.0996L21.169 43.9128ZM25.6374 45V46H26.3891L26.598 45.2779L25.6374 45ZM29.0001 36C30.7787 36 32.0866 36.75 33.0874 37.8461L34.5644 36.4976C33.253 35.0612 31.4345 34 29.0001 34V36ZM22.1514 44.0996C22.3887 42.8516 22.9258 40.7667 24.028 39.0182C25.1154 37.2931 26.6741 36 29.0001 36V34C25.7601 34 23.6496 35.868 22.3361 37.9517C21.0374 40.012 20.4419 42.3835 20.1866 43.726L22.1514 44.0996ZM22.105 44C22.0991 44 22.1117 43.9992 22.127 44.0166C22.1345 44.0253 22.1429 44.0388 22.148 44.0569C22.1535 44.0765 22.1527 44.0926 22.1514 44.0996L20.1866 43.726C19.9487 44.9768 20.9419 46 22.105 46V44ZM25.6374 44H22.105V46H25.6374V44ZM26.598 45.2779C27.4422 42.3602 29.3888 38.9229 33.9898 38.1583L33.6619 36.1854C27.9621 37.1326 25.6191 41.4652 24.6768 44.7221L26.598 45.2779Z" fill="#7AC638"></path><path d="M39.5359 25C39.9315 24.3149 40.5213 23.7624 41.2308 23.4125C41.9404 23.0626 42.7377 22.931 43.5221 23.0342C44.3065 23.1375 45.0426 23.471 45.6374 23.9926C46.2322 24.5143 46.6589 25.2006 46.8637 25.9647C47.0685 26.7289 47.042 27.5366 46.7877 28.2858C46.5334 29.0349 46.0627 29.6918 45.435 30.1734C44.8074 30.655 44.051 30.9397 43.2616 30.9914C42.4722 31.0432 41.6851 30.8597 41 30.4641" stroke="#7AC638" stroke-width="2"></path><path d="M50.8307 43.9128L51.8131 43.726V43.726L50.8307 43.9128ZM38.1738 37.1718L37.4353 36.4976L36.1945 37.8566L38.0099 38.1583L38.1738 37.1718ZM46.3623 45L45.4016 45.2779L45.6106 46H46.3623V45ZM42.9996 36C45.3256 36 46.8843 37.2931 47.9717 39.0182C49.0738 40.7667 49.6109 42.8516 49.8483 44.0996L51.8131 43.726C51.5578 42.3835 50.9623 40.012 49.6636 37.9517C48.3501 35.868 46.2396 34 42.9996 34V36ZM38.9123 37.8461C39.9131 36.75 41.221 36 42.9996 36V34C40.5652 34 38.7467 35.0612 37.4353 36.4976L38.9123 37.8461ZM38.0099 38.1583C42.6109 38.9229 44.5575 42.3602 45.4016 45.2779L47.3229 44.7221C46.3806 41.4652 44.0376 37.1326 38.3378 36.1853L38.0099 38.1583ZM49.8946 44H46.3623V46H49.8946V44ZM49.8483 44.0996C49.8469 44.0926 49.8461 44.0765 49.8516 44.0569C49.8568 44.0388 49.8651 44.0253 49.8727 44.0166C49.8879 43.9992 49.9006 44 49.8946 44V46C51.0578 46 52.0509 44.9768 51.8131 43.726L49.8483 44.0996Z" fill="#7AC638"></path><circle cx="36" cy="28" r="5" stroke="#3E7232" stroke-width="2" stroke-linecap="round"></circle><path d="M36 37C45.0553 37 46.6562 45.132 46.9392 48.0074C46.9933 48.557 46.5523 49 46 49H26C25.4477 49 25.0067 48.557 25.0608 48.0074C25.3438 45.132 26.9447 37 36 37Z" stroke="#3E7232" stroke-width="2" stroke-linecap="round"></path></svg>