<svg xmlns="http://www.w3.org/2000/svg" width="41" height="114" viewBox="0 0 41 114" fill="none"><g clip-path="url(#clip0_152_5750)"><path d="M19.071 61.5671C19.1842 61.7343 19.3292 61.8777 19.4976 61.9891C19.6182 62.0832 19.7473 62.166 19.8832 62.2361C20.0528 62.3236 20.2379 62.3905 20.3972 62.4523C20.5551 62.5105 20.7164 62.5586 20.8804 62.5964C21.1751 62.6676 21.4768 62.7055 21.78 62.7096H21.8468C22.1921 62.7051 22.5362 62.6689 22.8749 62.6015L23.0805 62.5603L23.3478 62.5037L23.6768 62.4574H23.8156C23.9852 62.4317 24.1292 62.4008 24.2679 62.3699L24.6072 62.2721H24.674L24.8231 62.2258L25.0647 62.1538L25.3526 62.0714L25.4811 62.0354C25.6661 61.9891 25.8512 61.9376 26.026 61.8758C26.2007 61.8141 26.3858 61.7317 26.54 61.6494L26.6274 61.6134L26.8741 61.5207C27.0078 61.4693 27.1517 61.4178 27.2854 61.356C27.3772 61.3114 27.4664 61.2615 27.5527 61.2068L27.8919 61.0061C28.0153 60.9392 28.1387 60.8568 28.2569 60.7796L28.4368 60.6613C28.6008 60.5534 28.7586 60.4366 28.9097 60.3113L28.9457 60.2804L29.0948 60.1826L29.2233 60.1003C29.3492 60.0105 29.4663 59.9088 29.5729 59.7967L29.6705 59.6886C29.7385 59.6094 29.8105 59.5338 29.8864 59.4621L29.9892 59.3798C30.0766 59.3077 30.164 59.2357 30.2463 59.1533C30.3285 59.071 30.3799 59.0041 30.4416 58.9269L30.5084 58.8497L30.5907 58.7519C30.6626 58.6644 30.7346 58.5718 30.8117 58.4895L30.9094 58.3814C30.9762 58.3093 31.043 58.2373 31.1047 58.1601C31.1664 58.0829 31.3309 57.8822 31.4131 57.7741C31.6112 57.5211 31.7965 57.2583 31.9683 56.9867C32.1122 56.7551 32.2613 56.5029 32.4412 56.189C32.6211 55.875 32.8165 55.4788 32.9912 55.1288L33.2894 54.5318L33.423 54.2848C33.5258 54.0892 33.6389 53.8833 33.7263 53.6723C33.8137 53.4613 33.9525 53.132 34.0656 52.8077C34.1787 52.4835 34.2712 52.185 34.3586 51.8813L34.4408 51.5829C34.5025 51.3821 34.5591 51.1711 34.6105 50.9653C34.6619 50.7594 34.6876 50.6925 34.7236 50.5536C34.7595 50.4146 34.8212 50.2036 34.8624 50.0389C34.9497 49.6889 35.0166 49.4059 35.068 49.1434C35.1194 48.881 35.1554 48.6905 35.1913 48.4692C35.1913 48.3972 35.217 48.3251 35.2273 48.2531C35.2273 48.0832 35.2839 47.9186 35.3147 47.7384L35.3918 47.3113C35.4329 47.0642 35.4638 46.7966 35.4946 46.5702C35.4946 46.4672 35.4946 46.3643 35.5306 46.2665L35.5615 46.0143C35.5974 45.7879 35.6334 45.5563 35.6488 45.3247C35.6488 45.1703 35.6488 45.0159 35.6797 44.8667C35.7105 44.7174 35.6797 44.5476 35.6797 44.3881C35.7141 44.0684 35.7312 43.7472 35.7311 43.4257V43.1838C35.7311 43.122 35.7311 43.0654 35.7311 43.0036C35.7311 42.8544 35.7311 42.7052 35.7311 42.5508C35.7311 42.3964 35.7311 42.3758 35.7311 42.2883C35.7311 42.067 35.7311 41.8405 35.7311 41.6141C35.7311 41.5112 35.7311 41.4031 35.7311 41.3002C35.7311 41.1149 35.7311 40.9296 35.7311 40.7443C35.7311 40.4561 35.7311 40.1679 35.7311 39.89C35.7311 39.6121 35.7311 39.2776 35.7311 38.9842C35.7311 38.6909 35.7311 38.2843 35.7311 37.9549C35.7311 37.7028 35.7311 37.4403 35.7311 37.1881V37.1469C35.7311 36.8484 35.7311 36.5397 35.69 36.2412C35.6488 35.9427 35.6488 35.7625 35.6231 35.5309V35.4692V35.3096C35.6231 35.2067 35.6231 35.0986 35.6231 34.9957C35.6231 34.8928 35.6231 34.795 35.6231 34.6921C35.6231 34.5891 35.6231 34.5891 35.6231 34.5325C35.6206 34.4845 35.6206 34.4364 35.6231 34.3884C35.6206 34.3731 35.6206 34.3574 35.6231 34.3421C35.5923 34.0848 35.5666 33.8635 35.5512 33.6319C35.5512 33.4929 35.5152 33.3488 35.4946 33.2099C35.4813 33.1281 35.4624 33.0472 35.4381 32.968C35.4381 32.9011 35.4021 32.829 35.3918 32.7621C35.3709 32.6303 35.3365 32.5009 35.289 32.3761C35.2919 32.3282 35.2919 32.28 35.289 32.232L35.2273 32.1188C35.1759 32.0416 35.1245 31.9644 35.0783 31.8872L35.0114 31.7843V31.7586C34.9367 31.6907 34.8399 31.6523 34.739 31.6505C34.6877 31.6451 34.636 31.6451 34.5848 31.6505C34.5149 31.6728 34.4514 31.7117 34.3997 31.7637C34.361 31.7996 34.3281 31.8413 34.3021 31.8872C34.2441 31.9842 34.1943 32.0857 34.153 32.1909C34.0575 32.4344 33.9835 32.6858 33.9319 32.9423C33.8908 33.1224 33.86 33.3077 33.8291 33.4878C33.8291 33.5444 33.8291 33.601 33.8291 33.6576C33.7931 33.8635 33.7674 34.0745 33.7417 34.2803V34.4244C33.7417 34.6046 33.6801 34.7796 33.6441 34.9391C33.6081 35.0986 33.5978 35.1758 33.5773 35.2942C33.5413 35.4949 33.5053 35.6956 33.4642 35.8963L33.4025 36.2463C33.3459 36.5808 33.3099 36.9256 33.2791 37.2756C33.2791 37.4197 33.2791 37.5638 33.238 37.7079C33.1969 37.852 33.202 38.0527 33.1866 38.2226C33.1712 38.3924 33.1403 38.696 33.1146 38.9328V39.1644C33.0838 39.4371 33.0683 39.7356 33.0632 40.1062C33.0581 40.4767 33.0632 40.7443 33.0221 41.012V41.0171C33.0221 41.1612 33.0118 41.3053 32.9912 41.4494C32.9912 41.5626 32.9912 41.6759 32.9553 41.7891V41.928V42.0052C32.9244 42.2832 32.8884 42.5559 32.8576 42.8287C32.801 43.2455 32.7239 43.7447 32.6109 44.2337C32.4941 44.6995 32.3411 45.1555 32.1534 45.5975C32.0917 45.7313 32.0248 45.8651 31.958 45.9938C31.8912 46.1224 31.8501 46.2048 31.7987 46.3077L31.7113 46.4775C31.5488 46.7961 31.3579 47.0993 31.1407 47.3833C30.9094 47.6767 30.7243 47.898 30.5495 48.1038C30.3748 48.3097 30.092 48.6185 29.8967 48.8038C29.7014 48.989 29.4238 49.2669 29.1873 49.4728L29.0537 49.586C29.0364 49.5954 29.0208 49.6076 29.0074 49.622L28.6938 49.8742C28.5962 49.9514 28.4985 50.0286 28.406 50.111L28.0102 50.4249C27.7326 50.6359 27.4961 50.8057 27.2751 50.9395L27.1774 51.0065C27.0798 51.0734 26.9718 51.1403 26.8741 51.2175C26.7248 51.3307 26.5823 51.4527 26.4475 51.5829C26.1043 51.8001 25.7854 52.0538 25.4965 52.3394C25.3177 52.6021 25.1678 52.8833 25.0493 53.1783C24.9175 53.4576 24.8125 53.7488 24.7357 54.048C24.6792 54.2899 24.6329 54.5318 24.5867 54.7685V54.8715C24.5455 55.0773 24.5095 55.278 24.4736 55.4839L24.4273 55.7515C24.3789 56.011 24.3031 56.2646 24.2011 56.5081C24.0394 56.8917 23.8323 57.2546 23.5843 57.5888C23.4578 57.7508 23.3222 57.9054 23.1782 58.052C23.0409 58.1902 22.8931 58.3176 22.7361 58.4328C22.479 58.6224 22.2093 58.7943 21.9291 58.9475C21.7646 59.035 21.5949 59.1122 21.415 59.1945L21.0757 59.3541L20.7108 59.5496C20.5668 59.6268 20.4178 59.7092 20.2636 59.7812L20.1248 59.8481L19.8626 59.9716C19.7289 60.0521 19.6033 60.1451 19.4874 60.2496L19.4257 60.2959L19.3691 60.3422L19.2663 60.4245C19.191 60.4936 19.1222 60.5694 19.0607 60.651C19.0405 60.6819 19.0233 60.7146 19.0093 60.7488C18.9884 60.7971 18.9712 60.847 18.9579 60.898C18.9346 61.01 18.9346 61.1257 18.9579 61.2377C18.9766 61.3531 19.0149 61.4645 19.071 61.5671ZM26.2162 58.9269C26.2596 58.8125 26.3221 58.7063 26.4012 58.613C26.4991 58.5131 26.6163 58.4343 26.7456 58.3814C26.7775 58.3651 26.8127 58.3563 26.8484 58.3556H26.8947C26.9326 58.3662 26.9666 58.3877 26.9924 58.4174H27.1055H27.198C27.2783 58.437 27.3548 58.4701 27.4242 58.5152C27.5081 58.5868 27.5766 58.6749 27.6252 58.7741C27.6738 58.8732 27.7016 58.9813 27.7069 59.0916C27.7428 59.23 27.7428 59.3752 27.7069 59.5136C27.6725 59.6231 27.6063 59.7199 27.5167 59.7915C27.4541 59.8421 27.3826 59.8805 27.3059 59.9047L27.1723 59.9305H27.0695C26.9993 59.9356 26.9289 59.9356 26.8587 59.9305C26.7341 59.9206 26.613 59.8837 26.504 59.8224C26.4454 59.7869 26.3918 59.7436 26.3447 59.6937C26.2574 59.6007 26.1986 59.4846 26.175 59.3592C26.1545 59.2139 26.1686 59.0657 26.2162 58.9269ZM25.2755 57.5425C25.3324 57.4435 25.4034 57.3534 25.4862 57.2749C25.5051 57.2561 25.5276 57.2414 25.5524 57.2317C25.5771 57.222 25.6036 57.2174 25.6302 57.2183H25.6764C25.7014 57.2182 25.7261 57.2232 25.749 57.2329C25.772 57.2426 25.7928 57.2569 25.8101 57.2749C25.8653 57.3246 25.91 57.3847 25.9418 57.4519C25.9736 57.519 25.9917 57.5918 25.9951 57.666C25.9756 57.762 25.9245 57.8487 25.8499 57.9122C25.7754 57.9756 25.6817 58.0122 25.5839 58.016C25.5328 58.0213 25.4812 58.0148 25.4331 57.997C25.385 57.9791 25.3416 57.9504 25.3063 57.913C25.2631 57.8623 25.2369 57.7992 25.2314 57.7327C25.2259 57.6663 25.2413 57.5997 25.2755 57.5425ZM23.6408 59.4879C23.6741 59.4047 23.7191 59.3267 23.7745 59.2563C23.8626 59.1568 23.9628 59.0686 24.0726 58.9938C24.1014 58.9745 24.1358 58.9654 24.1703 58.9681H24.2217C24.2517 58.9784 24.2795 58.9941 24.3039 59.0144C24.336 59.0067 24.3695 59.0067 24.4016 59.0144C24.4565 59.0181 24.5096 59.0359 24.5558 59.0659L24.6381 59.1276C24.7499 59.1696 24.8417 59.2523 24.8951 59.3592C24.9312 59.4344 24.942 59.5192 24.9259 59.6011V59.632C24.9329 59.6607 24.9329 59.6907 24.9259 59.7195C24.9262 59.7659 24.9156 59.8117 24.8951 59.8533C24.8768 59.8852 24.8523 59.9132 24.8231 59.9356C24.79 59.9676 24.7493 59.9906 24.7049 60.0025H24.6432C24.6035 60.0663 24.5488 60.1193 24.4838 60.1569C24.4288 60.1826 24.3696 60.1983 24.3091 60.2032C24.1887 60.2006 24.0714 60.165 23.9698 60.1003C23.9118 60.0655 23.8567 60.0259 23.8053 59.9819L23.7385 59.915L23.6768 59.8327C23.6408 59.77 23.6214 59.6991 23.6203 59.6268C23.6202 59.5797 23.6271 59.5329 23.6408 59.4879Z" fill="white"></path><path d="M36.7797 27.3578C36.7772 27.3218 36.7772 27.2857 36.7797 27.2497C36.7797 27.188 36.7437 27.1262 36.7231 27.0645C36.7231 27.1519 36.7488 27.2394 36.7643 27.3321L36.7797 27.3578Z" fill="white"></path><path d="M15.5033 42.5616C15.5053 42.5035 15.4959 42.4455 15.4756 42.391C15.4553 42.3365 15.4244 42.2866 15.3848 42.244C15.3452 42.2015 15.2975 42.1672 15.2447 42.1431C15.1918 42.119 15.1347 42.1055 15.0766 42.1036C14.9606 42.1021 14.8486 42.1459 14.7642 42.2256C14.6798 42.3053 14.6296 42.4147 14.6243 42.5307C14.6158 42.5921 14.6203 42.6545 14.6375 42.714C14.6546 42.7735 14.6841 42.8287 14.7239 42.8761C14.7637 42.9235 14.813 42.962 14.8686 42.9891C14.9242 43.0162 14.9849 43.0314 15.0467 43.0335C15.1085 43.0357 15.1701 43.0249 15.2275 43.0017C15.2848 42.9786 15.3367 42.9436 15.3797 42.8991C15.4228 42.8547 15.456 42.8016 15.4773 42.7435C15.4986 42.6854 15.5074 42.6234 15.5033 42.5616Z" fill="white"></path><path d="M17.359 43.1426C17.2847 43.1522 17.2165 43.1886 17.167 43.245C17.1176 43.3013 17.0903 43.3738 17.0903 43.4488C17.0903 43.5238 17.1176 43.5962 17.167 43.6526C17.2165 43.7089 17.2847 43.7453 17.359 43.755C17.4333 43.7453 17.5016 43.7089 17.551 43.6526C17.6004 43.5962 17.6277 43.5238 17.6277 43.4488C17.6277 43.3738 17.6004 43.3013 17.551 43.245C17.5016 43.1886 17.4333 43.1522 17.359 43.1426Z" fill="white"></path><path d="M15.8272 45.1663C15.8714 45.172 15.9163 45.1682 15.9589 45.1552C16.0015 45.1421 16.0409 45.1201 16.0744 45.0907C16.1078 45.0612 16.1346 45.025 16.153 44.9843C16.1713 44.9437 16.1808 44.8996 16.1808 44.8549C16.1808 44.8103 16.1713 44.7662 16.153 44.7256C16.1346 44.6849 16.1078 44.6487 16.0744 44.6192C16.0409 44.5898 16.0015 44.5678 15.9589 44.5547C15.9163 44.5417 15.8714 44.5379 15.8272 44.5436C15.7516 44.5533 15.6821 44.5903 15.6318 44.6476C15.5815 44.7049 15.5537 44.7786 15.5537 44.8549C15.5537 44.9313 15.5815 45.005 15.6318 45.0623C15.6821 45.1196 15.7516 45.1566 15.8272 45.1663Z" fill="white"></path><path d="M29.7886 27.884C29.8568 27.884 29.9222 27.8569 29.9704 27.8086C30.0186 27.7604 30.0457 27.6949 30.0457 27.6267C30.0457 27.5584 30.0186 27.493 29.9704 27.4447C29.9222 27.3965 29.8568 27.3694 29.7886 27.3694C29.7558 27.368 29.723 27.3732 29.6922 27.3847C29.6614 27.3961 29.6332 27.4136 29.6093 27.4362C29.5854 27.4587 29.5662 27.4858 29.5528 27.5159C29.5395 27.5459 29.5323 27.5784 29.5316 27.6112C29.5287 27.6465 29.5333 27.6819 29.5449 27.7153C29.5566 27.7487 29.5752 27.7792 29.5994 27.805C29.6237 27.8307 29.653 27.851 29.6856 27.8646C29.7182 27.8782 29.7533 27.8848 29.7886 27.884Z" fill="white"></path><path d="M31.0997 28.5472C31.1227 28.5478 31.1456 28.544 31.167 28.5358C31.1885 28.5277 31.2081 28.5153 31.2248 28.4996C31.2416 28.4838 31.255 28.4649 31.2644 28.4439C31.2738 28.4229 31.279 28.4003 31.2797 28.3773C31.2807 28.3427 31.2714 28.3086 31.253 28.2793C31.2347 28.25 31.208 28.2268 31.1765 28.2126C31.145 28.1984 31.11 28.1939 31.0759 28.1997C31.0418 28.2055 31.0102 28.2212 30.9851 28.2449C30.9599 28.2687 30.9424 28.2993 30.9346 28.3331C30.9269 28.3668 30.9293 28.402 30.9416 28.4344C30.9538 28.4667 30.9754 28.4947 31.0036 28.5148C31.0317 28.5349 31.0652 28.5461 31.0997 28.5472Z" fill="white"></path><path d="M31.1252 27.2246C31.1552 27.2246 31.1839 27.2127 31.2052 27.1915C31.2264 27.1702 31.2383 27.1414 31.2383 27.1114C31.2383 27.0814 31.2264 27.0526 31.2052 27.0313C31.1839 27.0101 31.1552 26.9982 31.1252 26.9982C31.1103 26.9975 31.0955 26.9997 31.0815 27.0048C31.0675 27.0098 31.0547 27.0176 31.0437 27.0277C31.0327 27.0377 31.0238 27.0498 31.0175 27.0633C31.0112 27.0768 31.0076 27.0914 31.007 27.1062C31.0062 27.122 31.0088 27.1377 31.0145 27.1524C31.0201 27.1671 31.0288 27.1804 31.04 27.1916C31.0511 27.2027 31.0644 27.2114 31.0791 27.2171C31.0938 27.2228 31.1095 27.2253 31.1252 27.2246Z" fill="white"></path><path d="M5.62367 29.3143C5.69507 29.3157 5.76416 29.289 5.81607 29.2399C5.86799 29.1908 5.89858 29.1233 5.90126 29.0519C5.90223 28.9992 5.88764 28.9474 5.85932 28.9029C5.83101 28.8585 5.79022 28.8235 5.74207 28.8021C5.69393 28.7808 5.64057 28.7742 5.5887 28.7832C5.53682 28.7921 5.48873 28.8162 5.45047 28.8524C5.4122 28.8885 5.38545 28.9352 5.37358 28.9866C5.36171 29.0379 5.36525 29.0916 5.38375 29.141C5.40225 29.1903 5.43488 29.2331 5.47757 29.2639C5.52025 29.2948 5.57108 29.3123 5.62367 29.3143Z" fill="white"></path><path d="M7.19672 29.6954C7.21968 29.6996 7.24328 29.6987 7.26585 29.6927C7.28842 29.6868 7.30941 29.6759 7.32733 29.6609C7.34525 29.646 7.35967 29.6272 7.36956 29.6061C7.37945 29.5849 7.38458 29.5618 7.38458 29.5385C7.38458 29.5151 7.37945 29.492 7.36956 29.4708C7.35967 29.4497 7.34525 29.4309 7.32733 29.416C7.30941 29.401 7.28842 29.3901 7.26585 29.3842C7.24328 29.3782 7.21968 29.3773 7.19672 29.3815C7.15517 29.3826 7.11547 29.3989 7.08514 29.4274C7.05482 29.4558 7.03599 29.4944 7.03223 29.5359C7.03356 29.5787 7.05148 29.6192 7.08218 29.649C7.11289 29.6788 7.15397 29.6954 7.19672 29.6954Z" fill="white"></path><path d="M26.0569 42.072C26.1168 42.074 26.176 42.0581 26.2269 42.0265C26.2779 41.9948 26.3183 41.9487 26.3431 41.894C26.3679 41.8394 26.3759 41.7786 26.3662 41.7193C26.3565 41.6601 26.3295 41.605 26.2886 41.5612C26.2476 41.5173 26.1946 41.4866 26.1362 41.4729C26.0778 41.4592 26.0167 41.4631 25.9605 41.4841C25.9044 41.5052 25.8557 41.5425 25.8207 41.5912C25.7857 41.64 25.7659 41.698 25.7639 41.758C25.7625 41.7979 25.769 41.8377 25.783 41.875C25.7969 41.9124 25.8181 41.9466 25.8454 41.9758C25.8726 42.005 25.9053 42.0285 25.9415 42.045C25.9778 42.0615 26.017 42.0706 26.0569 42.072Z" fill="white"></path><path d="M25.5682 44.3476C25.5966 44.3483 25.6248 44.3434 25.6513 44.3331C25.6777 44.3229 25.7019 44.3076 25.7224 44.288C25.743 44.2684 25.7594 44.2449 25.7709 44.2189C25.7824 44.193 25.7886 44.165 25.7893 44.1366C25.7907 44.1082 25.7864 44.0798 25.7768 44.0531C25.7673 44.0263 25.7525 44.0017 25.7334 43.9807C25.7143 43.9596 25.6912 43.9426 25.6655 43.9305C25.6399 43.9184 25.612 43.9115 25.5837 43.9102C25.5263 43.91 25.4709 43.9318 25.4289 43.9709C25.3869 44.0101 25.3614 44.0638 25.3575 44.1212C25.3561 44.179 25.3774 44.2351 25.4167 44.2774C25.4561 44.3197 25.5105 44.3449 25.5682 44.3476Z" fill="white"></path><path d="M27.6553 44.1048C27.6439 44.1446 27.642 44.1866 27.6495 44.2273C27.6571 44.268 27.674 44.3064 27.6989 44.3395C27.7238 44.3725 27.7561 44.3994 27.7931 44.4178C27.8301 44.4363 27.871 44.4459 27.9123 44.4459C27.9537 44.4459 27.9945 44.4363 28.0315 44.4178C28.0686 44.3994 28.1008 44.3725 28.1257 44.3395C28.1506 44.3064 28.1675 44.268 28.1751 44.2273C28.1827 44.1866 28.1807 44.1446 28.1693 44.1048C28.1807 44.065 28.1827 44.0231 28.1751 43.9823C28.1675 43.9416 28.1506 43.9032 28.1257 43.8701C28.1008 43.8371 28.0686 43.8102 28.0315 43.7918C27.9945 43.7733 27.9537 43.7637 27.9123 43.7637C27.871 43.7637 27.8301 43.7733 27.7931 43.7918C27.7561 43.8102 27.7238 43.8371 27.6989 43.8701C27.674 43.9032 27.6571 43.9416 27.6495 43.9823C27.642 44.0231 27.6439 44.065 27.6553 44.1048Z" fill="white"></path><path d="M15.8683 53.8848C15.8002 53.8848 15.7348 53.9119 15.6866 53.9601C15.6384 54.0084 15.6113 54.0738 15.6113 54.1421C15.6113 54.2103 15.6384 54.2758 15.6866 54.324C15.7348 54.3723 15.8002 54.3994 15.8683 54.3994C15.9365 54.3994 16.0019 54.3723 16.0501 54.324C16.0983 54.2758 16.1254 54.2103 16.1254 54.1421C16.1254 54.0738 16.0983 54.0084 16.0501 53.9601C16.0019 53.9119 15.9365 53.8848 15.8683 53.8848Z" fill="white"></path><path d="M18.2124 54.2501C18.1908 54.2494 18.1693 54.253 18.1491 54.2606C18.1289 54.2683 18.1104 54.2798 18.0946 54.2947C18.0788 54.3095 18.0662 54.3273 18.0573 54.347C18.0484 54.3667 18.0435 54.388 18.0428 54.4096C18.0414 54.4317 18.0445 54.4538 18.0518 54.4746C18.0591 54.4955 18.0706 54.5146 18.0854 54.531C18.1003 54.5473 18.1183 54.5604 18.1383 54.5697C18.1584 54.5789 18.1801 54.584 18.2022 54.5846C18.2463 54.5846 18.2887 54.5674 18.3203 54.5367C18.352 54.506 18.3705 54.4641 18.3718 54.4199C18.3725 54.3983 18.3689 54.3767 18.3613 54.3565C18.3536 54.3362 18.3421 54.3177 18.3273 54.3019C18.3125 54.2862 18.2947 54.2735 18.275 54.2646C18.2553 54.2557 18.234 54.2507 18.2124 54.2501Z" fill="white"></path><path d="M16.9788 53.4512C16.9559 53.4506 16.933 53.4544 16.9115 53.4626C16.8901 53.4707 16.8704 53.4831 16.8537 53.4988C16.837 53.5146 16.8236 53.5335 16.8142 53.5545C16.8047 53.5755 16.7996 53.5981 16.7989 53.6211C16.7979 53.6557 16.8072 53.6898 16.8255 53.7191C16.8439 53.7484 16.8705 53.7716 16.902 53.7858C16.9336 53.8 16.9686 53.8044 17.0027 53.7987C17.0367 53.7929 17.0684 53.7772 17.0935 53.7535C17.1186 53.7297 17.1362 53.6991 17.1439 53.6653C17.1517 53.6316 17.1493 53.5963 17.137 53.564C17.1247 53.5317 17.1031 53.5037 17.075 53.4836C17.0468 53.4635 17.0134 53.4523 16.9788 53.4512Z" fill="white"></path><path d="M20.6079 48.6283C20.6079 48.688 20.6308 48.7454 20.672 48.7886C20.7132 48.8317 20.7694 48.8573 20.8289 48.8599C20.8881 48.8613 20.9454 48.8395 20.9886 48.7991C21.0319 48.7587 21.0576 48.7029 21.0603 48.6438C21.0617 48.5846 21.0399 48.5272 20.9995 48.4839C20.9591 48.4406 20.9035 48.4149 20.8444 48.4122C20.7847 48.4107 20.7268 48.4324 20.6828 48.4727C20.6387 48.513 20.6119 48.5687 20.6079 48.6283Z" fill="white"></path><path d="M15.2363 29.9018C15.2854 29.9018 15.3325 29.8823 15.3672 29.8475C15.4019 29.8128 15.4214 29.7657 15.4214 29.7165C15.4214 29.6674 15.4019 29.6203 15.3672 29.5855C15.3325 29.5508 15.2854 29.5312 15.2363 29.5313C15.1872 29.5312 15.1402 29.5508 15.1055 29.5855C15.0708 29.6203 15.0513 29.6674 15.0513 29.7165C15.0513 29.7657 15.0708 29.8128 15.1055 29.8475C15.1402 29.8823 15.1872 29.9018 15.2363 29.9018Z" fill="white"></path><path d="M5.11459 41.4863C5.05855 41.4862 5.00454 41.5074 4.9635 41.5456C4.92247 41.5838 4.89746 41.6362 4.89355 41.6922C4.90148 41.7431 4.92733 41.7896 4.96645 41.8231C5.00557 41.8566 5.05538 41.8751 5.10688 41.8751C5.15839 41.8751 5.20819 41.8566 5.24731 41.8231C5.28643 41.7896 5.31229 41.7431 5.32021 41.6922C5.3189 41.638 5.29682 41.5864 5.25854 41.5481C5.22026 41.5097 5.16872 41.4876 5.11459 41.4863Z" fill="white"></path><path d="M6.68243 41.7902C6.69728 41.7909 6.71213 41.7886 6.72611 41.7836C6.7401 41.7785 6.75295 41.7708 6.76393 41.7607C6.77491 41.7507 6.78381 41.7386 6.79011 41.7251C6.79641 41.7116 6.8 41.697 6.80066 41.6821C6.80206 41.6668 6.80035 41.6514 6.79562 41.6368C6.79089 41.6222 6.78325 41.6087 6.77315 41.5972C6.76305 41.5856 6.75072 41.5762 6.73689 41.5696C6.72306 41.563 6.70803 41.5592 6.69271 41.5586C6.66169 41.5585 6.63178 41.5701 6.60891 41.5911C6.58605 41.612 6.57192 41.6409 6.56934 41.6718C6.56931 41.7023 6.58106 41.7317 6.60213 41.7538C6.6232 41.7758 6.65197 41.7889 6.68243 41.7902Z" fill="white"></path><path d="M5.46937 40.6777C5.46507 40.7021 5.46617 40.7272 5.47258 40.7512C5.479 40.7751 5.49057 40.7974 5.5065 40.8164C5.52242 40.8353 5.5423 40.8506 5.56475 40.8611C5.5872 40.8716 5.61166 40.877 5.63643 40.877C5.6612 40.877 5.68566 40.8716 5.70811 40.8611C5.73056 40.8506 5.75044 40.8353 5.76637 40.8164C5.78229 40.7974 5.79386 40.7751 5.80028 40.7512C5.80669 40.7272 5.80779 40.7021 5.8035 40.6777C5.80418 40.6561 5.8006 40.6345 5.79296 40.6143C5.78532 40.5941 5.77377 40.5755 5.75897 40.5597C5.74418 40.544 5.72642 40.5313 5.70671 40.5224C5.68701 40.5135 5.66575 40.5086 5.64414 40.5079C5.62144 40.5072 5.59882 40.5111 5.57765 40.5193C5.55647 40.5275 5.53716 40.5399 5.52085 40.5558C5.50455 40.5716 5.4916 40.5906 5.48275 40.6115C5.47391 40.6325 5.46936 40.655 5.46937 40.6777Z" fill="white"></path><path d="M8.20921 35.1758C8.13458 35.1744 8.06231 35.202 8.00764 35.2529C7.95298 35.3038 7.92019 35.374 7.91621 35.4486C7.91483 35.4858 7.92079 35.5229 7.93374 35.5577C7.9467 35.5926 7.96639 35.6246 7.99169 35.6518C8.01699 35.6791 8.04741 35.7011 8.08121 35.7165C8.115 35.732 8.15152 35.7406 8.18865 35.742C8.26328 35.7434 8.33556 35.7158 8.39022 35.6649C8.44489 35.614 8.47767 35.5438 8.48165 35.4692C8.48303 35.432 8.47707 35.3949 8.46412 35.3601C8.45117 35.3252 8.43148 35.2932 8.40617 35.266C8.38087 35.2387 8.35045 35.2167 8.31665 35.2013C8.28286 35.1858 8.24635 35.1772 8.20921 35.1758Z" fill="white"></path><path d="M29.4185 36.4532C29.3768 36.4522 29.3358 36.4636 29.3006 36.4859C29.2654 36.5082 29.2376 36.5405 29.2207 36.5787C29.2038 36.6168 29.1986 36.6591 29.2057 36.7003C29.2129 36.7414 29.232 36.7794 29.2608 36.8097C29.2895 36.8399 29.3266 36.8609 29.3672 36.87C29.4079 36.8792 29.4504 36.876 29.4892 36.861C29.5281 36.846 29.5617 36.8198 29.5857 36.7856C29.6097 36.7515 29.6231 36.7111 29.6241 36.6693C29.6229 36.6141 29.6012 36.5613 29.5632 36.5213C29.5251 36.4813 29.4735 36.457 29.4185 36.4532Z" fill="white"></path><path d="M27.7327 34.9758C27.748 34.9765 27.7633 34.9741 27.7776 34.9688C27.7919 34.9634 27.805 34.9551 27.816 34.9446C27.8271 34.934 27.8359 34.9213 27.8419 34.9072C27.8479 34.8931 27.851 34.8779 27.8509 34.8626C27.8516 34.8478 27.8494 34.8329 27.8443 34.8189C27.8393 34.8049 27.8315 34.792 27.8215 34.781C27.8115 34.77 27.7994 34.7611 27.7859 34.7548C27.7724 34.7485 27.7579 34.7449 27.743 34.7443C27.7275 34.7436 27.712 34.746 27.6973 34.7513C27.6827 34.7566 27.6693 34.7647 27.6579 34.7753C27.6464 34.7858 27.6371 34.7984 27.6306 34.8126C27.624 34.8267 27.6203 34.8419 27.6196 34.8575C27.6208 34.8876 27.6329 34.9163 27.6538 34.9381C27.6746 34.9599 27.7027 34.9734 27.7327 34.9758Z" fill="white"></path><path d="M29.8555 35.2175C29.8549 35.2398 29.8586 35.262 29.8665 35.2829C29.8744 35.3038 29.8863 35.3229 29.9016 35.3391C29.9169 35.3554 29.9352 35.3684 29.9555 35.3776C29.9758 35.3868 29.9978 35.3918 30.02 35.3925C30.0647 35.3926 30.1076 35.3755 30.1401 35.3449C30.1726 35.3143 30.1922 35.2724 30.1948 35.2278C30.1955 35.2055 30.1918 35.1833 30.1839 35.1624C30.176 35.1415 30.1641 35.1224 30.1488 35.1062C30.1335 35.0899 30.1152 35.0768 30.0949 35.0677C30.0745 35.0585 30.0526 35.0535 30.0303 35.0528C30.008 35.0521 29.9858 35.0558 29.965 35.0638C29.9442 35.0717 29.9251 35.0836 29.9088 35.0989C29.8926 35.1142 29.8796 35.1325 29.8704 35.1529C29.8613 35.1732 29.8562 35.1952 29.8555 35.2175Z" fill="white"></path><path d="M20.5514 39.0421C20.5993 39.0442 20.6468 39.0319 20.6877 39.0068C20.7287 38.9817 20.7612 38.945 20.7812 38.9013C20.8012 38.8576 20.8078 38.809 20.8 38.7616C20.7923 38.7141 20.7707 38.6701 20.7378 38.635C20.705 38.6 20.6625 38.5755 20.6157 38.5648C20.569 38.554 20.5201 38.5574 20.4752 38.5746C20.4304 38.5917 20.3917 38.6219 20.3641 38.6612C20.3364 38.7004 20.3211 38.7471 20.3201 38.7951C20.3187 38.8266 20.3236 38.8581 20.3345 38.8877C20.3455 38.9173 20.3622 38.9444 20.3838 38.9674C20.4053 38.9904 20.4313 39.0089 20.46 39.0217C20.4888 39.0345 20.5199 39.0415 20.5514 39.0421Z" fill="white"></path><path d="M22.1811 38.3771C22.222 38.3771 22.2612 38.3609 22.2901 38.3319C22.319 38.303 22.3353 38.2637 22.3353 38.2228C22.3353 38.1818 22.319 38.1425 22.2901 38.1136C22.2612 38.0846 22.222 38.0684 22.1811 38.0684C22.1402 38.0684 22.1009 38.0846 22.072 38.1136C22.0431 38.1425 22.0269 38.1818 22.0269 38.2228C22.0269 38.2637 22.0431 38.303 22.072 38.3319C22.1009 38.3609 22.1402 38.3771 22.1811 38.3771Z" fill="white"></path><path d="M21.2248 37.5017C21.2513 37.4961 21.2751 37.4815 21.2921 37.4605C21.3092 37.4394 21.3185 37.4131 21.3185 37.386C21.3185 37.3588 21.3092 37.3325 21.2921 37.3114C21.2751 37.2903 21.2513 37.2758 21.2248 37.2702C21.2076 37.2665 21.1897 37.2667 21.1726 37.2709C21.1555 37.275 21.1395 37.2829 21.1258 37.294C21.1122 37.3051 21.1011 37.3191 21.0935 37.335C21.086 37.3509 21.082 37.3683 21.082 37.386C21.082 37.4036 21.086 37.421 21.0935 37.4369C21.1011 37.4528 21.1122 37.4668 21.1258 37.4779C21.1395 37.489 21.1555 37.4969 21.1726 37.501C21.1897 37.5052 21.2076 37.5054 21.2248 37.5017Z" fill="white"></path><path d="M14.9432 34.7126C14.9432 34.6808 14.937 34.6494 14.9248 34.62C14.9127 34.5907 14.8949 34.564 14.8725 34.5416C14.85 34.5191 14.8234 34.5013 14.7941 34.4891C14.7648 34.477 14.7333 34.4707 14.7016 34.4707C14.6699 34.4707 14.6385 34.477 14.6092 34.4891C14.5799 34.5013 14.5532 34.5191 14.5308 34.5416C14.5083 34.564 14.4906 34.5907 14.4784 34.62C14.4663 34.6494 14.46 34.6808 14.46 34.7126C14.4586 34.7759 14.4821 34.8372 14.5253 34.8834C14.5686 34.9296 14.6282 34.9569 14.6913 34.9596C14.7242 34.9603 14.7568 34.9544 14.7873 34.9423C14.8179 34.9302 14.8457 34.9121 14.8691 34.8891C14.8926 34.8661 14.9112 34.8386 14.924 34.8083C14.9367 34.778 14.9432 34.7455 14.9432 34.7126Z" fill="white"></path><path d="M6.66714 48.5527C6.61245 48.5526 6.55975 48.5732 6.51968 48.6105C6.4796 48.6477 6.45514 48.6988 6.45124 48.7534C6.45055 48.7805 6.4552 48.8074 6.46491 48.8326C6.47461 48.8579 6.48919 48.8809 6.50781 48.9005C6.52643 48.9201 6.54872 48.9359 6.57341 48.9468C6.5981 48.9578 6.62471 48.9638 6.65171 48.9644C6.67847 48.9658 6.70522 48.9618 6.73041 48.9527C6.75559 48.9435 6.77868 48.9294 6.79833 48.9112C6.81798 48.893 6.83378 48.871 6.84479 48.8465C6.85581 48.8221 6.86182 48.7957 6.86247 48.7689C6.86386 48.7418 6.8599 48.7148 6.85083 48.6893C6.84175 48.6638 6.82774 48.6403 6.8096 48.6202C6.79145 48.6001 6.76953 48.5839 6.74508 48.5723C6.72064 48.5607 6.69415 48.5541 6.66714 48.5527Z" fill="white"></path><path d="M8.00861 47.8985C7.95902 47.8971 7.91084 47.9152 7.87435 47.9488C7.83785 47.9825 7.81594 48.029 7.81328 48.0786C7.81189 48.1034 7.81549 48.1282 7.82384 48.1515C7.8322 48.1749 7.84515 48.1963 7.86193 48.2145C7.8787 48.2328 7.89897 48.2474 7.92151 48.2577C7.94406 48.2679 7.96844 48.2736 7.99319 48.2742C8.04278 48.2756 8.09097 48.2576 8.12746 48.2239C8.16395 48.1903 8.18587 48.1437 8.18853 48.0941C8.18991 48.0693 8.18632 48.0445 8.17796 48.0212C8.16961 47.9979 8.15666 47.9764 8.13988 47.9582C8.1231 47.94 8.10284 47.9253 8.08029 47.915C8.05774 47.9048 8.03337 47.8992 8.00861 47.8985Z" fill="white"></path><path d="M6.65675 47.1942C6.65814 47.1755 6.65576 47.1568 6.64973 47.139C6.6437 47.1213 6.63416 47.105 6.62168 47.091C6.6092 47.0771 6.59403 47.0658 6.57709 47.0579C6.56015 47.05 6.54178 47.0456 6.52309 47.0449C6.48528 47.0448 6.44884 47.0591 6.42116 47.0849C6.39348 47.1107 6.37663 47.1461 6.37402 47.1839C6.37393 47.2218 6.38822 47.2582 6.41399 47.2859C6.43976 47.3137 6.47509 47.3305 6.51281 47.3331C6.55011 47.3331 6.58596 47.3187 6.61281 47.2928C6.63966 47.2668 6.65541 47.2315 6.65675 47.1942Z" fill="white"></path><path d="M22.1503 54.0067C22.1488 54.0272 22.1517 54.0477 22.1585 54.067C22.1654 54.0863 22.1761 54.104 22.1901 54.119C22.2041 54.134 22.221 54.1459 22.2398 54.154C22.2586 54.1622 22.2789 54.1663 22.2993 54.1663C22.3395 54.1652 22.3779 54.1494 22.4073 54.1219C22.4366 54.0944 22.4549 54.0571 22.4587 54.0171C22.4588 53.9765 22.4434 53.9374 22.4157 53.9077C22.388 53.8781 22.3501 53.8601 22.3096 53.8575C22.2894 53.8568 22.2692 53.8601 22.2502 53.8673C22.2312 53.8744 22.2138 53.8852 22.199 53.8991C22.1842 53.9129 22.1723 53.9296 22.1639 53.948C22.1556 53.9665 22.1509 53.9865 22.1503 54.0067Z" fill="white"></path><path d="M23.7075 53.1367C23.7576 53.1368 23.8058 53.1176 23.8421 53.0831C23.8785 53.0486 23.9002 53.0015 23.9029 52.9514C23.9029 52.9013 23.8838 52.8531 23.8493 52.8167C23.8149 52.7803 23.7678 52.7585 23.7178 52.7559C23.6677 52.7558 23.6195 52.775 23.5832 52.8094C23.5468 52.8439 23.5251 52.8911 23.5225 52.9411C23.5224 52.9913 23.5416 53.0395 23.576 53.0759C23.6104 53.1123 23.6575 53.1341 23.7075 53.1367Z" fill="white"></path><path d="M21.7491 52.4587C21.7484 52.474 21.7509 52.4892 21.7562 52.5036C21.7616 52.5179 21.7698 52.531 21.7804 52.5421C21.791 52.5531 21.8037 52.5619 21.8177 52.5679C21.8318 52.5739 21.8469 52.577 21.8622 52.577C21.8919 52.5771 21.9205 52.5661 21.9424 52.5461C21.9643 52.526 21.9779 52.4985 21.9805 52.4689C21.9813 52.4514 21.9783 52.4339 21.9718 52.4176C21.9653 52.4012 21.9554 52.3865 21.9427 52.3743C21.9301 52.3621 21.915 52.3528 21.8984 52.3469C21.8819 52.3411 21.8643 52.3388 21.8468 52.3403C21.8191 52.3452 21.7941 52.3598 21.7762 52.3815C21.7583 52.4032 21.7487 52.4305 21.7491 52.4587Z" fill="white"></path><path d="M12.9384 60.3165C12.9026 60.3158 12.8671 60.3222 12.8338 60.3352C12.8005 60.3483 12.77 60.3678 12.7443 60.3927C12.7185 60.4175 12.6979 60.4472 12.6835 60.4801C12.6692 60.5129 12.6615 60.5482 12.6608 60.5841C12.6595 60.6199 12.6652 60.6556 12.6776 60.6893C12.69 60.7229 12.709 60.7537 12.7333 60.78C12.7577 60.8063 12.7869 60.8275 12.8195 60.8425C12.852 60.8574 12.8872 60.8658 12.923 60.8671C12.9958 60.8685 13.0662 60.8413 13.119 60.7912C13.1719 60.7412 13.203 60.6723 13.2057 60.5995C13.2071 60.5267 13.1799 60.4562 13.1299 60.4032C13.0799 60.3503 13.0111 60.3191 12.9384 60.3165Z" fill="white"></path><path d="M14.1875 60.6212C14.1499 60.6202 14.1128 60.6303 14.081 60.6504C14.0492 60.6705 14.024 60.6996 14.0087 60.7339C13.9934 60.7683 13.9886 60.8065 13.9949 60.8436C14.0013 60.8807 14.0184 60.9151 14.0443 60.9425C14.0702 60.9698 14.1036 60.9889 14.1402 60.9972C14.1769 61.0056 14.2152 61.0028 14.2504 60.9894C14.2855 60.9759 14.3158 60.9523 14.3376 60.9216C14.3593 60.8909 14.3715 60.8544 14.3725 60.8167C14.3732 60.7917 14.3689 60.7668 14.36 60.7435C14.3511 60.7201 14.3376 60.6987 14.3205 60.6806C14.3033 60.6624 14.2827 60.6478 14.2599 60.6376C14.237 60.6274 14.2124 60.6218 14.1875 60.6212Z" fill="white"></path><path d="M13.6219 59.5801C13.5909 59.58 13.561 59.5916 13.5381 59.6125C13.5153 59.6335 13.5011 59.6624 13.4985 59.6933C13.4985 59.7238 13.5103 59.7532 13.5313 59.7752C13.5524 59.7973 13.5812 59.8103 13.6116 59.8117C13.6265 59.8124 13.6413 59.8101 13.6553 59.805C13.6693 59.8 13.6821 59.7922 13.6931 59.7822C13.7041 59.7721 13.713 59.76 13.7193 59.7465C13.7256 59.7331 13.7292 59.7185 13.7299 59.7036C13.7313 59.6883 13.7295 59.6729 13.7248 59.6583C13.7201 59.6437 13.7124 59.6302 13.7024 59.6186C13.6923 59.6071 13.6799 59.5977 13.6661 59.5911C13.6523 59.5845 13.6372 59.5807 13.6219 59.5801Z" fill="white"></path><path d="M7.20159 53.3283C7.14957 53.3263 7.09812 53.3398 7.0538 53.3671C7.00949 53.3945 6.97431 53.4344 6.95274 53.4819C6.93118 53.5293 6.92421 53.5821 6.93273 53.6335C6.94125 53.6849 6.96486 53.7327 7.00056 53.7706C7.03626 53.8085 7.08244 53.835 7.1332 53.8465C7.18396 53.8581 7.23701 53.8542 7.28559 53.8355C7.33417 53.8168 7.37608 53.784 7.40598 53.7413C7.43588 53.6987 7.45241 53.648 7.45347 53.5959C7.45487 53.5272 7.42926 53.4606 7.38216 53.4106C7.33506 53.3605 7.27022 53.331 7.20159 53.3283Z" fill="white"></path><path d="M28.9046 31.98C29.0286 31.984 29.1509 31.9512 29.2562 31.8856C29.3615 31.82 29.445 31.7246 29.4961 31.6115C29.5473 31.4984 29.5638 31.3726 29.5436 31.2502C29.5234 31.1277 29.4673 31.0139 29.3826 30.9233C29.2978 30.8327 29.1881 30.7693 29.0674 30.741C28.9466 30.7128 28.8202 30.7211 28.7041 30.7648C28.588 30.8085 28.4875 30.8856 28.4152 30.9865C28.343 31.0874 28.3022 31.2075 28.2981 31.3316C28.2939 31.4977 28.3551 31.6589 28.4686 31.7802C28.5821 31.9016 28.7387 31.9733 28.9046 31.98Z" fill="white"></path><path d="M21.4923 44.1973C21.5921 44.1969 21.6897 44.1675 21.7731 44.1126C21.8565 44.0576 21.9221 43.9796 21.962 43.8879C22.0018 43.7962 22.0141 43.6949 21.9974 43.5964C21.9807 43.4978 21.9356 43.4063 21.8678 43.333C21.8 43.2596 21.7122 43.2076 21.6154 43.1834C21.5185 43.1591 21.4167 43.1636 21.3224 43.1963C21.228 43.229 21.1452 43.2885 21.0841 43.3676C21.023 43.4466 20.9862 43.5418 20.9782 43.6414C20.9725 43.7124 20.9816 43.7838 21.0049 43.8511C21.0281 43.9183 21.0651 43.98 21.1134 44.0323C21.1617 44.0845 21.2203 44.1261 21.2856 44.1545C21.3508 44.1829 21.4211 44.1975 21.4923 44.1973Z" fill="white"></path><path d="M15.8837 49.6582C15.7834 49.6584 15.6853 49.6879 15.6016 49.7433C15.5179 49.7986 15.4521 49.8772 15.4125 49.9694C15.3728 50.0617 15.361 50.1635 15.3785 50.2624C15.3959 50.3613 15.4419 50.453 15.5107 50.526C15.5796 50.5991 15.6683 50.6504 15.7659 50.6736C15.8635 50.6968 15.9657 50.6909 16.06 50.6566C16.1543 50.6224 16.2365 50.5612 16.2965 50.4808C16.3566 50.4003 16.3917 50.304 16.3978 50.2037C16.402 50.1336 16.3918 50.0633 16.3679 49.9973C16.3439 49.9312 16.3067 49.8708 16.2586 49.8197C16.2104 49.7686 16.1523 49.7279 16.0878 49.7001C16.0234 49.6723 15.9539 49.6581 15.8837 49.6582Z" fill="white"></path><path d="M20.1967 57.7584C20.3185 57.7614 20.4383 57.7282 20.5413 57.6631C20.6442 57.598 20.7256 57.5039 20.7752 57.3925C20.8248 57.2812 20.8403 57.1576 20.8199 57.0375C20.7995 56.9173 20.744 56.8059 20.6605 56.7172C20.5769 56.6285 20.469 56.5666 20.3504 56.5392C20.2317 56.5118 20.1076 56.5202 19.9937 56.5633C19.8798 56.6064 19.7812 56.6823 19.7103 56.7814C19.6394 56.8805 19.5994 56.9984 19.5953 57.1203C19.5925 57.2842 19.6538 57.4427 19.7662 57.562C19.8786 57.6812 20.0331 57.7517 20.1967 57.7584Z" fill="white"></path><path d="M26.0978 48.702C26.095 48.8163 26.137 48.9272 26.2148 49.0109C26.2926 49.0946 26.4001 49.1444 26.5142 49.1498C26.6287 49.1498 26.7385 49.1042 26.8195 49.0231C26.9005 48.9421 26.946 48.8321 26.946 48.7175C26.946 48.6028 26.9005 48.4928 26.8195 48.4118C26.7385 48.3307 26.6287 48.2852 26.5142 48.2852C26.4054 48.2902 26.3023 48.3357 26.2253 48.4128C26.1483 48.4899 26.1028 48.5931 26.0978 48.702Z" fill="white"></path><path d="M6.09652 32.5988C6.09858 32.5461 6.09025 32.4935 6.07198 32.444C6.05372 32.3945 6.02589 32.3491 5.99008 32.3103C5.95427 32.2716 5.91119 32.2404 5.8633 32.2183C5.81541 32.1963 5.76366 32.1839 5.71099 32.1819C5.63177 32.1789 5.55344 32.1995 5.48591 32.2411C5.41837 32.2826 5.36466 32.3433 5.33155 32.4154C5.29845 32.4876 5.28744 32.5679 5.29992 32.6463C5.3124 32.7246 5.34781 32.7976 5.40167 32.8558C5.45553 32.914 5.52543 32.955 5.60252 32.9735C5.67962 32.9919 5.76046 32.9871 5.83482 32.9596C5.90919 32.9321 5.97374 32.8832 6.02032 32.8189C6.0669 32.7547 6.09342 32.6781 6.09652 32.5988Z" fill="white"></path><path d="M17.3181 37.0916C17.3205 37.024 17.3095 36.9566 17.2859 36.8932C17.2622 36.8299 17.2263 36.7718 17.1803 36.7224C17.1342 36.6729 17.0789 36.633 17.0174 36.605C16.956 36.5769 16.8896 36.5613 16.8221 36.5589C16.6857 36.5541 16.5531 36.6038 16.4533 36.6969C16.3535 36.79 16.2948 36.9191 16.29 37.0555C16.29 37.192 16.3442 37.3229 16.4406 37.4195C16.537 37.516 16.6677 37.5702 16.8041 37.5702C16.9344 37.5705 17.06 37.5213 17.1554 37.4324C17.2508 37.3436 17.309 37.2217 17.3181 37.0916Z" fill="white"></path><path d="M6.60523 45.3558C6.60926 45.2407 6.57904 45.1269 6.5184 45.029C6.45776 44.9311 6.36943 44.8534 6.26462 44.8058C6.15982 44.7582 6.04326 44.7429 5.92973 44.7617C5.8162 44.7806 5.71081 44.8328 5.62695 44.9116C5.54309 44.9905 5.48452 45.0926 5.45868 45.2049C5.43284 45.3172 5.44089 45.4346 5.48182 45.5423C5.52274 45.65 5.59469 45.743 5.68854 45.8097C5.78238 45.8764 5.8939 45.9137 6.00894 45.9168C6.16214 45.921 6.31079 45.8643 6.42248 45.7593C6.53417 45.6542 6.59986 45.5092 6.60523 45.3558Z" fill="white"></path><path d="M14.7375 26.607C14.741 26.5253 14.728 26.4437 14.6995 26.3671C14.6709 26.2905 14.6273 26.2204 14.5713 26.1609C14.5152 26.1014 14.4478 26.0538 14.3731 26.0208C14.2984 25.9878 14.2178 25.9701 14.1361 25.9688C14.0158 25.9669 13.8976 26.0005 13.7963 26.0655C13.695 26.1305 13.6151 26.224 13.5666 26.3342C13.5181 26.4444 13.5031 26.5665 13.5235 26.6852C13.544 26.8039 13.5989 26.9139 13.6814 27.0015C13.764 27.0891 13.8705 27.1504 13.9877 27.1777C14.1049 27.205 14.2275 27.1971 14.3402 27.155C14.4529 27.1129 14.5507 27.0384 14.6214 26.941C14.6921 26.8435 14.7325 26.7273 14.7375 26.607Z" fill="white"></path><path d="M31.3978 42.2988C31.5342 42.2988 31.6649 42.2446 31.7613 42.1481C31.8577 42.0516 31.9119 41.9207 31.9119 41.7842C31.9119 41.6477 31.8577 41.5168 31.7613 41.4203C31.6649 41.3238 31.5342 41.2695 31.3978 41.2695C31.2615 41.2695 31.1307 41.3238 31.0343 41.4203C30.9379 41.5168 30.8838 41.6477 30.8838 41.7842C30.8838 41.9207 30.9379 42.0516 31.0343 42.1481C31.1307 42.2446 31.2615 42.2988 31.3978 42.2988Z" fill="white"></path><path d="M32.7136 27.8743V27.9052C32.765 27.962 32.8218 28.0137 32.8832 28.0595C32.9534 28.1096 33.0294 28.151 33.1094 28.1831C33.2152 28.2253 33.3256 28.2547 33.4384 28.2705H33.5463C33.6998 28.2655 33.8498 28.2231 33.9833 28.147C34.0999 28.0855 34.199 27.9951 34.2711 27.8846C34.3019 27.8279 34.3293 27.7694 34.3534 27.7096L34.3842 27.6118C34.452 27.3973 34.4833 27.1728 34.4767 26.9479C34.4646 26.8316 34.444 26.7164 34.4151 26.6031V26.5104C34.3775 26.3255 34.3225 26.1445 34.2506 25.9701C34.172 25.7886 34.0414 25.6345 33.8753 25.5275C33.7757 25.4676 33.6625 25.434 33.5463 25.4297H33.4949C33.4341 25.431 33.3737 25.4397 33.315 25.4554C33.2336 25.4783 33.1582 25.5187 33.094 25.5738L33.0323 25.6098C32.9013 25.6847 32.7861 25.7843 32.693 25.9032C32.6261 25.9854 32.5692 26.0752 32.5234 26.1708C32.4745 26.2734 32.4349 26.3802 32.4052 26.4899C32.3768 26.6027 32.3613 26.7184 32.3589 26.8347C32.3484 27.0719 32.3942 27.3082 32.4925 27.5243C32.5475 27.6518 32.6221 27.7699 32.7136 27.8743Z" fill="white"></path><path d="M28.0151 48.4998L28.0614 48.4741C28.1231 48.3505 28.1848 48.227 28.2567 48.1035L28.0254 48.4792L28.0151 48.4998Z" fill="white"></path><path d="M19.7906 18.1159L19.8214 18.0645H19.7803L19.7906 18.1159Z" fill="white"></path><path d="M25.5943 21.8835L25.6251 21.832H25.584L25.5943 21.8835Z" fill="white"></path><path d="M35.5254 54.295C35.5096 54.2955 35.4943 54.3 35.4808 54.3081C35.4673 54.3162 35.4561 54.3276 35.4483 54.3413C35.4019 54.435 35.3504 54.526 35.2941 54.6141C35.2272 54.7221 35.1655 54.8302 35.1039 54.9383L34.9034 55.2779C34.8314 55.4066 34.7492 55.5301 34.6721 55.6485C34.5178 55.8852 34.3688 56.1271 34.2146 56.3587C34.0603 56.5903 33.901 56.8322 33.7365 57.0638L33.7776 57.0072C33.6902 57.1255 33.6028 57.2491 33.5206 57.3726C33.2122 57.8049 32.9038 58.232 32.5902 58.6592C32.2766 59.0864 31.9939 59.4517 31.6701 59.8274C31.0344 60.5489 30.3472 61.2232 29.6139 61.8449C29.0022 62.3595 28.3648 62.8484 27.7222 63.3219C27.3932 63.5638 27.054 63.8005 26.6941 64.0218C26.3645 64.241 26.0211 64.4387 25.666 64.6137C25.3987 64.7372 25.152 64.8504 24.8487 64.9482C24.8089 64.9633 24.7762 64.9929 24.7572 65.031C24.7381 65.0692 24.7341 65.1131 24.7459 65.1541C24.76 65.1947 24.7893 65.2282 24.8278 65.2475C24.8662 65.2667 24.9106 65.2701 24.9515 65.257C25.5433 65.0427 26.1233 64.797 26.689 64.5211C26.9666 64.3821 27.2493 64.2431 27.5217 64.0939C27.7942 63.9446 28.0358 63.7851 28.3288 63.6204C28.8615 63.2951 29.3763 62.9411 29.8709 62.5602C30.3492 62.1817 30.8009 61.7707 31.2228 61.3302C31.6282 60.9044 32.0092 60.4559 32.364 59.987C32.7547 59.4723 33.1299 58.9577 33.4949 58.443C33.8599 57.9284 34.2403 57.3263 34.5744 56.7498C34.7389 56.4616 34.9085 56.1683 35.0473 55.8647L35.2478 55.4323C35.3146 55.2728 35.3866 55.1184 35.4483 54.9589C35.5115 54.7819 35.5647 54.6015 35.6076 54.4185C35.6137 54.405 35.6163 54.3901 35.6151 54.3753C35.6139 54.3605 35.6089 54.3462 35.6007 54.3339C35.5925 54.3215 35.5812 54.3115 35.5681 54.3047C35.5549 54.2979 35.5402 54.2945 35.5254 54.295Z" fill="white"></path><path d="M20.983 66.1276C21.2091 66.1276 21.4302 66.1276 21.6564 66.1276C21.8825 66.1276 22.0881 66.0864 22.2989 66.0504L22.6279 65.9835L22.926 65.8806C23.0518 65.8334 23.1738 65.7766 23.291 65.7107C23.3999 65.6459 23.5031 65.5718 23.5994 65.4894C23.6175 65.4788 23.6314 65.4623 23.6389 65.4426C23.6464 65.423 23.647 65.4014 23.6406 65.3814C23.6341 65.3619 23.6217 65.345 23.6051 65.333C23.5885 65.321 23.5685 65.3145 23.548 65.3145H23.5172L23.4092 65.3402L23.1111 65.3968L22.7718 65.4637C22.484 65.5152 22.1961 65.5872 21.9082 65.6387C21.521 65.7149 21.1297 65.7682 20.7362 65.7982C20.3272 65.8265 19.9167 65.8265 19.5077 65.7982C19.1589 65.7642 18.8145 65.6953 18.4796 65.5924C18.4579 65.5892 18.4358 65.5944 18.4177 65.6068C18.3996 65.6191 18.3868 65.6379 18.3819 65.6593C18.3771 65.6811 18.3809 65.7039 18.3923 65.723C18.4038 65.7421 18.4221 65.7561 18.4436 65.7622C18.8445 65.8711 19.2512 65.957 19.6619 66.0195C19.8829 66.0504 20.1091 66.0761 20.3301 66.0967C20.5512 66.1173 20.7568 66.1276 20.983 66.1276Z" fill="white"></path><path d="M24.0827 67.1148C24.0658 67.1102 24.0481 67.1102 24.0312 67.1148C23.7105 67.3489 23.4065 67.6052 23.1214 67.8816C22.8273 68.1632 22.5621 68.4735 22.3298 68.808C22.2077 68.9723 22.0961 69.1442 21.9956 69.3226C21.8991 69.509 21.815 69.7016 21.7438 69.899C21.6777 70.0844 21.6295 70.2757 21.5998 70.4703C21.5998 70.5732 21.5998 70.6762 21.5638 70.7739C21.5279 70.8717 21.5638 70.9952 21.5638 71.1033C21.5562 71.1666 21.5562 71.2305 21.5638 71.2937C21.5638 71.3298 21.6152 71.3555 21.6564 71.3555C21.6762 71.3546 21.6952 71.347 21.7101 71.3339C21.7251 71.3208 21.7351 71.303 21.7386 71.2834C21.7695 71.1702 21.7952 71.057 21.8209 70.9386L21.898 70.6195C21.9494 70.4188 22.0162 70.2233 22.083 70.0328C22.287 69.5283 22.5529 69.0512 22.8747 68.6124C23.1543 68.21 23.4823 67.8436 23.8513 67.5214C23.949 67.439 24.0467 67.3618 24.1495 67.2898C24.1703 67.2752 24.1846 67.2531 24.1894 67.2281C24.1942 67.2031 24.1891 67.1772 24.1752 67.156C24.165 67.1413 24.151 67.1297 24.1347 67.1224C24.1183 67.1152 24.1004 67.1125 24.0827 67.1148Z" fill="white"></path><path d="M36.1165 52.9737C36.125 52.9813 36.136 52.9855 36.1473 52.9855C36.1587 52.9855 36.1697 52.9813 36.1782 52.9737C36.3641 52.5242 36.5221 52.0635 36.6511 51.5944C36.7128 51.3577 36.7745 51.1158 36.831 50.8739L36.9852 50.1534C37.0418 49.9064 37.0932 49.6645 37.1394 49.4175C37.1857 49.1704 37.2371 48.9028 37.2834 48.6455C37.3296 48.3882 37.3656 48.1308 37.3965 47.8684C37.4273 47.6059 37.4581 47.3537 37.4838 47.0861C37.5781 46.0253 37.6158 44.9601 37.5969 43.8953C37.5969 43.3806 37.5661 42.8351 37.5404 42.3102C37.5147 41.7852 37.489 41.2551 37.453 40.725C37.3605 39.4281 37.2251 38.1364 37.0469 36.8497C37.0457 36.8242 37.035 36.8 37.0169 36.782C36.9989 36.7639 36.9747 36.7532 36.9492 36.752C36.8978 36.752 36.8413 36.8034 36.8516 36.8549C36.9953 37.9028 37.0828 38.9576 37.1137 40.0148C37.1137 40.5295 37.1137 41.0699 37.1137 41.6C37.1137 42.13 37.1137 42.6601 37.1137 43.1902C37.1137 43.7203 37.088 44.1166 37.0778 44.5798C37.0675 45.043 37.0778 45.5267 37.0418 46.0002C37.0058 46.4737 37.0058 46.9266 36.9904 47.3898C36.9904 47.6162 36.9904 47.8478 36.9492 48.0794L36.903 48.7484C36.8721 49.0932 36.831 49.4329 36.7847 49.7777C36.7847 49.9321 36.7488 50.0917 36.7282 50.2461C36.7076 50.4005 36.6819 50.5806 36.6614 50.7607C36.5753 51.4142 36.4237 52.0573 36.209 52.6804L36.1011 52.9531C36.1044 52.9612 36.1097 52.9683 36.1165 52.9737Z" fill="white"></path><path d="M40.9794 110.959C40.9657 110.891 40.9432 110.825 40.9126 110.763C40.8933 110.719 40.871 110.676 40.8457 110.635C40.7761 110.518 40.6894 110.412 40.5887 110.321C40.2252 110.017 39.811 109.78 39.3653 109.621C38.9661 109.456 38.5576 109.316 38.1419 109.199C37.6998 109.07 37.2526 108.962 36.8054 108.859L35.6334 108.612L35.2838 108.54C34.5744 108.406 33.8651 108.283 33.1505 108.18L32.6982 108.098C32.6575 108.089 32.6155 108.089 32.5748 108.098C32.5375 108.09 32.499 108.09 32.4617 108.098C32.4262 108.089 32.3893 108.089 32.3538 108.098H32.3024H32.2304L32.0556 108.072C31.922 108.046 31.7832 108.036 31.6444 108.015L31.4131 107.989H31.3565H31.2743H31.2126H31.0841L30.8939 107.964H30.8322H30.7243L29.9429 107.897H29.9121H29.7938H29.5317L28.6938 107.814H28.5756C28.2517 107.784 27.933 107.748 27.6092 107.722C26.8587 107.65 26.1082 107.593 25.3525 107.531H25.2857L25.2394 107.475C24.6409 106.662 24.1518 105.775 23.7847 104.835C23.5536 104.284 23.3596 103.718 23.2038 103.141C23.0395 102.496 22.9158 101.841 22.8337 101.181C22.569 98.7336 22.4763 96.2709 22.5561 93.8109C22.5818 91.1707 22.5561 88.5305 22.5253 85.8853C22.5253 84.6295 22.5253 83.3738 22.4944 82.118C22.4944 81.0527 22.4944 79.9874 22.4944 78.9221C22.4944 78.0986 22.4944 77.27 22.4944 76.4466C22.4944 75.6231 22.5613 74.7534 22.6692 73.9094C22.7463 73.369 22.844 72.8286 22.9674 72.2985C23.0239 72.0824 23.0856 71.8714 23.1524 71.6552C23.378 71.1934 23.6519 70.7569 23.9697 70.3531C24.2611 69.9871 24.5789 69.6431 24.9207 69.3238C25.2549 69.015 25.5993 68.7217 25.9488 68.4438C26.5451 67.9858 27.1671 67.5689 27.7942 67.1572C28.4213 66.7454 29.1102 66.3286 29.7579 65.9014C31.0586 65.0405 32.2831 64.0694 33.4178 62.9988C34.5116 61.9564 35.4873 60.7966 36.3273 59.5403C37.1919 58.2468 37.8832 56.8453 38.3835 55.3717C38.675 54.4913 38.9136 53.5942 39.098 52.6852C39.2985 51.7177 39.4373 50.7399 39.5452 49.7569C39.7431 47.8079 39.8049 45.8475 39.7303 43.8899C39.6737 41.9187 39.5247 39.9579 39.3602 37.9971L39.1134 35.0739C39.038 34.0858 38.9352 33.0994 38.805 32.1147C38.6131 30.7423 38.3783 29.3785 38.1008 28.0232C37.818 26.6285 37.4788 25.2493 37.1189 23.87C36.7591 22.4907 36.3787 21.1218 35.9829 19.7528C35.5871 18.3838 35.1656 17.02 34.7698 15.6356C34.7556 15.5848 34.7264 15.5394 34.686 15.5054C34.6457 15.4715 34.596 15.4505 34.5436 15.4452C34.5376 15.4177 34.5245 15.3922 34.5055 15.3714C34.4866 15.3507 34.4625 15.3353 34.4356 15.3268C34.3112 15.283 34.1841 15.2469 34.0552 15.2187C33.9267 15.1827 33.7982 15.1518 33.6646 15.1261C33.3664 15.0746 33.0631 15.0438 32.7599 15.018C32.1893 14.9769 31.6238 14.9563 31.0532 14.9357C29.9172 14.8997 28.776 14.8791 27.64 14.8533C26.504 14.8276 25.3628 14.7967 24.2268 14.7916H23.8721C22.844 14.7916 21.8467 14.7916 20.8341 14.8533C18.5774 14.9305 16.3311 15.0643 14.0796 15.2187L12.9538 15.3011V15.2445C12.9564 15.2274 12.9564 15.2101 12.9538 15.193C12.9538 15.157 12.9538 15.1158 12.9538 15.0798C12.9434 15.0375 12.9434 14.9934 12.9538 14.9511C12.9538 14.8688 12.9538 14.7916 12.9538 14.7144V12.383V10.0568V9.1922V9.10985C12.9538 7.95704 12.9538 6.64468 12.9024 5.36835V4.81253V4.52432C12.9024 4.29788 12.9024 4.07143 12.9024 3.85013C12.9024 3.62883 12.9024 3.42297 12.9024 3.21197C12.9024 2.96493 12.9024 2.69732 12.9024 2.47602V2.31648C12.9024 1.85844 12.9024 1.40555 12.9024 0.952655C12.9024 0.669598 12.9024 0.381395 12.9024 0.0931916C12.4912 0.0931916 12.0851 0.067461 11.6739 0.046875C11.458 0.046875 11.2369 0.046875 11.021 0.046875H10.9491C10.7537 0.046875 10.5584 0.046875 10.3682 0.046875H9.95181H9.84387H9.55086C9.55086 0.365958 9.55086 0.679892 9.55086 0.993828V1.6217C9.55086 1.82413 9.55086 2.02484 9.55086 2.22384C9.55086 2.22384 9.55086 2.22384 9.5817 2.22384H9.85415H9.97238H10.4864C10.5055 2.22384 10.5238 2.23144 10.5373 2.24495C10.5508 2.25846 10.5584 2.27678 10.5584 2.29589C10.5584 2.315 10.5508 2.33333 10.5373 2.34684C10.5238 2.36035 10.5055 2.36794 10.4864 2.36794H10.2602H10.0649H9.94153H9.83358H9.56114C9.55466 2.37077 9.54766 2.37224 9.54058 2.37224C9.5335 2.37224 9.5265 2.37077 9.52002 2.36794V2.88259V2.98038H9.84387H10.0032H10.0649H10.1369C10.1552 2.98522 10.1709 2.99713 10.1806 3.01352C10.1902 3.02991 10.193 3.04944 10.1883 3.06786C10.1872 3.07683 10.1838 3.08537 10.1784 3.09259C10.1729 3.09982 10.1657 3.10549 10.1574 3.10904C10.1389 3.11383 10.1194 3.11383 10.1009 3.10904H10.07H10.0084H9.90555H9.35553V3.18624C9.35553 3.39725 9.35553 3.60825 9.35553 3.81926C9.35553 4.22754 9.35553 4.63412 9.35553 5.03897C9.35553 5.41467 9.35553 5.79037 9.40179 6.16091C9.38637 6.44376 9.38637 6.72723 9.40179 7.01008C9.40179 7.36004 9.40179 7.71515 9.40179 8.06511V8.25039V9.41864C9.40179 9.8458 9.40179 10.2678 9.40179 10.695C9.40179 11.0295 9.40179 11.364 9.40179 11.6985C9.37609 12.9543 9.36067 14.2409 9.34524 15.543V15.6613C8.69412 15.7059 8.04129 15.7471 7.38674 15.7849C6.64138 15.826 5.89602 15.8621 5.15066 15.8826C5.09894 15.8841 5.04929 15.9033 5.01 15.9371C4.97071 15.9708 4.94415 16.017 4.93476 16.0679C4.8964 16.0785 4.86169 16.0994 4.83448 16.1285C4.80726 16.1576 4.7886 16.1936 4.78055 16.2326C4.51228 17.8435 4.16054 19.4394 3.72676 21.0137C3.31039 22.5988 2.83747 24.1685 2.40054 25.7485C1.9636 27.3284 1.54723 28.9187 1.25422 30.5296C1.10515 31.3376 0.99206 32.1507 0.878971 32.9639C0.765882 33.777 0.663074 34.621 0.565406 35.4496C0.375211 37.0913 0.215857 38.7382 0.12847 40.3954C0.0359526 42.041 0.0359526 43.6905 0.12847 45.336C0.217309 46.9577 0.432142 48.57 0.771023 50.1583C1.1147 51.6749 1.56825 53.1645 2.12809 54.6152C2.6638 56.0335 3.30471 57.4097 4.04547 58.7324C4.41558 59.386 4.82167 60.0241 5.24833 60.6417C5.68643 61.28 6.1619 61.8918 6.67223 62.4739C8.61016 64.6611 11.2986 65.8963 13.7249 67.4351C14.3469 67.8313 14.9483 68.2534 15.5343 68.7011C15.668 68.804 15.7965 68.9121 15.925 69.0253C16.1512 69.3187 16.3825 69.6018 16.6189 69.89C16.6755 69.9517 16.7269 70.0186 16.7783 70.0804C16.8297 70.1421 16.9119 70.3583 16.9736 70.4972C17.1516 70.8956 17.3095 71.3027 17.4465 71.717C17.6042 72.2217 17.7228 72.7379 17.8012 73.2609C18.0326 74.7637 18.0891 76.2922 18.2176 77.8053C18.2793 78.5978 18.3564 79.3904 18.4232 80.1829C18.4901 80.9755 18.5466 81.7835 18.598 82.5863C18.6648 83.6414 18.7214 84.6913 18.7574 85.7463C18.7574 85.7875 18.7574 85.8235 18.7574 85.8647C18.7574 85.9059 18.7574 86.0654 18.7574 86.1683C18.7652 86.216 18.7652 86.2647 18.7574 86.3124C18.7574 86.6778 18.7574 87.0432 18.7574 87.4086C18.7574 88.2115 18.7574 89.0195 18.7574 89.8223C18.7574 90.5428 18.7574 91.2685 18.7574 91.9941C18.7574 95.0254 18.9527 98.0619 18.6751 101.083C18.6083 101.752 18.5158 102.411 18.3872 103.069C18.2721 103.675 18.1106 104.27 17.904 104.85C17.7729 105.203 17.6183 105.547 17.4414 105.879C17.354 106.039 17.2615 106.193 17.169 106.353C17.0764 106.512 16.9788 106.667 16.8708 106.821C16.7629 106.976 16.7012 107.048 16.6087 107.156H16.4801L16.1255 107.12C16.0882 107.112 16.0497 107.112 16.0124 107.12H15.5909H14.6707H14.6347L13.3034 107.145H12.6865L11.8692 107.176H11.6225L10.5944 107.223H10.5378H10.4299H10.1523C9.87985 107.223 9.60227 107.259 9.32982 107.29H9.13449H8.9957L8.68727 107.315L8.09098 107.362H7.96761L7.38674 107.418L6.93953 107.465H6.83672H6.71849C6.68611 107.46 6.6532 107.46 6.62082 107.465L5.84462 107.567H5.79835C4.75572 107.702 3.72471 107.916 2.7141 108.206C2.32574 108.32 1.94749 108.466 1.58321 108.643C1.44227 108.72 1.3066 108.806 1.17712 108.9L1.03832 109.014C0.97664 109.075 0.925236 109.142 0.868691 109.209C0.797651 109.3 0.743657 109.403 0.709337 109.513C0.673436 109.655 0.673436 109.803 0.709337 109.945C0.723839 110.014 0.746263 110.082 0.776163 110.146C0.79218 110.19 0.814703 110.232 0.842988 110.269C0.924012 110.394 1.0227 110.507 1.13599 110.604C1.26145 110.709 1.39368 110.805 1.5318 110.892C1.7104 110.999 1.89586 111.093 2.08697 111.175C2.51841 111.377 2.96325 111.549 3.41834 111.69C3.52115 111.721 3.6291 111.757 3.73705 111.782H3.78845L3.92724 111.818H3.98893L4.11744 111.854L4.74971 112.014H4.79083C5.46423 112.179 6.1479 112.318 6.847 112.446L7.45357 112.554L7.73629 112.606C7.8142 112.615 7.89147 112.628 7.96761 112.647L8.2452 112.693L8.54334 112.74L8.91859 112.796H9.02654L9.32468 112.837H9.38123H9.48404H9.50974C10.0752 112.909 10.6355 112.971 11.2009 113.033L12.1314 113.115C12.4449 113.146 12.7533 113.167 13.0618 113.187H13.108H13.2365H13.2777H13.3805H13.5295L14.1413 113.234L14.8763 113.285L15.6782 113.584L16.2334 113.625H16.2848L17.3643 113.707L17.8783 113.743L18.4387 113.774C19.0452 113.81 19.6569 113.841 20.2635 113.867L21.0757 113.903L21.9393 113.934L22.8543 113.965H23.8824C24.4324 113.965 24.9824 113.965 25.5376 113.965H26.0208L27.2905 113.923L28.6064 113.872C29.506 113.836 30.4004 113.79 31.2948 113.733L32.4155 113.651H32.4874L32.7599 113.625H32.8421C33.0374 113.625 33.2328 113.589 33.423 113.563H33.8753C34.1272 113.563 34.3894 113.527 34.6258 113.501C34.6666 113.509 34.7084 113.509 34.7492 113.501H34.8366H34.9805H35.0473H35.1039L35.7979 113.398H35.8287H35.9212H35.9521L36.1268 113.368C36.3376 113.337 36.5535 113.301 36.7642 113.259H36.8259H36.8928C37.3348 113.177 37.7718 113.084 38.2036 112.982H38.2498L38.4246 112.935H38.4606L38.9335 112.801H38.9746C39.4588 112.667 39.9174 112.453 40.3317 112.168C40.3639 112.153 40.3934 112.132 40.4191 112.107C40.5003 112.039 40.5744 111.963 40.6401 111.88C40.6651 111.856 40.6859 111.829 40.7018 111.798C40.7176 111.77 40.7314 111.74 40.7429 111.71C40.7649 111.66 40.7838 111.609 40.7995 111.556C40.8048 111.489 40.8048 111.422 40.7995 111.355C40.8797 111.233 40.9403 111.1 40.9794 110.959ZM9.50974 0.736503H9.77704C9.85406 0.741633 9.93134 0.741633 10.0084 0.736503H10.0957H10.1934H10.3322C10.4041 0.731454 10.4762 0.731454 10.5481 0.736503H10.7486H10.9593C10.9779 0.73171 10.9973 0.73171 11.0159 0.736503C11.0193 0.744657 11.021 0.753404 11.021 0.762237C11.021 0.771071 11.0193 0.779818 11.0159 0.787971C11.0175 0.805539 11.0127 0.823098 11.0023 0.837327C10.9918 0.851556 10.9766 0.861462 10.9593 0.865166C10.9028 0.865166 10.8411 0.865166 10.7794 0.865166H10.6766H10.6098C10.5208 0.870359 10.4315 0.870359 10.3425 0.865166H10.0803C9.98958 0.860046 9.89863 0.860046 9.80788 0.865166H9.50974C9.50257 0.865887 9.49533 0.865095 9.48848 0.862833C9.48164 0.860572 9.47535 0.856896 9.47002 0.852044C9.46469 0.847191 9.46043 0.84127 9.45753 0.834665C9.45464 0.82806 9.45316 0.82092 9.45319 0.813706C9.4497 0.804812 9.44851 0.795179 9.44974 0.785702C9.45097 0.776225 9.45457 0.767211 9.46021 0.759505C9.46586 0.751798 9.47336 0.745645 9.48202 0.741623C9.49068 0.737602 9.50022 0.73584 9.50974 0.736503ZM10.2602 1.59597L10.1163 1.57024C10.0035 1.55998 9.8899 1.55998 9.77704 1.57024C9.65667 1.57113 9.53648 1.57972 9.41721 1.59597C9.40124 1.59478 9.38623 1.5879 9.37491 1.57656C9.36359 1.56523 9.35671 1.5502 9.35553 1.53421C9.35161 1.51902 9.35161 1.50309 9.35553 1.4879C9.36875 1.48273 9.38343 1.48273 9.39665 1.4879H9.54058H9.81816H10.363C10.4588 1.48018 10.5551 1.48018 10.6509 1.4879C10.6695 1.4831 10.6889 1.4831 10.7075 1.4879C10.7161 1.4956 10.7229 1.50515 10.7273 1.51584C10.7318 1.52653 10.7338 1.53809 10.7332 1.54965C10.7332 1.57199 10.7247 1.5935 10.7094 1.60976C10.6941 1.62603 10.6732 1.63583 10.6509 1.63714C10.555 1.64233 10.4589 1.64233 10.363 1.63714L10.2602 1.59597ZM9.84387 43.1797V42.5055C9.84387 42.0474 9.84387 41.5945 9.84387 41.1365V39.9425C9.84387 39.7161 9.84387 39.4948 9.84387 39.2683V39.0985C9.84387 38.9338 9.84387 38.7639 9.84387 38.5838V33.952C9.84387 33.7461 9.84387 33.5351 9.84387 33.3241V30.5347C9.84387 30.1847 9.84387 29.8399 9.84387 29.5054C9.84387 29.2584 9.84387 28.9908 9.84387 28.7643V28.5173C9.84387 28.157 9.84387 27.7916 9.84387 27.4262V27.2976C9.84387 27.1483 9.84387 26.9991 9.84387 26.8498C9.84387 26.7006 9.84387 26.5359 9.84387 26.3763C9.84387 26.3146 9.84387 26.2528 9.84387 26.1911C9.83402 26.1645 9.83402 26.1353 9.84387 26.1087V26.0573C9.84387 25.9955 9.84387 25.9286 9.84387 25.8617C9.84387 25.7176 9.84387 25.5735 9.84387 25.4345C9.84387 25.2956 9.84387 25.3007 9.84387 25.2338C9.84387 25.1669 9.84387 25.0846 9.84387 25.0074C9.84387 24.9302 9.84387 24.7346 9.84387 24.5957V24.4927C9.84387 24.4804 9.84874 24.4687 9.85742 24.46C9.86609 24.4513 9.87786 24.4464 9.89013 24.4464H9.85929C9.8546 24.4491 9.84928 24.4505 9.84387 24.4505C9.83845 24.4505 9.83313 24.4491 9.82844 24.4464C9.82502 24.4431 9.82231 24.439 9.82045 24.4346C9.8186 24.4302 9.81765 24.4255 9.81765 24.4207C9.81765 24.4159 9.8186 24.4111 9.82045 24.4067C9.82231 24.4023 9.82502 24.3983 9.82844 24.3949C9.82844 24.3949 9.82844 24.3692 9.82844 24.3641C9.83313 24.3614 9.83845 24.3599 9.84387 24.3599C9.84928 24.3599 9.8546 24.3614 9.85929 24.3641H9.90041L9.97238 24.3332H10.0032H10.0392H10.0649H10.1112C10.1349 24.3279 10.1594 24.3279 10.1831 24.3332H10.2602H10.3271H10.399H10.471H10.5584H10.8051H10.8874H11.0519H11.1495H11.1804H11.2575H11.35L11.4477 24.3589L11.5299 24.3898H11.571H11.607C11.636 24.3955 11.6637 24.4059 11.6893 24.4207L11.7304 24.4464H11.8024H11.8383H11.8795H11.9257H11.9669C11.9839 24.4436 12.0012 24.4436 12.0183 24.4464L12.0594 24.4773H12.0851H12.1211C12.1324 24.487 12.1412 24.4994 12.1468 24.5133C12.1468 24.539 12.1468 24.5648 12.1468 24.5957C12.159 24.5957 12.1708 24.6005 12.1795 24.6092C12.1882 24.6179 12.193 24.6297 12.193 24.642C12.193 25.2235 12.193 25.7948 12.193 26.4793V28.1879C12.193 28.7798 12.193 29.3716 12.193 29.9686V32.7837C12.193 33.4939 12.193 34.2042 12.193 34.9092C12.193 35.8459 12.193 36.7671 12.193 37.7089C12.193 37.9817 12.193 38.2596 12.193 38.5375C12.193 38.7125 12.193 38.8875 12.193 39.0522C12.193 39.4124 12.193 39.7675 12.193 40.1278V42.0474C12.193 42.3871 12.193 42.7216 12.193 43.0767C12.193 44.0494 12.193 45.0221 12.193 45.9896C12.193 46.5557 12.193 47.1167 12.193 47.6777C12.193 48.0482 12.193 48.4136 12.193 48.779C12.193 49.1444 12.193 49.515 12.193 49.8804V50.9457C12.193 51.2751 12.193 51.6045 12.193 51.9338V52.0162C12.193 53.5138 12.193 55.0629 12.1622 56.5863V56.7458C12.1622 56.9774 12.1622 57.209 12.1622 57.4406V57.6053C12.1622 57.7288 12.1622 57.8523 12.1622 57.9758C12.1622 58.0993 12.1622 58.0839 12.1622 58.1405C12.1648 58.1782 12.1648 58.216 12.1622 58.2537V58.3206V58.4596C12.1622 58.4184 12.1622 58.3772 12.1622 58.3361V58.1045C12.1622 58.0324 12.1622 57.9604 12.1622 57.8883V57.8369C12.1622 57.7185 12.1622 57.595 12.1622 57.4766V57.3479C12.1622 57.1215 12.1622 56.8899 12.1622 56.6635C12.1622 56.437 12.1622 56.1179 12.1622 55.8452C12.1622 55.2482 12.1622 54.6306 12.1622 53.9564C12.1622 53.1999 12.1622 52.4485 12.1622 51.6919C12.1622 51.4501 12.1622 51.2133 12.1622 50.9714C12.1622 50.4928 12.1622 50.0142 12.1622 49.5356V45.0478C12.1622 44.1163 12.1622 43.1693 12.1622 42.2533C12.1622 41.5122 12.1622 40.7711 12.1622 40.03C12.1622 39.5925 12.1622 39.1551 12.1622 38.7176V37.4156C12.1622 36.4892 12.1622 35.5577 12.1622 34.6313V32.722V31.6927V31.492C12.1622 31.3067 12.1365 31.1163 12.1262 30.931C12.1262 30.8538 12.1262 30.7714 12.1262 30.6891C12.1262 30.6068 12.1262 30.4935 12.1262 30.3906C12.1262 30.2002 12.0954 30.0046 12.0799 29.8193V29.7936C12.0799 29.7216 12.0799 29.6547 12.0799 29.5877C12.0799 29.5208 12.0799 29.2944 12.0799 29.1812C12.0799 29.068 12.0799 29.068 12.0799 29.0113C12.0774 28.9702 12.0774 28.929 12.0799 28.8878V28.8261C12.0799 28.7952 12.0799 28.7695 12.0799 28.7386C12.0774 28.6992 12.0774 28.6596 12.0799 28.6202V28.4607C12.0799 28.3217 12.0799 28.1828 12.0799 28.0387C12.0799 27.9872 12.0799 27.9306 12.0799 27.874C12.0825 27.838 12.0825 27.8019 12.0799 27.7659V27.699C12.0491 27.5703 12.0285 27.4468 11.9977 27.3233C11.9669 27.1998 11.9257 27.0814 11.8846 26.963C11.8435 26.8447 11.7921 26.7314 11.7612 26.6131L11.715 26.433C11.7046 26.4205 11.6959 26.4066 11.6893 26.3918C11.6893 26.3506 11.643 26.3094 11.6122 26.2683C11.5735 26.2279 11.5323 26.1901 11.4888 26.155L11.3706 26.0624L11.2883 26.0161C11.2478 26.0034 11.2066 25.9931 11.165 25.9852H11.0621H10.9285H10.7023C10.6734 25.9903 10.6438 25.9903 10.6149 25.9852L10.5481 26.0109L10.363 26.083L10.2859 26.1499L10.214 26.2219C10.202 26.2454 10.1819 26.2637 10.1574 26.2734V26.3352C10.1574 26.4484 10.1574 26.5616 10.1574 26.6748C10.1574 26.9373 10.1574 27.1895 10.1574 27.4623C10.1574 27.735 10.1574 27.9769 10.1574 28.2548V28.9239C10.1574 29.1297 10.1574 29.3356 10.1574 29.5414C10.1574 30.2362 10.1574 30.9361 10.1574 31.6309C10.1574 32.0015 10.1574 32.372 10.1574 32.7477V33.4167C10.1574 33.6123 10.1574 33.8079 10.1574 34.0034C10.1574 34.3843 10.1574 34.7651 10.1574 35.146V35.5525C10.1574 35.7635 10.1574 35.9746 10.1574 36.1856C10.1574 36.5664 10.1574 36.9421 10.1574 37.3229C10.1574 37.4465 10.1574 37.57 10.1574 37.6935V37.8788C10.1574 38.1258 10.1574 38.3934 10.1574 38.6199C10.1574 38.8463 10.1574 39.0316 10.1574 39.2374V39.3815C10.1574 39.5771 10.1574 39.7727 10.1574 39.9682V41.2394C10.1574 41.6717 10.1574 42.0989 10.1574 42.5312V43.0458C10.1574 43.2774 10.1574 43.509 10.1574 43.7406C10.1574 44.4457 10.1574 45.1919 10.1574 46.0205C10.1574 46.952 10.1574 47.8835 10.1574 48.8202V49.4892C10.1574 49.8752 10.1574 50.2561 10.1574 50.6421V52.922C10.1574 53.2771 10.1574 53.627 10.1574 53.977V55.2585C10.1523 55.3493 10.1523 55.4404 10.1574 55.5312V55.5827C10.1574 55.7011 10.1574 55.8194 10.1574 55.943C10.1574 56.3598 10.1574 56.8024 10.1574 57.2502C10.1574 57.4612 10.1574 57.6773 10.1574 57.9449C10.1574 58.0221 10.1574 58.0942 10.1574 58.1714V58.3361V58.3103V58.0015C10.1574 57.842 10.1574 57.6825 10.1574 57.5229V57.4869C10.1523 57.4064 10.1523 57.3256 10.1574 57.245V56.648C10.1574 56.4113 10.1574 56.1745 10.1574 55.9378V55.5209C10.1574 55.4334 10.1574 55.3408 10.1574 55.2533C10.1574 54.96 10.1574 54.6666 10.1574 54.3733V53.7866C10.1574 53.1638 10.1574 52.5257 10.1574 51.9133V51.5787C10.1574 51.3934 10.1574 51.2133 10.1574 51.0281C10.1574 50.8428 10.1574 50.7656 10.1574 50.6369V48.8151C10.1574 48.3313 10.1574 47.8424 10.1574 47.3586V46.5763C10.1574 46.0154 10.1574 45.4492 10.1574 44.8883C10.1574 44.3273 9.86443 43.7406 9.85929 43.1797H9.84387ZM40.1209 111.18V111.211L40.0798 111.283L40.0181 111.34L39.9307 111.417C39.6923 111.568 39.4391 111.694 39.1751 111.793L38.9746 111.865H38.9284L38.4657 112.009H38.4349L38.255 112.06H38.2036C37.7769 112.179 37.34 112.266 36.903 112.349H36.8414H36.79L36.1577 112.446H36.1268L35.9675 112.472H35.8801H35.7979L35.1759 112.549C35.147 112.544 35.1174 112.544 35.0885 112.549C35.0596 112.544 35.03 112.544 35.0011 112.549C34.9739 112.545 34.9461 112.545 34.9188 112.549H34.8109H34.7081H34.595C34.3483 112.585 34.081 112.626 33.8599 112.652H33.8136H33.7468H33.7108H33.6337H33.5978H33.5206H33.4847H33.4281L32.8524 112.693H32.5388L31.4131 112.771C30.5392 112.822 29.6653 112.868 28.7915 112.889C28.3545 112.889 27.9124 112.915 27.4755 112.92H22.0369H21.1734H20.3098C19.7169 112.92 19.1258 112.899 18.5363 112.858H18.0583H17.4568L16.9171 112.832L16.3002 112.801H16.2642C15.8325 112.776 15.4007 112.74 14.9689 112.704C14.8712 112.704 14.7684 112.704 14.6707 112.678L14.2852 112.642L13.6169 112.57H13.5604H13.4524H13.3599H13.3034H13.2108H13.1337C12.337 112.467 11.5402 112.369 10.7434 112.261H10.8154L10.1626 112.163L9.64853 112.096C9.61619 112.091 9.5832 112.091 9.55086 112.096L9.25272 112.055C9.22707 112.053 9.20125 112.053 9.17561 112.055H9.09336H9.06766C8.55362 111.983 7.99845 111.896 7.46899 111.813L7.11944 111.752H7.06804C6.39464 111.633 5.72125 111.499 5.05299 111.345H5.02729L4.38988 111.185L4.25623 111.149H4.23053H4.17912L4.04033 111.108H3.9735L3.54171 110.98C3.14799 110.858 2.76179 110.714 2.38511 110.547C2.14102 110.438 1.90996 110.302 1.6963 110.141C1.63768 110.09 1.58271 110.035 1.5318 109.976C1.51611 109.951 1.50236 109.926 1.49068 109.899C1.49068 109.899 1.49068 109.873 1.49068 109.863V109.827C1.50115 109.8 1.51688 109.775 1.53695 109.755C1.58839 109.696 1.64518 109.643 1.70658 109.595C1.9357 109.45 2.17846 109.328 2.43138 109.23C2.95522 109.043 3.49103 108.892 4.03519 108.777C4.65204 108.643 5.27403 108.535 5.89602 108.442H5.94743H6.01425L6.71335 108.345H6.84186H6.92411H6.98579H7.05776L8.0293 108.231H8.07042H8.14753L8.57932 108.185H8.71297L9.20131 108.139C9.5046 108.139 9.80788 108.108 10.1112 108.082H10.5378C10.8805 107.976 11.2232 107.923 11.5659 107.923H11.6019H11.8383H11.8743L12.7688 107.887H13.2828C13.7249 107.887 14.1721 107.856 14.6193 107.845H15.9044L15.8736 107.887L15.7348 108.01C15.3847 108.287 15.0034 108.522 14.5988 108.71C14.3657 108.812 14.1251 108.897 13.8791 108.962C13.8602 108.964 13.8419 108.97 13.8255 108.98C13.8092 108.989 13.7952 109.002 13.7846 109.018C13.7739 109.034 13.7669 109.052 13.764 109.071C13.7612 109.09 13.7625 109.109 13.7679 109.127C13.7733 109.145 13.7827 109.162 13.7954 109.176C13.8081 109.19 13.8238 109.201 13.8413 109.209C13.8588 109.216 13.8777 109.22 13.8967 109.219C13.9157 109.218 13.9343 109.213 13.9511 109.204C14.2235 109.132 14.4908 109.05 14.753 108.952C15.0252 108.853 15.2912 108.738 15.5497 108.607C16.059 108.348 16.5354 108.028 16.9685 107.655C17.1741 107.475 17.3643 107.279 17.5545 107.084C17.7718 106.86 17.9664 106.615 18.1354 106.353C18.4612 105.856 18.7221 105.32 18.9116 104.757C19.0092 104.474 19.0812 104.181 19.1532 103.888C19.2251 103.594 19.3125 103.183 19.3793 102.822C19.513 102.112 19.6055 101.397 19.6723 100.676C19.8025 99.2271 19.8557 97.772 19.8317 96.3172C19.8317 94.8762 19.7443 93.4352 19.6878 91.9993C19.6878 91.2736 19.6466 90.5531 19.6209 89.8326C19.5952 89.0298 19.5644 88.2269 19.5233 87.4241C19.4513 85.8132 19.3742 84.2075 19.2714 82.6018C19.1686 80.9961 19.0555 79.411 18.9321 77.8156C18.8499 76.7863 18.7779 75.757 18.6751 74.7277C18.5723 73.6984 18.4284 72.6691 18.2639 71.6398L18.2022 71.2538C18.1611 71.0016 18.1199 70.7391 18.0583 70.4972C17.9967 70.2557 17.9194 70.0185 17.8269 69.787C17.6577 69.3452 17.4331 68.9268 17.1587 68.5416C16.9097 68.1894 16.6198 67.868 16.2951 67.5843C15.9425 67.2531 15.5643 66.9502 15.1642 66.6785C14.7787 66.4418 14.3726 66.2308 13.9716 66.0249C13.4576 65.7625 12.9435 65.5103 12.4295 65.2427C11.3997 64.7119 10.407 64.1118 9.45833 63.4465C8.95409 63.0801 8.46856 62.6884 8.00359 62.2731C7.762 62.0621 7.5204 61.846 7.28908 61.6195C7.05776 61.3931 6.98579 61.2953 6.84186 61.1049L6.64652 60.8578C5.41633 59.2362 4.39559 57.4655 3.60854 55.5878C3.11451 54.3845 2.69393 53.1522 2.34913 51.8978C1.97096 50.5466 1.68585 49.1709 1.49582 47.7806C1.32619 46.4734 1.22338 45.1559 1.17712 43.8384C1.13085 42.5209 1.17712 41.0644 1.20796 39.68C1.2388 38.2956 1.35703 36.9112 1.48554 35.5268C1.54723 34.8372 1.62433 34.1527 1.69116 33.4682C1.75798 32.7837 1.82481 32.1456 1.9122 31.4868C2.30363 28.9388 2.83042 26.4134 3.49031 23.9215C3.80901 22.6503 4.12772 21.3791 4.42072 20.1028C4.71373 18.8264 4.96561 17.5295 5.17122 16.248C5.17122 16.248 5.17122 16.2172 5.17122 16.2069C6.26099 16.1726 7.35076 16.1417 8.44053 16.1142H9.263V16.2069C9.263 16.5259 9.263 16.845 9.263 17.1693C9.263 18.6051 9.263 20.0513 9.263 21.2865C9.263 21.9555 9.263 22.6194 9.263 23.2833C8.80398 23.2963 8.34591 23.3324 7.89051 23.3914C7.33539 23.459 6.78573 23.5656 6.24557 23.7105C5.7048 23.8562 5.1756 24.042 4.66232 24.2663C4.66486 24.2919 4.66486 24.3178 4.66232 24.3435C4.66232 24.4155 4.63662 24.4824 4.62634 24.5493V24.6111C4.62634 24.8478 4.58007 25.0794 4.54923 25.3162V25.2801C4.37446 26.5565 4.138 27.8174 3.87584 29.0731C3.74219 29.701 3.6291 30.334 3.50573 30.967C3.44404 31.2655 3.3875 31.5692 3.32581 31.8728C3.26413 32.1764 3.18702 32.5264 3.12534 32.8506C2.99683 33.4837 2.89402 34.1167 2.79121 34.7548C2.6884 35.393 2.59073 36.0775 2.50849 36.7465C2.42624 37.4156 2.34913 38.0331 2.29773 38.6816C2.24632 39.3301 2.21034 39.9837 2.20006 40.6373C2.20006 41.6666 2.20006 42.6959 2.26175 43.7509C2.32343 44.8059 2.41596 45.861 2.54447 46.9109C2.79601 49.0956 3.26791 51.2493 3.95294 53.3388C4.30702 54.3745 4.72947 55.3854 5.21749 56.365C5.67682 57.279 6.21883 58.1489 6.83672 58.9639C7.46421 59.7727 8.15154 60.5331 8.89289 61.2387C9.69001 62.0103 10.5497 62.7143 11.4631 63.3436C11.8383 63.6009 12.229 63.8583 12.6248 64.0693C13.0117 64.2904 13.4098 64.4914 13.8174 64.6714C14.2084 64.8476 14.6123 64.9938 15.0254 65.1089C15.4022 65.2066 15.7852 65.2788 16.1717 65.325H16.1923C16.2081 65.3297 16.2248 65.3311 16.2412 65.3292C16.2576 65.3273 16.2735 65.3221 16.2879 65.314C16.3023 65.3058 16.3149 65.2948 16.325 65.2817C16.335 65.2686 16.3423 65.2535 16.3465 65.2375C16.3544 65.2061 16.3496 65.1729 16.3333 65.145C16.3169 65.1171 16.2903 65.0967 16.2591 65.0883C16.085 65.053 15.9133 65.0066 15.7451 64.9493C15.56 64.8876 15.3801 64.8155 15.231 64.7383C14.721 64.5242 14.2249 64.2784 13.7454 64.0024C13.4833 63.8531 13.2314 63.6936 12.9847 63.5289C12.7379 63.3642 12.4706 63.1789 12.2393 63.0142C11.5196 62.456 10.8331 61.8563 10.1831 61.2181C8.35612 59.4184 6.91792 57.262 5.95771 54.8828C5.41947 53.5539 4.97627 52.1883 4.63148 50.7965C4.26809 49.3728 3.98662 47.9294 3.78845 46.4734C3.52133 44.4056 3.41306 42.3203 3.4646 40.2359C3.49545 38.9389 3.57769 37.6369 3.70106 36.3502C3.82443 35.0636 3.99407 33.777 4.12772 32.511C4.19454 31.8522 4.27679 31.1883 4.3539 30.5244C4.38988 30.195 4.431 29.8657 4.46698 29.5311C4.50297 29.1966 4.52867 28.8158 4.55951 28.4607C4.61606 27.7968 4.6726 27.1277 4.71373 26.4638C4.75485 25.7999 4.79083 25.136 4.8371 24.4773L4.89878 24.4464C5.59644 24.1601 6.32678 23.9613 7.07318 23.8546C7.80812 23.7646 8.54989 23.7439 9.2887 23.7928C9.29123 23.8133 9.29123 23.834 9.2887 23.8546V27.4931C9.2887 27.7556 9.2887 28.0078 9.2887 28.2805V28.471C9.2887 28.9033 9.2887 29.3356 9.2887 29.7679C9.2887 30.9053 9.2887 32.1044 9.31954 33.0668V33.1285V34.0034C9.31954 35.3261 9.35038 36.7156 9.35038 38.1206V38.7897C9.35038 39.3043 9.35038 39.7881 9.35038 40.2873C9.35038 41.0284 9.35039 41.7695 9.37609 42.5055C9.37609 42.7422 9.37609 42.9738 9.37609 43.2105C9.37609 43.7252 9.37609 44.209 9.37609 44.7082C9.37609 46.2881 9.37609 47.8681 9.35038 49.4481C9.35038 49.5716 9.35038 49.7003 9.35038 49.8289C9.35038 50.0554 9.35038 50.287 9.35038 50.5134C9.35038 51.0281 9.35038 51.5427 9.35038 52.0316C9.35038 52.5205 9.35038 52.9992 9.35038 53.4881V54.435C9.35038 54.5637 9.35038 54.6924 9.35038 54.8159V55.1916C9.3404 55.2391 9.3404 55.2882 9.35038 55.3357V56.365C9.35038 56.7098 9.35038 57.0546 9.35038 57.3943C9.35038 57.5384 9.35038 57.6825 9.35038 57.8266V57.9398C9.3478 57.9551 9.3478 57.9708 9.35038 57.9861C9.34782 58.0204 9.34782 58.0548 9.35038 58.089C9.3481 58.1233 9.3481 58.1577 9.35038 58.192V58.2949C9.34747 58.3085 9.34747 58.3225 9.35038 58.3361C9.34973 58.3481 9.34973 58.3601 9.35038 58.3721C9.34784 58.3978 9.34784 58.4236 9.35038 58.4493V58.4184C9.35292 58.48 9.37448 58.5394 9.41207 58.5883C9.42928 58.6058 9.4503 58.619 9.47348 58.6271C9.49667 58.6351 9.52139 58.6377 9.54572 58.6346H9.5817H9.69993H9.82844C9.87266 58.6423 9.91788 58.6423 9.9621 58.6346H10.6355C10.7537 58.6346 10.8719 58.6346 10.9953 58.6346C11.1187 58.6346 11.2318 58.6346 11.35 58.6346H11.8126C11.8982 58.6397 11.9841 58.6397 12.0697 58.6346H12.1005H12.3472C12.4038 58.6348 12.4585 58.6147 12.5015 58.578C12.5179 58.5632 12.5318 58.5458 12.5426 58.5265H12.5889C12.6059 58.5173 12.6205 58.504 12.6312 58.4879C12.642 58.4717 12.6486 58.4532 12.6505 58.4339C12.6505 58.3721 12.6505 58.3052 12.6505 58.2434C12.6505 58.1817 12.6505 58.0942 12.6505 58.017C12.6505 57.9398 12.6505 57.9141 12.6505 57.8574C12.6651 57.8231 12.6737 57.7866 12.6762 57.7494V57.6104C12.6814 57.5316 12.6814 57.4525 12.6762 57.3737V57.1524C12.6762 56.9259 12.6762 56.6892 12.6762 56.4524C12.6762 55.979 12.6762 55.5004 12.6762 55.032V54.7798C12.6762 54.6615 12.6762 54.5431 12.6762 54.4247C12.6762 53.3646 12.6762 52.2838 12.6762 51.3368V48.3725C12.6762 47.6468 12.6762 46.9263 12.6762 46.3139C12.6762 46.036 12.6762 45.758 12.6762 45.4801V45.161V44.3325C12.6762 43.9259 12.6762 43.5245 12.6762 43.1179V42.0886C12.6762 40.6424 12.7122 39.3867 12.7122 38.2596C12.7122 37.4979 12.7122 36.7156 12.7122 35.9746V35.3981C12.7122 34.7754 12.7122 34.1527 12.7122 33.53V33.1697C12.7122 31.8831 12.7122 30.4266 12.7122 28.9908C12.7122 28.4761 12.7122 27.9615 12.7122 27.4468C12.7122 26.4175 12.7122 25.4397 12.7122 24.4361H12.7739L13.4936 24.642L15.0974 25.1566C15.3698 25.2441 15.6371 25.3368 15.9147 25.4191C16.1923 25.5014 16.5624 25.6044 16.8914 25.6816C17.5238 25.8275 18.1639 25.9375 18.8088 26.0109C19.4762 26.0826 20.1476 26.1101 20.8187 26.0933H21.1836C21.1477 26.2322 21.1065 26.366 21.0654 26.4999V26.5719L20.9369 27.0248V27.1123C20.8906 27.2667 20.8444 27.4262 20.8032 27.5858C20.8032 27.6784 20.757 27.7659 20.7364 27.8585L20.5822 28.6717C20.5822 28.754 20.5822 28.8364 20.5822 28.9187C20.5845 28.9427 20.5845 28.9668 20.5822 28.9908C20.4374 29.0328 20.295 29.0826 20.1556 29.14C19.8448 29.2698 19.5541 29.4431 19.292 29.6547C19.0516 29.8174 18.8338 30.0112 18.6443 30.2311C18.4641 30.436 18.3024 30.6564 18.1611 30.8898C18.0323 31.1144 17.9288 31.3526 17.8526 31.6C17.7961 31.811 17.755 32.0272 17.7087 32.2433C17.659 32.4793 17.6247 32.7183 17.6059 32.9587C17.5863 33.294 17.663 33.628 17.8269 33.9211C17.9349 34.1218 18.0634 34.3071 18.1868 34.4975C18.3093 34.7163 18.4521 34.9231 18.6134 35.1151C18.8156 35.3251 19.052 35.4991 19.3125 35.6297C19.5451 35.7537 19.7897 35.8537 20.0425 35.9282C20.1518 35.9635 20.2634 35.9911 20.3766 36.0106C20.546 36.045 20.7179 36.0656 20.8906 36.0723C21.1014 36.0723 21.3173 36.0723 21.528 36.0723C21.8193 36.0586 22.1077 36.0085 22.3865 35.9231L22.9005 35.743C23.1322 35.6668 23.3574 35.5722 23.5739 35.4599C23.801 35.338 24.0161 35.195 24.2165 35.0327C24.3901 34.9034 24.5503 34.7568 24.6945 34.5953C24.7819 34.4872 24.8745 34.3791 24.9516 34.2659C25.0352 34.1422 25.1042 34.0093 25.1572 33.8696C25.1572 33.8079 25.1983 33.741 25.2137 33.6741L25.26 33.5917C25.3324 33.4352 25.3875 33.2713 25.4245 33.1028C25.4585 32.9333 25.4774 32.761 25.481 32.5882C25.4763 32.2456 25.4138 31.9063 25.296 31.5846C25.2435 31.4442 25.1834 31.3068 25.1161 31.1729C25.0816 31.0454 25.0315 30.9227 24.967 30.8075C24.7233 30.3929 24.398 30.0322 24.0109 29.7473C23.6676 29.4643 23.2756 29.2463 22.8543 29.104C22.8019 29.0798 22.7466 29.0625 22.6898 29.0525C22.3314 28.948 21.9624 28.8841 21.5897 28.8621C21.5897 28.8312 21.5897 28.8003 21.5897 28.7695C21.6411 28.1467 21.7028 27.524 21.7953 26.9064L21.8416 26.7057C21.8827 26.5462 21.9239 26.3866 21.9753 26.2322C21.9753 26.1653 22.0215 26.1036 22.0472 26.0418C22.8984 25.9824 23.746 25.8793 24.5866 25.733C25.26 25.6198 25.9282 25.4706 26.5965 25.3059C26.9358 25.2235 27.275 25.1309 27.6246 25.0383C27.9741 24.9456 28.3494 24.8118 28.7144 24.6986C29.3363 24.503 29.9481 24.2714 30.57 24.0707C31.1829 23.8802 31.8105 23.7408 32.4463 23.6538C32.8418 23.6017 33.24 23.5725 33.6389 23.5664C33.9822 23.5629 34.3254 23.5784 34.667 23.6127C34.6789 23.6458 34.6983 23.6757 34.7235 23.7002C34.9809 24.6558 35.1766 25.6271 35.3095 26.6079C35.474 27.5343 35.6025 28.4658 35.7413 29.3973C35.8133 29.8811 35.9007 30.3597 35.9675 30.8384C36.0035 31.0957 36.0446 31.353 36.0857 31.6103C36.121 31.8668 36.1778 32.1199 36.2553 32.3669C36.2612 32.3863 36.2737 32.4031 36.2905 32.4144C36.3074 32.4256 36.3277 32.4307 36.3479 32.4286C36.3596 32.4287 36.3712 32.4263 36.3819 32.4215C36.3926 32.4168 36.4022 32.4098 36.41 32.401C36.4178 32.3922 36.4236 32.3819 36.4271 32.3707C36.4306 32.3595 36.4316 32.3476 36.4301 32.336C36.4335 32.0422 36.4215 31.7484 36.3941 31.4559L36.3325 30.5759C36.3325 30.298 36.2913 30.0149 36.2656 29.737C36.2399 29.4591 36.2091 29.1915 36.1731 28.9187C36.0229 27.804 35.8153 26.6977 35.5511 25.6044C35.3763 24.889 35.1759 24.1788 34.9445 23.4789C34.9482 23.4636 34.9482 23.4478 34.9445 23.4325C34.9385 23.4015 34.9236 23.3729 34.9018 23.35C34.8799 23.3272 34.8519 23.3112 34.8212 23.3039C34.4198 23.1814 34.0019 23.1224 33.5823 23.1289H33.5309C33.1022 23.1342 32.6745 23.1703 32.251 23.237C31.7986 23.2987 31.3462 23.3759 30.899 23.4531L29.5831 23.6538L29.2438 23.7002H29.177L27.7222 23.906C27.2082 23.9781 26.6942 24.081 26.1801 24.1736C25.2291 24.3486 24.273 24.5236 23.3118 24.6574H23.1833L22.7309 24.6883C22.9653 24.2997 23.2246 23.9266 23.5071 23.5715C23.6408 23.4171 23.7744 23.2627 23.9183 23.1186C24.0545 22.9859 24.2006 22.8637 24.3553 22.7532C24.4838 22.6657 24.6226 22.5885 24.7459 22.4907C24.8052 22.4439 24.8534 22.3846 24.8872 22.317C24.9209 22.2494 24.9394 22.1752 24.9413 22.0996C24.9389 22.0182 24.9286 21.9371 24.9104 21.8577C24.8975 21.7841 24.8688 21.7143 24.8261 21.6529C24.7835 21.5916 24.7281 21.5403 24.6637 21.5026C24.592 21.4641 24.5182 21.4297 24.4427 21.3997C24.3586 21.3693 24.2699 21.3537 24.1805 21.3534H24.1497C24.0434 21.3547 23.9385 21.3775 23.8412 21.4203C23.7203 21.482 23.6176 21.5743 23.5431 21.6879L23.4557 21.7805C23.3375 21.9092 23.2295 22.043 23.1216 22.1768C23.0136 22.3106 22.9262 22.4341 22.8337 22.5679L22.7258 22.712C22.6392 22.8304 22.5602 22.9542 22.4893 23.0826C22.3248 23.3605 22.1603 23.6436 22.0164 23.9369C21.8823 24.1969 21.7689 24.4671 21.6771 24.7449C21.6794 24.7706 21.6794 24.7964 21.6771 24.8221C21.4047 24.8221 21.1322 24.853 20.8598 24.8581C20.0012 24.8827 19.1419 24.8414 18.2896 24.7346C17.6791 24.648 17.0747 24.5226 16.4801 24.3589C16.2026 24.2869 15.9301 24.1994 15.6577 24.1222C15.3852 24.045 15.1025 23.9678 14.8198 23.8957C14.2698 23.7568 13.7095 23.6538 13.1543 23.5509L12.9847 23.5252V21.5901C12.9847 20.8027 12.9847 20.0153 12.9847 19.1867C12.9847 18.075 12.9847 17.0354 12.9847 16.0062L18.6391 15.8621C20.8958 15.8106 23.1576 15.7849 25.4193 15.7488C26.5537 15.7488 27.6931 15.7488 28.8377 15.7488C29.9738 15.7488 31.1098 15.7952 32.251 15.7952C32.6108 15.7952 32.9758 15.7952 33.3407 15.7952C33.5258 15.7952 33.716 15.754 33.8959 15.7282L34.1529 15.6768H34.2968C34.2866 15.7173 34.2866 15.7598 34.2968 15.8003C34.6618 17.056 35.0062 18.3169 35.3249 19.583C35.6436 20.849 36.0137 22.1562 36.353 23.4892C36.9918 26.0829 37.4979 28.7076 37.8694 31.353C37.9722 32.1198 38.0596 32.897 38.1316 33.6638C38.2036 34.4306 38.2601 35.3107 38.3218 36.1341C38.4195 37.5031 38.5171 38.8669 38.5891 40.2513L38.512 40.3542L38.6045 40.3285C38.6045 40.5395 38.6045 40.7505 38.6405 40.9666C38.8326 44.152 38.7466 47.3481 38.3835 50.5185C38.2344 51.5787 38.0442 52.6338 37.7975 53.6785C37.6844 54.1623 37.5559 54.6409 37.4068 55.1144C37.2577 55.5879 37.1241 55.9481 36.9544 56.3547C36.449 57.5216 35.8034 58.6225 35.0319 59.633C34.0055 60.9208 32.8246 62.0771 31.5159 63.076C30.9453 63.5134 30.3644 63.9303 29.7681 64.3369C29.1719 64.7435 28.5087 65.15 27.8816 65.5515C27.2545 65.9529 26.5708 66.3028 25.9591 66.7506C25.3511 67.205 24.7835 67.7113 24.2627 68.2637C23.7651 68.8114 23.3338 69.416 22.9776 70.0649C22.6087 70.7414 22.3452 71.4703 22.1963 72.2265C22.114 72.6536 22.0472 73.0756 22.001 73.5079C21.9547 73.9402 21.8467 74.4343 21.7851 74.8975C21.6787 75.8166 21.6238 76.741 21.6206 77.6663C21.6206 78.6081 21.6463 79.5499 21.672 80.4866C21.7028 81.8556 21.708 83.2194 21.708 84.6038C21.708 85.9882 21.708 87.3314 21.708 88.721C21.708 89.4003 21.708 90.0848 21.7542 90.7796C21.8005 91.4743 21.8108 92.0662 21.8313 92.7044C21.8673 93.9344 21.8622 95.1644 21.8827 96.3944C21.9033 97.6244 21.9444 98.8853 22.0678 100.12C22.1689 101.226 22.372 102.32 22.6744 103.388C22.9434 104.322 23.2997 105.229 23.7384 106.096C24.0794 106.779 24.5023 107.419 24.9978 108C25.0441 108.056 25.0955 108.108 25.1418 108.159C25.3263 108.347 25.5257 108.519 25.738 108.674C25.8736 108.779 26.0181 108.872 26.1698 108.952C26.3274 109.025 26.4887 109.091 26.653 109.147C26.6893 109.155 26.7272 109.151 26.7603 109.134C26.7933 109.117 26.8194 109.089 26.8341 109.055C26.8487 109.02 26.8509 108.982 26.8404 108.946C26.8299 108.911 26.8072 108.88 26.7764 108.859L26.7353 108.833L26.4988 108.643C26.2829 108.473 26.067 108.303 25.8666 108.128H26.0876C26.689 108.164 27.2905 108.216 27.8867 108.267L28.6578 108.339H28.8069L29.3209 108.391H29.3929H29.4546H29.5008H29.5934H29.6705H29.7476C29.8658 108.422 29.9943 108.427 30.1125 108.447L30.4261 108.494C30.4723 108.496 30.5187 108.496 30.5649 108.494H30.6266H30.6986H30.8271H30.9042H31.0275L31.8808 108.607H31.922H32.0351H32.0659H32.1584H32.1944H32.2818H32.3178H32.4052H32.4463L32.6519 108.633L32.9809 108.669L33.6389 108.777H33.6954C34.2968 108.875 34.8983 108.988 35.4997 109.111L36.2862 109.286C36.8002 109.41 37.2834 109.544 37.7769 109.698C38.2214 109.833 38.6573 109.995 39.0826 110.182C39.3377 110.3 39.5805 110.443 39.8074 110.609C39.866 110.662 39.921 110.719 39.9719 110.779L40.0079 110.846C40.0079 110.846 40.0079 110.846 40.0079 110.877L40.1209 111.18ZM18.3615 32.7837C18.3585 32.694 18.3743 32.6046 18.4078 32.5213C18.4234 32.4842 18.4441 32.4495 18.4695 32.4183C18.4947 32.3839 18.524 32.3528 18.5569 32.3257H18.5877L18.6186 32.3566C18.6827 32.5074 18.7041 32.673 18.6802 32.8352C18.6802 32.8661 18.6802 32.8918 18.6802 32.9227C18.6941 32.9961 18.7184 33.0671 18.7522 33.1337C18.8045 33.2259 18.8665 33.3121 18.9373 33.391L19.0606 33.4991L19.22 33.6072C19.2825 33.6459 19.341 33.6907 19.3948 33.741C19.4476 33.7861 19.4943 33.838 19.5336 33.8954C19.5558 33.9306 19.5731 33.9687 19.585 34.0086C19.5874 34.0291 19.5874 34.0498 19.585 34.0704C19.5875 34.0909 19.5875 34.1116 19.585 34.1321C19.5902 34.1697 19.5902 34.2078 19.585 34.2453C19.57 34.28 19.5511 34.3129 19.5284 34.3431C19.4975 34.3789 19.4588 34.407 19.4153 34.4255C19.3847 34.4304 19.3534 34.4304 19.3228 34.4255C19.2533 34.426 19.1846 34.4102 19.1223 34.3791C19.0034 34.3187 18.8942 34.2406 18.7985 34.1475C18.6556 34.0242 18.5386 33.8738 18.4541 33.7049C18.3786 33.5435 18.3366 33.3684 18.3307 33.1903C18.3281 33.1492 18.3281 33.1079 18.3307 33.0668C18.3229 32.9863 18.3229 32.9053 18.3307 32.8249C18.3307 32.8249 18.3615 32.8146 18.3615 32.7837Z" fill="white"></path><path d="M28.7092 109.049C28.8171 109.049 28.9097 109.091 28.9971 109.116L29.2284 109.188L29.2952 109.214L29.47 109.271C29.5923 109.307 29.7124 109.35 29.8298 109.399L30.1382 109.549C30.2462 109.6 30.349 109.657 30.4569 109.703L30.5649 109.76C30.6495 109.803 30.7371 109.841 30.8271 109.873C30.952 109.909 31.079 109.939 31.2074 109.96L31.7215 110.037H31.8603L32.1276 110.068L32.2972 110.104L32.472 110.14L32.6365 110.176C32.6857 110.19 32.7338 110.207 32.7804 110.228C32.8289 110.253 32.8753 110.283 32.9192 110.315C32.9469 110.339 32.9712 110.367 32.9912 110.398C33.005 110.417 33.0171 110.438 33.0272 110.459V110.496C33.0272 110.537 33.0272 110.573 33.0683 110.609C33.1137 110.688 33.1793 110.754 33.2585 110.799C33.3663 110.862 33.4821 110.911 33.6029 110.943L33.8188 111L33.9267 111.026C34.0213 111.048 34.1141 111.077 34.2043 111.113C34.1424 111.152 34.077 111.185 34.009 111.211C33.8931 111.25 33.7746 111.281 33.6543 111.304C33.5258 111.334 33.3973 111.35 33.2739 111.37C33.1505 111.391 33.0272 111.412 32.8884 111.437H32.8061L32.508 111.494L32.2407 111.53H32.107L31.8089 111.576H31.7061L31.5159 111.607L31.3205 111.633H31.2743C31.1582 111.646 31.0432 111.667 30.9299 111.695C30.8653 111.709 30.8018 111.728 30.7397 111.751C30.6553 111.772 30.5786 111.817 30.5186 111.88C30.5079 111.892 30.5 111.905 30.4956 111.921C30.4911 111.936 30.4902 111.952 30.4929 111.967C30.5015 111.995 30.5175 112.02 30.5392 112.039C30.5805 112.071 30.6277 112.094 30.678 112.106C30.7463 112.114 30.8153 112.114 30.8836 112.106C31.0275 112.106 31.1817 112.106 31.3976 112.106H34.4819H34.7184H34.8726H35.2632H35.6436C35.803 112.106 35.9366 112.106 36.06 112.065H36.1165L36.4507 112.009L36.6049 111.978L36.8568 111.931C36.9699 111.931 37.0984 111.89 37.2269 111.859L37.3554 111.813H37.4017L37.597 111.741C37.6574 111.721 37.7159 111.695 37.7718 111.664C37.8275 111.64 37.8809 111.61 37.9311 111.576C37.9916 111.533 38.0453 111.481 38.0905 111.422C38.1158 111.384 38.1381 111.345 38.1573 111.304V111.278C38.1582 111.261 38.1582 111.243 38.1573 111.226C38.1809 111.189 38.2015 111.149 38.219 111.108C38.2446 111.039 38.2551 110.965 38.2498 110.892C38.2524 110.854 38.2524 110.816 38.2498 110.779C38.2428 110.722 38.2196 110.668 38.183 110.624C38.139 110.574 38.0869 110.533 38.0288 110.501C37.9208 110.439 37.8129 110.387 37.6792 110.326L37.5147 110.259L37.3554 110.192C37.3006 110.166 37.2474 110.137 37.196 110.104C37.1332 110.065 37.0659 110.034 36.9956 110.012H36.9185H36.8259L36.6409 109.955L36.5586 109.924L36.4661 109.893L36.3736 109.868H36.3016L36.2399 109.826H36.1988L36.0497 109.775H36.0189L35.839 109.718H35.7927L35.6693 109.677H35.5048H35.474H35.3249H35.2632H35.1399L34.9188 109.651H34.8263L34.5487 109.615H34.4048H34.2866L34.1837 109.466L33.9421 109.42H33.973C33.7108 109.374 33.4589 109.338 33.2071 109.312H33.1557C33.0477 109.312 32.9346 109.281 32.8267 109.276H32.7033H32.4566H32.2612H32.0402L31.6495 109.24L31.3 109.193H31.2588L30.8887 109.157C30.714 109.157 30.5238 109.127 30.2976 109.101H30.1434C30.0097 109.101 29.8709 109.075 29.7373 109.055H29.6345L29.506 108.952L29.2695 108.926C29.2114 108.921 29.1529 108.921 29.0947 108.926H28.9714H28.8428H28.7143C28.7029 108.926 28.6915 108.928 28.6809 108.932C28.6703 108.937 28.6607 108.943 28.6525 108.951C28.6444 108.96 28.638 108.969 28.6336 108.98C28.6292 108.99 28.627 109.002 28.627 109.013C28.6361 109.026 28.6486 109.036 28.6631 109.043C28.6776 109.049 28.6935 109.051 28.7092 109.049Z" fill="white"></path><path d="M6.33312 108.719C6.22003 108.719 6.10694 108.719 5.99385 108.745C5.88076 108.771 5.66487 108.786 5.47981 108.817C5.29476 108.848 5.11484 108.889 4.93492 108.935C4.77118 108.979 4.61129 109.036 4.45687 109.105C4.38223 109.14 4.31008 109.179 4.24097 109.224C4.17345 109.268 4.11134 109.319 4.05591 109.378C4.00714 109.433 3.96725 109.496 3.93768 109.563C3.91431 109.615 3.89539 109.668 3.88114 109.723C3.8736 109.781 3.8736 109.84 3.88114 109.898C3.87586 109.93 3.87586 109.963 3.88114 109.996C3.88522 110.045 3.89738 110.094 3.91712 110.14C3.95271 110.238 4.01083 110.326 4.08676 110.397C4.14737 110.457 4.2167 110.507 4.29237 110.546C4.37669 110.594 4.46642 110.632 4.55967 110.659C4.74249 110.718 4.92993 110.761 5.11998 110.788L5.4027 110.824H5.53636H5.72655C5.76482 110.823 5.80165 110.809 5.83137 110.785C5.86109 110.761 5.88205 110.728 5.89104 110.69C5.89886 110.652 5.89407 110.612 5.87738 110.577C5.86069 110.542 5.83302 110.513 5.79852 110.495L5.67515 110.433L5.55692 110.382C5.46439 110.346 5.36672 110.309 5.27419 110.284C5.18167 110.258 4.95035 110.191 4.79614 110.135C4.69859 110.097 4.60407 110.053 4.51341 110.001L4.45173 109.939L4.42088 109.898C4.42088 109.898 4.42088 109.872 4.42088 109.857C4.41834 109.831 4.41834 109.805 4.42088 109.779C4.42088 109.749 4.42088 109.713 4.42088 109.682L4.45173 109.625C4.4923 109.575 4.53701 109.529 4.58538 109.486C4.70574 109.395 4.83489 109.315 4.97091 109.249C5.27501 109.114 5.5943 109.015 5.92189 108.956C6.06468 108.932 6.20896 108.918 6.35368 108.915C6.38186 108.912 6.40805 108.899 6.42708 108.878C6.44611 108.857 6.45661 108.83 6.45649 108.802C6.44839 108.776 6.43174 108.754 6.4093 108.739C6.38686 108.724 6.35998 108.717 6.33312 108.719Z" fill="white"></path><path d="M18.115 112.245C17.8477 112.208 17.5804 112.177 17.3131 112.153C17.0355 112.127 16.758 112.112 16.4804 112.096L15.6785 112.04L14.9331 111.988L13.4321 111.921L12.6713 111.89L11.9157 111.854L11.1138 111.803H11.0881C10.1812 111.737 9.28366 111.576 8.40991 111.324C8.38537 111.324 8.36183 111.334 8.34448 111.351C8.32713 111.369 8.31738 111.392 8.31738 111.417C8.31738 111.441 8.32713 111.465 8.34448 111.482C8.36183 111.5 8.38537 111.51 8.40991 111.51C8.88283 111.654 9.36603 111.777 9.84923 111.89C10.3324 112.004 10.831 112.091 11.3245 112.168C11.818 112.245 12.3218 112.312 12.8255 112.359C13.3293 112.405 13.8536 112.436 14.3677 112.462L15.2672 112.492H16.1771C16.5009 112.492 16.8248 112.539 17.1538 112.554C17.3131 112.554 17.4776 112.554 17.637 112.554C17.7963 112.554 17.9608 112.554 18.1253 112.554C18.163 112.551 18.1985 112.535 18.2253 112.508C18.2521 112.481 18.2685 112.446 18.2716 112.408C18.2747 112.37 18.2643 112.333 18.2422 112.302C18.2201 112.271 18.1878 112.249 18.151 112.24L18.115 112.245Z" fill="white"></path></g><defs><clipPath id="clip0_152_5750"><rect width="41" height="114" fill="white"></rect></clipPath></defs></svg>