<svg xmlns="http://www.w3.org/2000/svg" width="199" height="146" viewBox="0 0 199 146" fill="none"><path d="M100 0L147.631 27.5V82.5L100 110L52.3686 82.5V27.5L100 0Z" fill="#3781C0"></path><path d="M98.333 33.3334L115.654 43.3334V63.3334L98.333 73.3334L81.0125 63.3334V43.3334L98.333 33.3334Z" fill="white"></path><path d="M82.7139 44.0607L132.985 13.4432" stroke="white" stroke-width="1.5"></path><path d="M63.8574 92.9421L114.732 62.6921" stroke="white" stroke-width="1.5"></path><path d="M4.0885 143H1.1985V130.615H4.0885V143ZM17.2898 130.615V143H15.7938C15.5728 143 15.3858 142.966 15.2328 142.898C15.0855 142.824 14.9381 142.7 14.7908 142.524L8.9513 135.137C8.97396 135.358 8.98813 135.574 8.9938 135.783C9.00513 135.987 9.0108 136.18 9.0108 136.361V143H6.4778V130.615H7.9908C8.11546 130.615 8.2203 130.621 8.3053 130.632C8.3903 130.644 8.4668 130.666 8.5348 130.7C8.6028 130.729 8.66796 130.771 8.7303 130.828C8.79263 130.885 8.86346 130.961 8.9428 131.057L14.8333 138.495C14.805 138.257 14.7851 138.027 14.7738 137.806C14.7625 137.58 14.7568 137.367 14.7568 137.169V130.615H17.2898ZM30.9296 136.803C30.9296 137.699 30.7738 138.526 30.4621 139.285C30.1561 140.039 29.7226 140.694 29.1616 141.249C28.6006 141.799 27.9235 142.229 27.1301 142.541C26.3425 142.847 25.467 143 24.5036 143H19.6926V130.615H24.5036C25.467 130.615 26.3425 130.771 27.1301 131.083C27.9235 131.395 28.6006 131.825 29.1616 132.375C29.7226 132.925 30.1561 133.579 30.4621 134.338C30.7738 135.092 30.9296 135.914 30.9296 136.803ZM27.9886 136.803C27.9886 136.191 27.9093 135.639 27.7506 135.146C27.592 134.653 27.3625 134.236 27.0621 133.896C26.7675 133.551 26.4048 133.287 25.9741 133.106C25.5435 132.919 25.0533 132.825 24.5036 132.825H22.5826V140.79H24.5036C25.0533 140.79 25.5435 140.699 25.9741 140.518C26.4048 140.331 26.7675 140.067 27.0621 139.727C27.3625 139.382 27.592 138.962 27.7506 138.469C27.9093 137.976 27.9886 137.421 27.9886 136.803ZM35.5153 143H32.6253V130.615H35.5153V143ZM44.4496 138.265L43.3021 134.874C43.2171 134.659 43.1264 134.406 43.0301 134.117C42.9337 133.823 42.8374 133.505 42.7411 133.165C42.6561 133.511 42.5654 133.831 42.4691 134.126C42.3727 134.421 42.2821 134.676 42.1971 134.891L41.0581 138.265H44.4496ZM49.0141 143H46.7871C46.5377 143 46.3366 142.943 46.1836 142.83C46.0306 142.711 45.9144 142.561 45.8351 142.379L45.1041 140.22H40.3951L39.6641 142.379C39.6017 142.538 39.4884 142.683 39.3241 142.813C39.1654 142.938 38.9671 143 38.7291 143H36.4851L41.2791 130.615H44.2201L49.0141 143ZM59.294 136.582H63.697V141.81C63.0623 142.275 62.3852 142.612 61.6655 142.821C60.9515 143.031 60.2035 143.136 59.4215 143.136C58.4015 143.136 57.4722 142.977 56.6335 142.66C55.8005 142.337 55.0865 141.895 54.4915 141.334C53.8965 140.767 53.4375 140.099 53.1145 139.328C52.7915 138.552 52.63 137.71 52.63 136.803C52.63 135.88 52.783 135.033 53.089 134.262C53.395 133.486 53.8313 132.817 54.398 132.256C54.9703 131.695 55.6588 131.259 56.4635 130.947C57.2738 130.635 58.1777 130.479 59.175 130.479C59.6907 130.479 60.1752 130.522 60.6285 130.607C61.0818 130.692 61.4983 130.808 61.878 130.955C62.2633 131.103 62.6147 131.278 62.932 131.482C63.2493 131.686 63.5327 131.907 63.782 132.145L62.949 133.412C62.8187 133.61 62.6487 133.732 62.439 133.777C62.235 133.823 62.014 133.772 61.776 133.624C61.5493 133.488 61.334 133.372 61.13 133.276C60.9317 133.174 60.7277 133.092 60.518 133.029C60.3083 132.967 60.0873 132.922 59.855 132.893C59.6227 132.865 59.362 132.851 59.073 132.851C58.5347 132.851 58.0502 132.947 57.6195 133.14C57.1888 133.327 56.8205 133.593 56.5145 133.939C56.2142 134.285 55.9818 134.701 55.8175 135.188C55.6532 135.67 55.571 136.208 55.571 136.803C55.571 137.461 55.6617 138.044 55.843 138.554C56.0243 139.064 56.2793 139.495 56.608 139.846C56.9423 140.198 57.339 140.467 57.798 140.654C58.2627 140.835 58.7755 140.926 59.3365 140.926C59.6822 140.926 59.9938 140.892 60.2715 140.824C60.5548 140.756 60.8297 140.665 61.096 140.552V138.673H59.872C59.6907 138.673 59.549 138.625 59.447 138.529C59.345 138.433 59.294 138.311 59.294 138.163V136.582ZM73.0922 140.705V143H65.6292V130.615H68.5022V140.705H73.0922ZM78.8669 138.291V143H75.9939V138.291L71.5059 130.615H74.0389C74.2882 130.615 74.4837 130.675 74.6254 130.794C74.7727 130.907 74.8945 131.055 74.9909 131.236L76.7419 134.84C76.8892 135.123 77.0224 135.39 77.1414 135.639C77.2604 135.883 77.3652 136.123 77.4559 136.361C77.5409 136.118 77.6372 135.874 77.7449 135.63C77.8582 135.381 77.9885 135.118 78.1359 134.84L79.8699 131.236C79.9095 131.162 79.9577 131.089 80.0144 131.015C80.071 130.941 80.1362 130.876 80.2099 130.819C80.2892 130.757 80.377 130.709 80.4734 130.675C80.5754 130.635 80.6859 130.615 80.8049 130.615H83.3549L78.8669 138.291ZM91.8893 139.795C91.9573 139.795 92.0253 139.81 92.0933 139.838C92.1613 139.861 92.2264 139.903 92.2888 139.965L93.4278 141.164C92.9291 141.816 92.3029 142.309 91.5493 142.643C90.8013 142.972 89.9144 143.136 88.8888 143.136C87.9481 143.136 87.1038 142.977 86.3558 142.66C85.6134 142.337 84.9816 141.895 84.4603 141.334C83.9446 140.767 83.5479 140.099 83.2703 139.328C82.9926 138.552 82.8538 137.71 82.8538 136.803C82.8538 135.88 83.0039 135.033 83.3043 134.262C83.6046 133.486 84.0268 132.817 84.5708 132.256C85.1148 131.695 85.7664 131.259 86.5258 130.947C87.2851 130.635 88.1209 130.479 89.0333 130.479C89.4979 130.479 89.9343 130.522 90.3423 130.607C90.7559 130.686 91.1413 130.8 91.4983 130.947C91.8553 131.089 92.1839 131.261 92.4843 131.465C92.7846 131.669 93.0509 131.89 93.2833 132.128L92.3143 133.429C92.2519 133.508 92.1783 133.582 92.0933 133.65C92.0083 133.712 91.8893 133.743 91.7363 133.743C91.6343 133.743 91.5379 133.721 91.4473 133.675C91.3566 133.63 91.2603 133.576 91.1583 133.514C91.0563 133.446 90.9429 133.375 90.8183 133.301C90.6993 133.222 90.5548 133.151 90.3848 133.089C90.2204 133.021 90.0249 132.964 89.7983 132.919C89.5773 132.874 89.3166 132.851 89.0163 132.851C88.5403 132.851 88.1039 132.939 87.7073 133.114C87.3163 133.29 86.9763 133.548 86.6873 133.888C86.4039 134.222 86.1829 134.636 86.0243 135.129C85.8713 135.616 85.7948 136.174 85.7948 136.803C85.7948 137.438 85.8798 138.002 86.0498 138.495C86.2254 138.988 86.4606 139.404 86.7553 139.744C87.0556 140.079 87.4041 140.334 87.8008 140.509C88.1974 140.685 88.6224 140.773 89.0758 140.773C89.3364 140.773 89.5744 140.762 89.7898 140.739C90.0051 140.711 90.2063 140.668 90.3933 140.611C90.5803 140.549 90.7559 140.47 90.9203 140.373C91.0846 140.271 91.2518 140.144 91.4218 139.991C91.4898 139.934 91.5634 139.889 91.6428 139.855C91.7221 139.815 91.8043 139.795 91.8893 139.795ZM106.555 136.803C106.555 137.699 106.399 138.532 106.087 139.302C105.781 140.073 105.348 140.745 104.787 141.317C104.226 141.884 103.549 142.328 102.755 142.651C101.968 142.975 101.092 143.136 100.129 143.136C99.1653 143.136 98.287 142.975 97.4937 142.651C96.7003 142.328 96.0203 141.884 95.4537 141.317C94.8927 140.745 94.4563 140.073 94.1447 139.302C93.8387 138.532 93.6857 137.699 93.6857 136.803C93.6857 135.908 93.8387 135.075 94.1447 134.304C94.4563 133.534 94.8927 132.865 95.4537 132.298C96.0203 131.732 96.7003 131.287 97.4937 130.964C98.287 130.641 99.1653 130.479 100.129 130.479C101.092 130.479 101.968 130.644 102.755 130.972C103.549 131.295 104.226 131.74 104.787 132.307C105.348 132.874 105.781 133.542 106.087 134.313C106.399 135.084 106.555 135.914 106.555 136.803ZM103.614 136.803C103.614 136.191 103.534 135.642 103.376 135.154C103.217 134.661 102.988 134.245 102.687 133.905C102.393 133.565 102.03 133.304 101.599 133.123C101.169 132.942 100.678 132.851 100.129 132.851C99.5733 132.851 99.0775 132.942 98.6412 133.123C98.2105 133.304 97.845 133.565 97.5447 133.905C97.25 134.245 97.0233 134.661 96.8647 135.154C96.706 135.642 96.6267 136.191 96.6267 136.803C96.6267 137.421 96.706 137.976 96.8647 138.469C97.0233 138.957 97.25 139.37 97.5447 139.71C97.845 140.05 98.2105 140.311 98.6412 140.492C99.0775 140.668 99.5733 140.756 100.129 140.756C100.678 140.756 101.169 140.668 101.599 140.492C102.03 140.311 102.393 140.05 102.687 139.71C102.988 139.37 103.217 138.957 103.376 138.469C103.534 137.976 103.614 137.421 103.614 136.803ZM115.708 140.705V143H108.245V130.615H111.118V140.705H115.708ZM124.02 133.131C123.935 133.267 123.844 133.369 123.748 133.438C123.657 133.505 123.538 133.539 123.391 133.539C123.26 133.539 123.119 133.5 122.966 133.42C122.818 133.335 122.648 133.242 122.456 133.14C122.269 133.038 122.053 132.947 121.81 132.868C121.566 132.783 121.288 132.74 120.977 132.74C120.438 132.74 120.036 132.857 119.77 133.089C119.509 133.316 119.379 133.624 119.379 134.015C119.379 134.265 119.458 134.472 119.617 134.636C119.775 134.8 119.982 134.942 120.237 135.061C120.498 135.18 120.792 135.29 121.121 135.392C121.455 135.489 121.795 135.599 122.141 135.724C122.487 135.843 122.824 135.985 123.153 136.149C123.487 136.313 123.782 136.523 124.037 136.778C124.297 137.033 124.507 137.345 124.666 137.713C124.824 138.076 124.904 138.515 124.904 139.03C124.904 139.603 124.804 140.138 124.606 140.637C124.408 141.136 124.119 141.572 123.739 141.946C123.365 142.314 122.9 142.606 122.345 142.821C121.795 143.031 121.169 143.136 120.467 143.136C120.081 143.136 119.687 143.096 119.285 143.017C118.888 142.938 118.503 142.827 118.129 142.685C117.755 142.538 117.404 142.365 117.075 142.167C116.746 141.969 116.46 141.748 116.217 141.504L117.067 140.161C117.135 140.065 117.222 139.985 117.33 139.923C117.443 139.855 117.565 139.821 117.696 139.821C117.866 139.821 118.036 139.875 118.206 139.982C118.381 140.09 118.577 140.209 118.792 140.339C119.013 140.47 119.265 140.589 119.549 140.696C119.832 140.804 120.166 140.858 120.552 140.858C121.073 140.858 121.478 140.745 121.767 140.518C122.056 140.286 122.201 139.92 122.201 139.421C122.201 139.132 122.121 138.897 121.963 138.716C121.804 138.535 121.594 138.384 121.334 138.265C121.079 138.146 120.787 138.042 120.458 137.951C120.129 137.86 119.792 137.761 119.447 137.653C119.101 137.54 118.764 137.404 118.435 137.245C118.106 137.081 117.812 136.869 117.551 136.608C117.296 136.342 117.089 136.013 116.931 135.622C116.772 135.225 116.693 134.738 116.693 134.16C116.693 133.695 116.786 133.242 116.973 132.8C117.16 132.358 117.435 131.964 117.798 131.618C118.16 131.273 118.605 130.998 119.132 130.794C119.659 130.584 120.263 130.479 120.943 130.479C121.322 130.479 121.691 130.511 122.048 130.573C122.41 130.63 122.753 130.717 123.076 130.836C123.399 130.95 123.699 131.089 123.977 131.253C124.26 131.412 124.513 131.593 124.734 131.797L124.02 133.131ZM137.988 140.705V143H130.525V130.615H133.398V140.705H137.988ZM142.346 143H139.456V130.615H142.346V143ZM158.659 130.615V143H156.126V135.877C156.126 135.713 156.128 135.534 156.134 135.341C156.145 135.149 156.162 134.953 156.185 134.755L152.896 141.121C152.794 141.32 152.655 141.47 152.479 141.572C152.309 141.674 152.114 141.725 151.893 141.725H151.502C151.281 141.725 151.082 141.674 150.907 141.572C150.737 141.47 150.601 141.32 150.499 141.121L147.209 134.738C147.226 134.942 147.24 135.143 147.252 135.341C147.263 135.534 147.269 135.713 147.269 135.877V143H144.736V130.615H146.929C147.053 130.615 147.161 130.618 147.252 130.624C147.348 130.63 147.433 130.647 147.507 130.675C147.58 130.703 147.645 130.749 147.702 130.811C147.764 130.868 147.824 130.95 147.881 131.057L151.068 137.339C151.181 137.554 151.289 137.778 151.391 138.01C151.499 138.243 151.601 138.481 151.697 138.724C151.793 138.475 151.893 138.231 151.995 137.993C152.102 137.755 152.216 137.529 152.335 137.313L155.514 131.057C155.57 130.95 155.627 130.868 155.684 130.811C155.746 130.749 155.814 130.703 155.888 130.675C155.961 130.647 156.043 130.63 156.134 130.624C156.23 130.618 156.341 130.615 156.466 130.615H158.659ZM163.945 143H161.055V130.615H163.945V143ZM175.234 132.893H171.749V143H168.876V132.893H165.391V130.615H175.234V132.893ZM179.584 132.825V135.715H183.477V137.84H179.584V140.79H184.667V143H176.694V130.615H184.667V132.825H179.584ZM197.676 136.803C197.676 137.699 197.52 138.526 197.208 139.285C196.902 140.039 196.469 140.694 195.908 141.249C195.347 141.799 194.67 142.229 193.876 142.541C193.089 142.847 192.213 143 191.25 143H186.439V130.615H191.25C192.213 130.615 193.089 130.771 193.876 131.083C194.67 131.395 195.347 131.825 195.908 132.375C196.469 132.925 196.902 133.579 197.208 134.338C197.52 135.092 197.676 135.914 197.676 136.803ZM194.735 136.803C194.735 136.191 194.655 135.639 194.497 135.146C194.338 134.653 194.109 134.236 193.808 133.896C193.514 133.551 193.151 133.287 192.72 133.106C192.29 132.919 191.799 132.825 191.25 132.825H189.329V140.79H191.25C191.799 140.79 192.29 140.699 192.72 140.518C193.151 140.331 193.514 140.067 193.808 139.727C194.109 139.382 194.338 138.962 194.497 138.469C194.655 137.976 194.735 137.421 194.735 136.803Z" fill="#3781C0"></path></svg>