<svg xmlns="http://www.w3.org/2000/svg" width="94" height="48" viewBox="0 0 94 48" fill="none"><path d="M20.4258 31.9979C18.1612 33.4277 16.1318 34.711 14.0996 35.9859C12.2885 37.1198 10.4606 38.226 8.66634 39.382C8.02253 39.7968 7.4487 39.9158 6.70691 39.5894C4.84078 38.7542 2.95598 37.9577 1.05253 37.2C0.29115 36.8985 0.00563461 36.445 0.00563461 35.6374C0.0280282 27.9971 0.0280282 20.3549 0.00563461 12.7109C-0.0226438 12.3707 0.0559937 12.0301 0.230823 11.7356C0.405651 11.4411 0.668158 11.2071 0.982551 11.0654C7.45056 7.49599 13.9074 3.90905 20.353 0.304606C20.9128 -0.0134341 21.3887 -0.137889 22.0325 0.205041C26.0381 2.36771 30.055 4.51379 34.0998 6.60456C35.1943 7.15767 35.2503 7.4923 34.2034 8.20581C28.104 12.3542 22.0577 16.5882 15.9526 20.7338C14.9533 21.4114 14.4943 22.1166 14.553 23.3334C14.6205 24.8082 14.6037 26.2855 14.5027 27.7583C14.4467 28.6737 14.7826 29.2075 15.6223 29.5947C17.1647 30.3137 18.6679 31.1074 20.4258 31.9979Z" fill="white"></path><path d="M28.7345 20.4964C27.2705 19.5146 25.8177 18.5135 24.337 17.5566C23.6624 17.1224 23.6792 16.8099 24.337 16.3564C28.1047 13.7291 31.8612 11.087 35.6065 8.43026C36.144 8.04861 36.5975 8.07904 37.1433 8.37496C39.1438 9.45906 41.1536 10.5266 43.1728 11.5775C43.428 11.6881 43.6421 11.8747 43.785 12.1111C43.928 12.3475 43.9929 12.6221 43.9705 12.8966C43.9295 20.5812 43.8959 28.2667 43.8698 35.9531C43.8825 36.2502 43.803 36.544 43.6419 36.7951C43.4808 37.0462 43.2458 37.2427 42.9684 37.358C36.3437 40.8297 29.7254 44.3125 23.1137 47.8063C22.8966 47.9356 22.647 48.0019 22.3935 47.9975C22.14 47.9931 21.8929 47.9182 21.6805 47.7814C17.6889 45.5967 13.6907 43.4211 9.68599 41.2547C8.56631 40.6435 9.3137 40.3144 9.87074 39.9687C14.7675 36.9432 19.6651 33.9195 24.5637 30.8977C25.9857 30.0182 27.3937 29.1194 28.8073 28.2317C29.02 25.6569 29.1376 23.0767 28.7345 20.4964Z" fill="white"></path><path d="M28.7344 20.5C29.2942 21.2356 29.1179 22.0985 29.0787 22.9033C28.9891 24.6815 29.4202 26.4985 28.7988 28.2353C28.7745 25.6596 28.753 23.0812 28.7344 20.5Z" fill="white"></path><path d="M68.3524 31H65.2924V17.887H68.3524V31ZM77.1823 24.205H81.8443V29.74C81.1723 30.232 80.4553 30.589 79.6933 30.811C78.9373 31.033 78.1453 31.144 77.3173 31.144C76.2373 31.144 75.2533 30.976 74.3653 30.64C73.4833 30.298 72.7273 29.83 72.0973 29.236C71.4673 28.636 70.9813 27.928 70.6393 27.112C70.2973 26.29 70.1263 25.399 70.1263 24.439C70.1263 23.461 70.2883 22.564 70.6123 21.748C70.9363 20.926 71.3983 20.218 71.9983 19.624C72.6043 19.03 73.3333 18.568 74.1853 18.238C75.0433 17.908 76.0003 17.743 77.0563 17.743C77.6023 17.743 78.1153 17.788 78.5953 17.878C79.0753 17.968 79.5163 18.091 79.9183 18.247C80.3263 18.403 80.6983 18.589 81.0343 18.805C81.3703 19.021 81.6703 19.255 81.9343 19.507L81.0523 20.848C80.9143 21.058 80.7343 21.187 80.5123 21.235C80.2963 21.283 80.0623 21.229 79.8103 21.073C79.5703 20.929 79.3423 20.806 79.1263 20.704C78.9163 20.596 78.7003 20.509 78.4783 20.443C78.2563 20.377 78.0223 20.329 77.7763 20.299C77.5303 20.269 77.2543 20.254 76.9483 20.254C76.3783 20.254 75.8653 20.356 75.4093 20.56C74.9533 20.758 74.5633 21.04 74.2393 21.406C73.9213 21.772 73.6753 22.213 73.5013 22.729C73.3273 23.239 73.2403 23.809 73.2403 24.439C73.2403 25.135 73.3363 25.753 73.5283 26.293C73.7203 26.833 73.9903 27.289 74.3383 27.661C74.6923 28.033 75.1123 28.318 75.5983 28.516C76.0903 28.708 76.6333 28.804 77.2273 28.804C77.5933 28.804 77.9233 28.768 78.2173 28.696C78.5173 28.624 78.8083 28.528 79.0903 28.408V26.419H77.7943C77.6023 26.419 77.4523 26.368 77.3443 26.266C77.2363 26.164 77.1823 26.035 77.1823 25.879V24.205ZM91.7921 28.57V31H83.8901V17.887H86.9321V28.57H91.7921Z" fill="white"></path></svg>