<svg xmlns="http://www.w3.org/2000/svg" width="40" height="40" viewBox="0 0 40 40" fill="none"><rect width="40" height="40" fill="white"></rect><path d="M7.56646 28.7256C6.60224 28.7269 5.67788 29.1106 4.99663 29.7931C4.31539 30.4753 3.93302 31.4004 3.93335 32.3645C3.93367 33.3287 4.3167 34.2531 4.99862 34.935C5.6805 35.6169 6.60522 35.9999 7.56945 36.0005C8.53368 36.0008 9.45836 35.6181 10.1409 34.9369C10.8231 34.2557 11.207 33.3313 11.208 32.3671C11.2084 31.4013 10.825 30.4749 10.1419 29.7918C9.459 29.1089 8.53235 28.7253 7.56655 28.7256H7.56646ZM7.57067 33.7892C7.19347 33.7892 6.83181 33.6396 6.565 33.3728C6.29854 33.106 6.14863 32.7443 6.14863 32.3671C6.14863 31.9902 6.29854 31.6283 6.565 31.3618C6.8318 31.095 7.19345 30.9451 7.57067 30.9451C7.94788 30.9451 8.30954 31.095 8.57634 31.3618C8.84281 31.6282 8.99272 31.9902 8.99272 32.3671C8.99175 32.744 8.84184 33.1053 8.57504 33.3718C8.30858 33.6383 7.94756 33.7885 7.5707 33.7892L7.57067 33.7892Z" fill="#7AC638"></path><path d="M37.4763 26.8388V31.9448L35.759 31.9445C35.759 31.936 35.7548 31.9318 35.7548 31.9234C35.7506 31.8687 35.7422 31.8137 35.7337 31.7589C35.7211 31.6702 35.7085 31.5776 35.6917 31.4931C35.679 31.4342 35.6622 31.3749 35.6496 31.316C35.6285 31.2357 35.6117 31.1515 35.5864 31.0754C35.5696 31.0123 35.5485 30.9573 35.5275 30.8983C35.5022 30.8223 35.4728 30.7465 35.443 30.6704C35.422 30.6115 35.3925 30.5564 35.3669 30.4975C35.3332 30.4298 35.2992 30.3583 35.2656 30.2864C35.2361 30.2317 35.2024 30.1766 35.1726 30.1219C35.1348 30.0543 35.0923 29.9911 35.0502 29.9234C35.0166 29.8729 34.9784 29.8221 34.9447 29.7674C34.8984 29.7043 34.8518 29.645 34.8055 29.5819C34.7676 29.5356 34.7252 29.4847 34.6831 29.4384C34.6326 29.3795 34.5817 29.3245 34.527 29.2697C34.4849 29.2234 34.4425 29.1768 34.3962 29.1347C34.3415 29.08 34.2822 29.0292 34.2233 28.9787C34.177 28.9366 34.1304 28.8984 34.0799 28.8605L34.0792 28.8598C34.0203 28.8096 33.9585 28.7633 33.8937 28.7206C33.8432 28.6827 33.7924 28.6445 33.7419 28.6108C33.6742 28.5688 33.6068 28.5305 33.5392 28.4885C33.4845 28.459 33.4336 28.4253 33.3789 28.3997C33.307 28.3619 33.2355 28.3279 33.1636 28.2942C33.1047 28.2689 33.0496 28.2437 32.9949 28.2181C32.9188 28.1886 32.843 28.1592 32.7627 28.1336C32.708 28.1126 32.6488 28.0915 32.5899 28.0747V28.075C32.5079 28.0494 32.425 28.0284 32.3409 28.0119C32.2861 27.995 32.2311 27.9824 32.1722 27.9698C32.0793 27.9529 31.9824 27.9403 31.8853 27.9277C31.839 27.9193 31.7882 27.9108 31.7419 27.9066L31.7416 27.9063C31.4459 27.8726 31.1471 27.8726 30.8512 27.9063C30.8007 27.9105 30.754 27.9189 30.7077 27.9274C30.6106 27.94 30.5135 27.9526 30.4167 27.9694C30.3619 27.9821 30.3069 27.9947 30.2522 28.0115C30.1677 28.0284 30.0835 28.0494 29.999 28.0747C29.9443 28.0915 29.885 28.1126 29.8303 28.1336C29.75 28.1589 29.6742 28.1883 29.5981 28.2181C29.5434 28.2434 29.4842 28.2686 29.4295 28.2942C29.3576 28.3279 29.286 28.3619 29.2141 28.3997C29.1594 28.425 29.1086 28.4587 29.0539 28.4885C28.9862 28.5305 28.9189 28.5688 28.8554 28.6108C28.8007 28.6445 28.7498 28.6827 28.6993 28.7206C28.6346 28.7633 28.5727 28.8096 28.5135 28.8598C28.463 28.8977 28.4163 28.9401 28.37 28.978C28.3111 29.0285 28.2561 29.0794 28.1972 29.1341C28.1551 29.1762 28.1084 29.2228 28.0663 29.2691C28.0116 29.3238 27.9608 29.3788 27.9103 29.4378C27.8682 29.4841 27.83 29.5349 27.7879 29.5854C27.7416 29.6443 27.695 29.7036 27.6529 29.7667C27.615 29.8172 27.5768 29.8723 27.5431 29.9228C27.501 29.9905 27.4628 30.0536 27.4249 30.1213C27.3913 30.176 27.3618 30.231 27.332 30.2857C27.2941 30.3576 27.2601 30.4292 27.2265 30.4969C27.2012 30.5558 27.176 30.6108 27.1504 30.6697C27.1209 30.7458 27.0957 30.8216 27.0701 30.8977C27.049 30.9566 27.028 31.0117 27.0069 31.0748C26.9859 31.1509 26.9649 31.2351 26.9438 31.3154C26.9312 31.3743 26.9143 31.4335 26.9017 31.4925C26.8849 31.577 26.8765 31.6696 26.8638 31.7583C26.8554 31.813 26.8428 31.868 26.8386 31.9228V31.9438L25.1209 31.9445V22.7962H30.1508L28.1593 19.4963V19.4966C28.1454 19.4752 28.1214 19.4623 28.0958 19.4626H25.1209V17.9561H28.2817V17.9564C28.8344 17.9564 29.3475 18.2442 29.6361 18.716L32.6488 23.708V23.7077C32.7006 23.7922 32.7796 23.856 32.8726 23.8893L36.1894 25.0287V25.0284C36.5653 25.1592 36.8913 25.4036 37.1222 25.7281C37.3527 26.0525 37.4764 26.4407 37.4764 26.8389L37.4763 26.8388Z" fill="#3E7232"></path><path d="M11.3227 29.9242C11.3648 29.9887 11.4043 30.0551 11.4428 30.1218C11.4745 30.1765 11.5066 30.2312 11.5361 30.2872C11.5723 30.3565 11.6054 30.4274 11.6381 30.4983C11.6643 30.5556 11.6912 30.6123 11.7151 30.6706C11.7456 30.7444 11.7718 30.8205 11.7996 30.8962C11.8203 30.9548 11.8417 31.0131 11.8598 31.073C11.8838 31.152 11.9019 31.2333 11.9223 31.3142C11.9366 31.3732 11.9531 31.4314 11.9644 31.4913C11.9816 31.5788 11.9926 31.6678 12.0065 31.7562C12.014 31.8122 12.0246 31.8676 12.0302 31.9249C12.0302 31.9304 12.0324 31.9362 12.0327 31.942L24.2744 31.9427V27.2217H0V30.6945C0.00032384 31.0254 0.132106 31.3427 0.365873 31.5768C0.599963 31.8106 0.917264 31.9424 1.24821 31.9427H3.10828C3.10828 31.9369 3.11055 31.931 3.11087 31.9249C3.11637 31.8682 3.12706 31.8135 3.13451 31.7562C3.14681 31.6672 3.15814 31.5781 3.1766 31.4907C3.18825 31.4308 3.20477 31.3725 3.21869 31.3136C3.23844 31.2327 3.25722 31.1517 3.28118 31.0724C3.29931 31.0125 3.32327 30.9542 3.3414 30.8953C3.36763 30.8198 3.39385 30.7437 3.4259 30.6702C3.44954 30.6116 3.47641 30.555 3.50296 30.4977C3.53599 30.4264 3.56869 30.3555 3.60496 30.2866C3.6341 30.2309 3.66615 30.1768 3.69723 30.1224C3.73641 30.0554 3.77559 29.9887 3.818 29.9236C3.85265 29.8705 3.88923 29.819 3.92614 29.7676C3.9705 29.7051 4.01615 29.6436 4.06375 29.5836C4.10358 29.5338 4.14405 29.4859 4.18517 29.4376C4.23535 29.3797 4.28651 29.3233 4.33929 29.2689C4.38138 29.2233 4.42735 29.1786 4.47301 29.1349C4.5287 29.0818 4.58536 29.0303 4.6417 28.9801C4.68897 28.9387 4.73721 28.8985 4.78611 28.859C4.84633 28.8108 4.9085 28.7655 4.97131 28.7201C5.02247 28.6835 5.0733 28.6473 5.12608 28.613C5.19116 28.5709 5.25818 28.5307 5.3252 28.4915C5.37959 28.4598 5.43334 28.4284 5.48839 28.3993C5.55832 28.362 5.6302 28.3293 5.70175 28.296C5.75842 28.2704 5.81346 28.2432 5.87045 28.2196C5.94556 28.1885 6.02262 28.1623 6.1 28.1351C6.15731 28.1153 6.21397 28.093 6.27225 28.0761C6.35417 28.0512 6.43802 28.0318 6.5222 28.0117C6.57822 27.9981 6.63326 27.9822 6.6909 27.9696C6.78544 27.9505 6.88193 27.9385 6.97874 27.9275C7.02698 27.9207 7.07457 27.9113 7.12347 27.9065C7.26981 27.8922 7.41875 27.8841 7.56834 27.8841C7.7176 27.8841 7.86654 27.8922 8.01321 27.9065C8.06243 27.9117 8.1097 27.9207 8.15827 27.9275C8.25476 27.9401 8.35156 27.9525 8.44611 27.9696C8.50309 27.9809 8.55846 27.9971 8.6148 28.0117C8.6993 28.0321 8.78349 28.0515 8.86476 28.0761C8.92336 28.0939 8.98002 28.1153 9.03733 28.1351C9.11439 28.1619 9.19177 28.1882 9.26688 28.2196C9.32484 28.2432 9.38053 28.2701 9.43558 28.2963C9.50745 28.3293 9.57901 28.362 9.64668 28.3989C9.70237 28.4284 9.75644 28.4605 9.81052 28.4922C9.87819 28.531 9.94456 28.5705 10.0096 28.6133C10.0627 28.6476 10.1139 28.6842 10.165 28.7208C10.2279 28.7655 10.2916 28.8111 10.3499 28.8587C10.3991 28.8985 10.4474 28.939 10.495 28.9808C10.5533 29.0306 10.6096 29.0818 10.6637 29.1349C10.7093 29.177 10.754 29.2239 10.7977 29.2696C10.8505 29.325 10.9017 29.3813 10.9518 29.4383C10.9939 29.4859 11.0341 29.5344 11.0739 29.5843C11.1215 29.6442 11.1668 29.7057 11.2115 29.7682C11.2517 29.8194 11.2883 29.8712 11.3229 29.9243L11.3227 29.9242Z" fill="#3E7232"></path><path d="M38.3208 30.6038V31.9426H38.9959C39.1765 31.9471 39.3511 31.8784 39.4803 31.7525C39.6094 31.6265 39.6823 31.4536 39.6823 31.273C39.6823 31.0926 39.6094 30.9197 39.4803 30.7938C39.3511 30.6675 39.1765 30.5992 38.9959 30.6037L38.3208 30.6038Z" fill="#7AC638"></path><path d="M31.2972 28.7256C30.3329 28.7269 29.4086 29.1106 28.7273 29.7931C28.0461 30.4753 27.6637 31.4004 27.6641 32.3645C27.6644 33.3287 28.0474 34.2531 28.7293 34.935C29.4112 35.6169 30.3359 35.9999 31.3002 36.0005C32.2644 36.0008 33.1891 35.6181 33.8716 34.9369C34.5538 34.2557 34.9377 33.3313 34.9387 32.3671C34.9391 31.4013 34.5557 30.4749 33.8726 29.7918C33.1897 29.1089 32.2631 28.7253 31.2973 28.7256H31.2972ZM31.3014 33.7892C30.9242 33.7892 30.5625 33.6396 30.2957 33.3728C30.0292 33.106 29.8793 32.7443 29.8793 32.3671C29.8793 31.9902 30.0292 31.6283 30.2957 31.3618C30.5625 31.095 30.9242 30.9451 31.3014 30.9451C31.6786 30.9451 32.0402 31.095 32.3071 31.3618C32.5735 31.6282 32.7234 31.9902 32.7234 32.3671C32.7225 32.744 32.5726 33.1053 32.3061 33.3718C32.0393 33.6383 31.6783 33.7885 31.3014 33.7892L31.3014 33.7892Z" fill="#7AC638"></path><path d="M12.3645 7.15413L14.4082 8.44435V3.00098H9.86719V8.44435L11.9128 7.1557H11.9132C12.0504 7.06796 12.2263 7.06731 12.3645 7.15408L12.3645 7.15413Z" fill="#7AC638"></path><path d="M1.46352 3.00049C1.07563 3.00081 0.703928 3.15526 0.429331 3.42917C0.155091 3.70341 0.00064652 4.07511 0 4.46303V24.9146C0.000647598 25.3025 0.154767 25.6745 0.429331 25.9488C0.703572 26.223 1.0756 26.3772 1.46352 26.3775H22.8103C23.1982 26.3772 23.5702 26.223 23.8445 25.9488C24.1188 25.6746 24.2728 25.3029 24.2735 24.915V4.46253C24.2728 4.07464 24.1184 3.70294 23.8442 3.42901C23.5699 3.15477 23.1982 3.00032 22.8103 3H15.2511V9.20718C15.2514 9.36097 15.1675 9.50279 15.0328 9.57693C14.8985 9.65107 14.734 9.64622 14.6038 9.5643L12.1369 8.00917L9.66914 9.5643H9.66947C9.53931 9.64622 9.37515 9.65075 9.24046 9.5766C9.10609 9.50246 9.02256 9.36096 9.02256 9.20718V3L1.46352 3.00049ZM7.83514 24.0149H3.00887C2.77574 24.0149 2.58665 23.8261 2.58665 23.593C2.58665 23.3599 2.77574 23.1708 3.00887 23.1708H7.83381C8.06693 23.1708 8.25603 23.3599 8.25603 23.593C8.25603 23.8261 8.06694 24.0149 7.83381 24.0149H7.83514ZM11.6305 20.4456C11.8636 20.4456 12.0523 20.6344 12.0523 20.8675C12.0523 21.1006 11.8636 21.2894 11.6305 21.2894H3.00853C2.77541 21.2894 2.58632 21.1006 2.58632 20.8675C2.58632 20.6344 2.77541 20.4456 3.00853 20.4456H11.6305Z" fill="#7AC638"></path></svg>