<svg xmlns="http://www.w3.org/2000/svg" width="40" height="40" viewBox="0 0 40 40" fill="none"><rect width="40" height="40" fill="white"></rect><path d="M36.8506 18.6268C36.6234 18.1557 36.296 17.7401 35.8913 17.4088C35.0295 16.7754 34.3267 15.9505 33.8383 14.999C33.3498 14.0476 33.0891 12.9957 33.0768 11.9262C33.0768 9.44745 34.0354 6.90653 34.8555 5.21138C35.0342 4.83479 35.1308 4.42454 35.1391 4.00779C35.1473 3.59104 35.067 3.17728 34.9033 2.79391C34.7397 2.41053 34.4965 2.06628 34.1899 1.78393C33.8833 1.50157 33.5202 1.28756 33.1246 1.15605L30.4158 0.255256C29.5469 -0.0351641 28.6144 -0.0786828 27.7222 0.129547C26.83 0.337776 26.0131 0.78958 25.3625 1.43464C24.9268 1.68895 21.9444 3.53482 19.7964 3.53482C17.6483 3.53482 14.6616 1.69323 14.2302 1.43464C13.5797 0.789571 12.763 0.337752 11.8709 0.129518C10.9788 -0.0787158 10.0464 -0.0351865 9.17762 0.255256L6.46811 1.15676C6.07221 1.28773 5.70867 1.50134 5.40156 1.78343C5.09445 2.06552 4.8508 2.40965 4.68674 2.79302C4.52268 3.17639 4.44196 3.59025 4.44993 4.00717C4.4579 4.42409 4.55437 4.83456 4.73296 5.21138C5.54803 6.90438 6.50954 9.44602 6.50954 11.9262C6.5008 12.9936 6.24467 14.0444 5.76127 14.9961C5.27788 15.9477 4.58038 16.7744 3.72359 17.411C3.3102 17.7347 2.97551 18.1479 2.74465 18.6196C2.51379 19.0912 2.39275 19.609 2.39062 20.1341V34.4495C2.39301 35.1652 2.60062 35.8653 2.98882 36.4666C3.37701 37.0678 3.92952 37.5452 4.58081 37.842C6.75313 38.8006 9.91697 39.9993 12.6451 39.9993C14.7193 39.9794 16.7541 39.4299 18.5563 38.4027C19.0611 38.1186 19.4872 37.7133 19.7964 37.2233C20.1058 37.7135 20.5325 38.1188 21.0379 38.4027C22.8402 39.4302 24.8753 39.9801 26.9498 40C29.6779 40 32.8417 38.8256 35.0141 37.8427C35.6651 37.5453 36.2171 37.0674 36.6047 36.4657C36.9922 35.864 37.1991 35.1638 37.2007 34.4481V20.1319C37.2005 19.61 37.0808 19.0952 36.8506 18.6268ZM19.7964 10.0404L15.6732 3.47195C16.8954 4.052 18.4541 4.63991 19.7964 4.63991C21.1386 4.63991 22.673 4.05486 23.9196 3.47481L19.7964 10.0404Z" fill="#3E7232"></path><path d="M19.2462 24.9639H3.49704V30.41H19.2462V24.9639Z" fill="#7AC638"></path><path d="M19.7943 20.3426C19.7592 20.3376 19.7236 20.3376 19.6885 20.3426H16.774C16.5343 20.3426 16.3045 20.2474 16.135 20.078C15.9656 19.9085 15.8704 19.6787 15.8704 19.439C15.8704 19.1993 15.9656 18.9695 16.135 18.8C16.3045 18.6306 16.5343 18.5353 16.774 18.5353H22.8245C22.9484 18.5268 23.0727 18.5438 23.1898 18.5854C23.3068 18.6269 23.4141 18.6921 23.5049 18.7769C23.5957 18.8616 23.668 18.9641 23.7175 19.078C23.767 19.1919 23.7926 19.3148 23.7926 19.439C23.7926 19.5632 23.767 19.6861 23.7175 19.8C23.668 19.9139 23.5957 20.0164 23.5049 20.1011C23.4141 20.1859 23.3068 20.2511 23.1898 20.2926C23.0727 20.3341 22.9484 20.3512 22.8245 20.3426H19.7943Z" fill="#7AC638"></path><path d="M36.1001 30.4107H20.3509V24.9639H36.1051L36.1001 30.4107Z" fill="#7AC638"></path></svg>