<svg xmlns="http://www.w3.org/2000/svg" width="40" height="40" viewBox="0 0 40 40" fill="none"><rect width="40" height="40" fill="white"></rect><g clip-path="url(#clip0_413_1217)"><path d="M34.1229 13.5322L32.0316 11.0006L32.5741 7.76276C32.6132 7.53096 32.5705 7.29279 32.4534 7.08895C32.3363 6.88512 32.1521 6.72828 31.9322 6.64522L28.858 5.49875L27.7115 2.42461C27.6291 2.20409 27.4725 2.01914 27.2686 1.90151C27.0647 1.78387 26.8262 1.74089 26.594 1.77994L23.3562 2.32244L20.8246 0.231118C20.6426 0.0816832 20.4144 0 20.179 0C19.9435 0 19.7154 0.0816832 19.5334 0.231118L17.0018 2.32244L13.7631 1.77994C13.531 1.74094 13.2927 1.78395 13.0889 1.90159C12.8851 2.01924 12.7287 2.20416 12.6464 2.42461L11.5 5.49875L8.42402 6.64522C8.2034 6.7275 8.01834 6.88408 7.90069 7.08804C7.78303 7.292 7.74013 7.53059 7.77936 7.76276L8.32185 11.0006L6.23053 13.5322C6.08068 13.7138 5.99872 13.9419 5.99872 14.1773C5.99872 14.4128 6.08068 14.6408 6.23053 14.8224L8.32185 17.3541L7.77936 20.5919C7.74013 20.824 7.78303 21.0626 7.90069 21.2666C8.01834 21.4706 8.2034 21.6271 8.42402 21.7094L11.4982 22.8559L12.6446 25.93C12.7263 26.1505 12.8821 26.3356 13.0854 26.4537C13.2886 26.5718 13.5266 26.6156 13.7586 26.5774L16.9973 26.0349L19.5289 28.1262C19.7124 28.275 19.9418 28.3555 20.1781 28.3541C20.4134 28.3544 20.6414 28.2725 20.8228 28.1226L23.3544 26.0304L26.5922 26.5729C26.8242 26.6121 27.0627 26.5691 27.2665 26.4515C27.4703 26.3338 27.6267 26.1488 27.7088 25.9282L28.8553 22.8541L31.9294 21.7076C32.15 21.6252 32.3351 21.4686 32.4529 21.2647C32.5706 21.0608 32.6138 20.8223 32.575 20.5901L32.0325 17.3514L34.1238 14.8197C34.2732 14.6384 34.3548 14.4107 34.3546 14.1758C34.3545 13.9409 34.2725 13.7133 34.1229 13.5322ZM20.1781 22.7854C18.4757 22.7854 16.8115 22.2805 15.396 21.3347C13.9805 20.3889 12.8772 19.0446 12.2257 17.4718C11.5742 15.8989 11.4038 14.1682 11.7359 12.4985C12.068 10.8288 12.8878 9.29508 14.0916 8.09128C15.2954 6.88749 16.8291 6.0677 18.4988 5.73557C20.1685 5.40344 21.8992 5.5739 23.4721 6.22539C25.0449 6.87688 26.3892 7.98014 27.335 9.39565C28.2809 10.8112 28.7857 12.4754 28.7857 14.1778C28.7831 16.4598 27.8753 18.6477 26.2617 20.2614C24.648 21.875 22.4602 22.7827 20.1781 22.7854Z" fill="#3E7232"></path><path d="M26.7622 28.6165C27.296 28.6132 27.8194 28.4688 28.2794 28.1978V38.9881C28.2792 39.1851 28.2216 39.3778 28.1136 39.5426C28.0056 39.7073 27.8518 39.837 27.6712 39.9157C27.4906 39.9944 27.2909 40.0187 27.0967 39.9856C26.9025 39.9525 26.7221 39.8635 26.5777 39.7295L20.1781 33.7874L13.7785 39.7286C13.6342 39.863 13.4538 39.9524 13.2595 39.9857C13.0651 40.019 12.8652 39.9948 12.6845 39.916C12.5037 39.8373 12.3499 39.7074 12.2419 39.5424C12.134 39.3773 12.0766 39.1844 12.0768 38.9872V28.1978C12.6868 28.5608 13.4064 28.6938 14.1058 28.5731L16.4258 28.1825L18.2432 29.6843C18.7877 30.1337 19.4717 30.3795 20.1777 30.3795C20.8837 30.3795 21.5676 30.1337 22.1121 29.6843L23.9313 28.1807L26.2559 28.5731C26.4232 28.6007 26.5926 28.6146 26.7622 28.6147V28.6165Z" fill="#7AC638"></path><path d="M20.1781 7.5957C18.8763 7.5957 17.6036 7.98175 16.5212 8.70502C15.4387 9.42829 14.5951 10.4563 14.0969 11.6591C13.5987 12.8618 13.4683 14.1853 13.7223 15.4621C13.9763 16.739 14.6032 17.9118 15.5237 18.8324C16.4443 19.7529 17.6171 20.3798 18.894 20.6338C20.1708 20.8878 21.4943 20.7574 22.697 20.2592C23.8998 19.761 24.9278 18.9173 25.6511 17.8349C26.3743 16.7524 26.7604 15.4798 26.7604 14.178C26.7582 12.4329 26.0641 10.7599 24.8301 9.52599C23.5962 8.29204 21.9232 7.59786 20.1781 7.5957Z" fill="#7AC638"></path><path d="M23.6591 13.671L22.4385 15.0453L22.6067 16.8772C22.6146 16.9643 22.5998 17.0521 22.5638 17.1318C22.5278 17.2116 22.4717 17.2807 22.4011 17.3324C22.3305 17.3841 22.2477 17.4166 22.1608 17.4269C22.0738 17.4371 21.9857 17.4246 21.905 17.3907L20.1808 16.6674L18.4557 17.3907C18.3751 17.4249 18.287 17.4375 18.2 17.4274C18.1131 17.4174 18.0302 17.3849 17.9595 17.3333C17.8888 17.2817 17.8328 17.2126 17.7967 17.1328C17.7607 17.053 17.746 16.9652 17.754 16.8781L17.9177 15.0499L16.6944 13.6719C16.6359 13.6058 16.5958 13.5256 16.5779 13.4392C16.56 13.3527 16.565 13.2632 16.5924 13.1793C16.6198 13.0954 16.6687 13.0201 16.7342 12.961C16.7996 12.9018 16.8794 12.8607 16.9656 12.8419L18.7839 12.4341L19.7459 10.8446C19.791 10.7701 19.8546 10.7085 19.9304 10.6658C20.0063 10.623 20.0919 10.6006 20.179 10.6006C20.2661 10.6006 20.3517 10.623 20.4276 10.6658C20.5034 10.7085 20.567 10.7701 20.6121 10.8446L21.5741 12.4341L23.3924 12.8419C23.4786 12.8606 23.5584 12.9015 23.6239 12.9606C23.6894 13.0197 23.7383 13.0949 23.7657 13.1787C23.7931 13.2625 23.7981 13.3521 23.7802 13.4385C23.7623 13.5248 23.7221 13.605 23.6636 13.671H23.6591Z" fill="white"></path></g><defs><clipPath id="clip0_413_1217"><rect width="28.3553" height="40" fill="white" transform="translate(6)"></rect></clipPath></defs></svg>