<svg xmlns="http://www.w3.org/2000/svg" width="40" height="40" viewBox="0 0 40 40" fill="none"><g clip-path="url(#clip0_413_1256)"><rect width="40" height="40" fill="white"></rect><g clip-path="url(#clip1_413_1256)"><path d="M19.1421 24.7007L26.8213 21.1201L27.2243 21.9856C27.3353 22.2235 27.3984 22.481 27.4099 22.7434C27.4214 23.0057 27.381 23.2677 27.2913 23.5145C27.2015 23.7612 27.0639 23.9879 26.8865 24.1815C26.7092 24.3751 26.4954 24.5318 26.2574 24.6428L22.2031 26.5331C21.965 26.6441 21.7073 26.7071 21.4449 26.7184C21.1824 26.7298 20.9203 26.6894 20.6735 26.5995C20.4267 26.5095 20.2 26.3719 20.0063 26.1943C19.8127 26.0167 19.656 25.8028 19.5451 25.5646L19.1421 24.7007Z" fill="#7AC638"></path><path d="M38.5022 37.001H23.2926C22.7443 35.6888 21.8513 34.5493 20.7083 33.7031L37.1901 25.9705C37.5719 25.791 37.8668 25.4672 38.0098 25.0704C38.1529 24.6735 38.1324 24.236 37.9529 23.8542C37.7735 23.4725 37.4497 23.1776 37.0528 23.0346C36.6559 22.8915 36.2185 22.912 35.8367 23.0914L18.6436 31.1594C17.0957 31.7438 15.3795 31.6923 13.8695 31.0161C12.3594 30.34 11.1781 29.0941 10.5831 27.5503C9.43194 24.5516 10.7726 21.2267 13.5599 19.7808C14.6301 20.4417 15.9124 20.6684 17.1443 20.4146L17.8744 21.9809L25.5536 18.401L18.6293 3.55461C18.5183 3.31654 18.3615 3.10265 18.1679 2.92517C17.9742 2.74769 17.7475 2.61009 17.5007 2.52023C17.2539 2.43037 16.9918 2.39001 16.7294 2.40145C16.4669 2.41289 16.2093 2.47591 15.9713 2.58691L15.1141 2.98843L13.9268 0.450737C13.8397 0.263897 13.6819 0.119327 13.4881 0.0488245C13.2944 -0.0216783 13.0806 -0.0123409 12.8937 0.0747831L11.8997 0.53871C11.8071 0.581791 11.7239 0.642704 11.6549 0.717965C11.5859 0.793225 11.5324 0.881355 11.4975 0.977313C11.4626 1.07327 11.4469 1.17517 11.4514 1.27719C11.4559 1.3792 11.4805 1.47933 11.5237 1.57183L12.708 4.10877L11.9177 4.4772C11.4371 4.70147 11.0652 5.10749 10.8838 5.60595C10.7025 6.10441 10.7266 6.6545 10.9508 7.1352L13.0396 11.6158C12.1988 12.2648 11.5915 13.1694 11.309 14.1933C11.0266 15.2172 11.0842 16.3052 11.4734 17.2935C7.68902 19.6281 5.96264 24.396 7.61157 28.6954C8.38829 30.718 9.82744 32.3407 11.6719 33.4181C10.3469 34.2894 9.31465 35.5391 8.70936 37.0047H1.49931C1.10739 37.0135 0.734468 37.1754 0.460386 37.4557C0.186304 37.736 0.0328369 38.1124 0.0328369 38.5044C0.0328369 38.8964 0.186304 39.2729 0.460386 39.5532C0.734468 39.8335 1.10739 39.9953 1.49931 40.0041H38.4984C38.6982 40.0086 38.8969 39.9731 39.0827 39.8997C39.2686 39.8264 39.4379 39.7166 39.5808 39.5769C39.7237 39.4372 39.8372 39.2704 39.9147 39.0862C39.9922 38.902 40.0321 38.7042 40.0321 38.5044C40.0321 38.3046 39.9922 38.1068 39.9147 37.9226C39.8372 37.7385 39.7237 37.5716 39.5808 37.4319C39.4379 37.2922 39.2686 37.1825 39.0827 37.1091C38.8969 37.0358 38.6982 37.0003 38.4984 37.0047L38.5022 37.001Z" fill="#3E7232"></path><path d="M16.1352 17.5158C17.2398 17.5158 18.1353 16.6203 18.1353 15.5157C18.1353 14.4111 17.2398 13.5156 16.1352 13.5156C15.0306 13.5156 14.1351 14.4111 14.1351 15.5157C14.1351 16.6203 15.0306 17.5158 16.1352 17.5158Z" fill="white"></path></g></g><defs><clipPath id="clip0_413_1256"><rect width="40" height="40" fill="white"></rect></clipPath><clipPath id="clip1_413_1256"><rect width="40.0008" height="40" fill="white"></rect></clipPath></defs></svg>