<svg xmlns="http://www.w3.org/2000/svg" width="40" height="40" viewBox="0 0 40 40" fill="none"><rect width="40" height="40" fill="white"></rect><path d="M30.7037 0.00165085C30.6246 0.0042366 30.5478 0.0286982 30.4818 0.0723171C30.4158 0.115936 30.3632 0.177004 30.3298 0.248733C29.7117 1.28662 28.6287 1.54828 27.6199 2.00236C27.1097 2.23122 26.6046 2.52495 26.308 3.06212C26.0543 3.52129 25.9924 4.10657 26.136 4.85C25.9749 4.91122 25.8102 4.97172 25.6374 5.02857C25.5841 5.04604 25.5348 5.07383 25.4922 5.11037C25.4496 5.14691 25.4147 5.19148 25.3893 5.24153C25.3381 5.34261 25.3292 5.45989 25.3645 5.56756C25.3998 5.67523 25.4764 5.76447 25.5774 5.81566C25.6785 5.86685 25.7958 5.87579 25.9035 5.84051C26.1221 5.76763 26.3306 5.69474 26.5325 5.61311C27.1826 6.1736 27.9049 6.37549 28.5623 6.24211C29.2861 6.09634 29.8881 5.59708 30.348 4.9586C31.2576 3.69549 31.6906 1.82452 31.1323 0.32672C31.1091 0.231414 31.0539 0.146966 30.9759 0.0875222C30.8978 0.0280781 30.8018 -0.00275283 30.7037 0.000193137V0.00165085Z" fill="#7AC638"></path><path d="M12.303 0.00152308C12.2892 0.000794391 12.2753 0.000794391 12.2615 0.00152308C12.1985 0.00520182 12.1372 0.0231464 12.0822 0.0540007C10.658 0.705598 9.67113 2.31345 9.42915 3.82947C9.30744 4.59258 9.37741 5.36007 9.7739 5.96356C10.1449 6.53134 10.8096 6.90306 11.6806 6.94897C11.7054 7.02186 11.7287 7.08891 11.7535 7.16034C11.779 7.24339 11.8293 7.31667 11.8976 7.3704C11.9659 7.42413 12.0489 7.45576 12.1356 7.46106C12.2223 7.46637 12.3086 7.4451 12.3829 7.40009C12.4573 7.35509 12.5161 7.28849 12.5516 7.20918C12.5751 7.15643 12.5877 7.0995 12.5887 7.04177C12.5897 6.98404 12.579 6.9267 12.5574 6.87317C12.529 6.793 12.502 6.71501 12.4758 6.6363C13.0406 6.23251 13.3781 5.79665 13.5129 5.31998C13.6777 4.7369 13.5319 4.18515 13.3402 3.67204C12.9612 2.6582 12.4022 1.726 12.6842 0.580963C12.7085 0.517622 12.7173 0.449418 12.7099 0.381996C12.7026 0.314574 12.6793 0.249872 12.6419 0.193244C12.6046 0.136616 12.5543 0.0896912 12.4953 0.056352C12.4362 0.0230128 12.3701 0.00421806 12.3023 0.00152308H12.303Z" fill="#7AC638"></path><path d="M19.8678 0.461927C17.6972 0.459228 15.5482 0.892989 13.5486 1.73742C13.4443 1.78159 13.3617 1.86542 13.3191 1.97047C13.2765 2.07551 13.2774 2.19317 13.3216 2.29755C13.3658 2.40193 13.4496 2.4845 13.5546 2.52707C13.6597 2.56965 13.7773 2.56876 13.8817 2.52459C15.7767 1.72701 17.8119 1.31616 19.8678 1.31616C21.9238 1.31616 23.959 1.72701 25.8539 2.52459C25.9056 2.54646 25.9611 2.55793 26.0172 2.55836C26.0733 2.55879 26.129 2.54816 26.181 2.52707C26.233 2.50599 26.2804 2.47487 26.3203 2.43549C26.3603 2.39611 26.3922 2.34924 26.414 2.29755C26.4359 2.24586 26.4474 2.19038 26.4478 2.13425C26.4482 2.07813 26.4376 2.02248 26.4165 1.97047C26.3954 1.91845 26.3643 1.8711 26.3249 1.83112C26.2856 1.79113 26.2387 1.75929 26.187 1.73742C24.1874 0.892989 22.0384 0.459228 19.8678 0.461927Z" fill="#7AC638"></path><path d="M8.68571 5.08808C8.57542 5.09204 8.47094 5.13853 8.39417 5.21782C6.88415 6.72332 5.68668 8.5125 4.87063 10.4825C4.05457 12.4524 3.63605 14.5643 3.63912 16.6966C3.63912 16.8098 3.68411 16.9185 3.76421 16.9986C3.84431 17.0787 3.95295 17.1237 4.06623 17.1237C4.1795 17.1237 4.28814 17.0787 4.36824 16.9986C4.44834 16.9185 4.49333 16.8098 4.49333 16.6966C4.49081 14.6766 4.8873 12.6761 5.66003 10.8098C6.43276 8.94352 7.56652 7.24824 8.9962 5.82131C9.05795 5.76132 9.10012 5.68406 9.11719 5.59968C9.13425 5.5153 9.12543 5.42773 9.09186 5.34845C9.05829 5.26918 9.00154 5.2019 8.92907 5.15543C8.85659 5.10897 8.77176 5.0855 8.68571 5.08808Z" fill="#3E7232"></path><path d="M31.0434 5.08789C30.9584 5.08799 30.8755 5.1134 30.805 5.16088C30.7346 5.20837 30.68 5.27577 30.648 5.35448C30.6161 5.43318 30.6084 5.51962 30.6258 5.60274C30.6433 5.68586 30.6851 5.76189 30.746 5.82112C32.1761 7.24779 33.3103 8.94298 34.0833 10.8093C34.8563 12.6756 35.2529 14.6763 35.2503 16.6964C35.2549 16.8067 35.3019 16.911 35.3816 16.9874C35.4612 17.0639 35.5674 17.1066 35.6778 17.1066C35.7882 17.1066 35.8943 17.0639 35.974 16.9874C36.0537 16.911 36.1007 16.8067 36.1053 16.6964C36.108 14.5641 35.6893 12.4522 34.8731 10.4823C34.0569 8.51239 32.8594 6.72321 31.3495 5.21763C31.3096 5.17655 31.2619 5.14389 31.2092 5.12161C31.1565 5.09932 31.0999 5.08785 31.0426 5.08789H31.0434Z" fill="#3E7232"></path><path d="M19.8678 6.61426C19.5981 6.61426 19.3307 6.62665 19.0661 6.64487C19.4074 7.04675 19.5945 7.55707 19.5938 8.08436C19.5938 9.05009 18.9597 9.89046 18.088 10.0953C17.9952 11.0799 17.5379 11.9943 16.8057 12.6591C16.0735 13.3239 15.1193 13.6911 14.1303 13.6885C14.0082 13.7049 13.8929 13.7542 13.7968 13.8313C13.7007 13.9084 13.6275 14.0102 13.5851 14.1258C13.5167 14.2733 13.5083 14.4417 13.5618 14.5952C14.1121 14.7621 14.6077 15.2177 14.709 15.8656C15.0217 16.2687 15.7294 16.413 16.3402 16.0945C16.3518 16.0882 16.3635 16.0823 16.3751 16.077C16.3947 16.0675 16.4149 16.0594 16.4356 16.0529C16.5944 15.9908 16.7619 15.9537 16.932 15.9429C17.1888 15.9238 17.4462 15.9685 17.6816 16.0729C17.917 16.1773 18.1229 16.3382 18.2811 16.5413C18.311 16.5731 18.3356 16.6096 18.354 16.6491C18.3839 16.7032 18.4015 16.7632 18.4057 16.8248C18.4837 17.0937 18.7556 17.3926 19.0573 17.4144C20.1171 17.4341 20.9407 18.3722 20.9407 19.472C20.9407 20.4421 20.3008 21.2861 19.4232 21.4858C19.2585 22.7249 18.3482 23.7307 17.1754 23.9508C17.1616 24.875 16.5391 25.668 15.811 26.0383C15.7473 26.0817 15.673 26.1071 15.596 26.1117C15.519 26.1163 15.4422 26.1 15.3737 26.0645H15.3613C14.5836 25.6374 14.1223 24.8458 13.9656 24.0026C13.8047 23.1665 13.9436 22.3005 14.3577 21.5565C14.4138 21.2423 14.3534 20.9184 14.1878 20.6455C14.0222 20.3726 13.7629 20.1694 13.4583 20.074L13.4313 20.0624C11.9627 19.6367 11.0348 18.1783 11.3686 16.7461C11.3366 15.6389 10.494 14.7687 9.49621 14.7527C8.91622 17.1199 9.16313 19.6143 10.196 21.8219C11.2288 24.0294 12.9854 25.8175 15.1743 26.8893C17.3633 27.9611 19.8529 28.2521 22.23 27.7142C24.6072 27.1763 26.7289 25.8417 28.2431 23.9319C28.8925 22.8692 28.4618 21.4712 27.2081 20.8794C25.9232 20.4939 25.1848 19.1076 25.5135 17.7672C25.5345 17.6035 25.5241 17.4373 25.4829 17.2774C25.4454 17.1191 25.3764 16.97 25.2798 16.839C25.1833 16.708 25.0612 16.5979 24.9211 16.5153C24.7809 16.4326 24.6255 16.3792 24.4642 16.3581C24.3028 16.337 24.1389 16.3487 23.9822 16.3926C23.4995 16.5751 22.9812 16.6437 22.4677 16.593C21.7239 16.5926 21.0103 16.299 20.4816 15.7759C19.9529 15.2528 19.6518 14.5423 19.6435 13.7986C19.6353 13.0549 19.9206 12.3379 20.4375 11.8032C20.9545 11.2684 21.6614 10.9591 22.405 10.9422C22.4217 10.9408 22.4385 10.9408 22.4553 10.9422C22.4693 10.9407 22.4835 10.9407 22.4975 10.9422C23.4319 10.9684 24.2628 11.4961 24.8547 12.2731C26.1025 13.5267 28.0762 13.5318 29.3058 12.2906C28.9517 11.625 28.528 10.9988 28.0419 10.4225C27.1564 9.70898 26.2526 9.42035 25.2614 9.42837C24.2701 9.43639 23.1783 9.76146 22.0187 10.3292L22.0041 10.3416C21.3532 10.6966 20.5333 10.397 20.1652 9.73449C19.7971 9.07196 19.9465 8.21628 20.5734 7.81177L20.6076 7.78844L20.6215 7.77678L20.6477 7.76221H20.655C20.6885 7.74725 20.7238 7.73648 20.7599 7.73014C21.3382 7.5981 21.8851 7.35448 22.37 7.01294L22.4611 6.94662C21.6122 6.73512 20.7405 6.6284 19.8656 6.62883L19.8678 6.61426Z" fill="#7AC638"></path><path d="M17.6951 6.83562C15.8666 7.21596 14.1698 8.06887 12.7737 9.30934C11.3776 10.5498 10.331 12.1345 9.73817 13.9055C11.1128 14.0513 12.182 15.2656 12.2221 16.7196C12.2258 16.7521 12.2258 16.7848 12.2221 16.8173C12.2201 16.8598 12.2118 16.9019 12.1973 16.9419C11.9787 17.9135 12.6179 18.9448 13.6929 19.2422L13.7294 19.2546C14.2385 19.414 14.6702 19.7567 14.941 20.2163C15.2118 20.6759 15.3024 21.2196 15.1951 21.7422C15.1903 21.7805 15.1803 21.8181 15.1652 21.8537C15.1528 21.887 15.1362 21.9186 15.1157 21.9477C14.7974 22.5204 14.6896 23.1865 14.811 23.8303C14.9152 24.3894 15.1835 24.8748 15.5851 25.1765C16.0377 24.8609 16.4218 24.229 16.2993 23.6503C16.2855 23.5886 16.2856 23.5246 16.2995 23.4629C16.3133 23.4012 16.3407 23.3433 16.3796 23.2934C16.4184 23.2435 16.4679 23.2029 16.5243 23.1744C16.5808 23.1458 16.6428 23.1302 16.706 23.1285C16.7271 23.127 16.7483 23.127 16.7694 23.1285C17.7643 23.0884 18.5916 22.2035 18.6018 21.0877C18.6014 21.0317 18.6121 20.9761 18.6331 20.9243C18.6542 20.8724 18.6853 20.8252 18.7246 20.7853C18.7639 20.7454 18.8107 20.7137 18.8623 20.6919C18.9139 20.6702 18.9693 20.6587 19.0253 20.6584C19.0425 20.6569 19.0598 20.6569 19.077 20.6584C19.6258 20.6307 20.0916 20.1278 20.0916 19.4572C20.0916 18.7677 19.5996 18.2539 19.0304 18.2524H19.0245C18.9923 18.2519 18.9603 18.2478 18.929 18.24C18.2199 18.1577 17.7286 17.6052 17.5777 17.009C17.4706 16.8989 17.3327 16.8237 17.1821 16.7933C17.0315 16.7629 16.8752 16.7786 16.7337 16.8384C15.7651 17.3435 14.5588 17.1489 13.9787 16.3013C13.9317 16.2481 13.8988 16.1839 13.8832 16.1147C13.8747 16.0823 13.8698 16.049 13.8686 16.0156C13.83 15.7014 13.4976 15.4252 13.2228 15.3749C13.1619 15.3648 13.1038 15.3417 13.0526 15.3071C13.0014 15.2725 12.9583 15.2273 12.9262 15.1745C12.6048 14.7692 12.6106 14.2269 12.7986 13.7787C12.8986 13.5339 13.0595 13.3186 13.266 13.1534C13.4725 12.9882 13.7178 12.8786 13.9787 12.8348C14.0083 12.8276 14.0386 12.8237 14.069 12.8232H14.0778H14.1288C14.5394 12.8276 14.9468 12.7501 15.3271 12.5952C15.7074 12.4403 16.053 12.211 16.3436 11.9208C16.6341 11.6306 16.8639 11.2854 17.0194 10.9053C17.1749 10.5252 17.2529 10.1179 17.249 9.70731C17.2476 9.65119 17.2572 9.59534 17.2774 9.54296C17.2976 9.49058 17.3279 9.4427 17.3667 9.40206C17.4054 9.36143 17.4518 9.32885 17.5031 9.30619C17.5545 9.28352 17.6098 9.27122 17.6659 9.27C17.6851 9.26854 17.7043 9.26854 17.7235 9.27C18.2731 9.2423 18.7388 8.73939 18.7388 8.06884C18.7388 7.39829 18.2359 6.83635 17.6907 6.82031L17.6951 6.83562Z" fill="#3E7232"></path><path d="M23.4523 7.229C23.2681 7.39653 23.0733 7.5521 22.8692 7.69474C22.3084 8.09069 21.6771 8.37592 21.0092 8.53511C20.8233 8.68088 20.7497 9.01032 20.9137 9.30478C21.0857 9.61308 21.3824 9.69617 21.5974 9.57883L21.6244 9.56279C21.6438 9.55186 21.664 9.54235 21.6849 9.53437C22.9028 8.94254 24.0901 8.57446 25.2562 8.56499C25.5454 8.56365 25.8342 8.5851 26.1199 8.62913C25.3017 8.03776 24.4035 7.56583 23.4523 7.22754V7.229Z" fill="#3E7232"></path><path d="M22.5179 11.7891H22.4844C21.9613 11.7891 21.4597 11.9969 21.0898 12.3667C20.7199 12.7366 20.5121 13.2383 20.5121 13.7613C20.5121 14.2844 20.7199 14.7861 21.0898 15.156C21.4597 15.5258 21.9613 15.7336 22.4844 15.7336H22.5362C22.9335 15.7744 23.3348 15.7207 23.7074 15.5769H23.7198C23.7418 15.5683 23.7644 15.5617 23.7876 15.5572C24.0461 15.4899 24.3154 15.4746 24.5799 15.5121C24.989 15.5701 25.3718 15.748 25.6799 16.0234C25.988 16.2988 26.2076 16.6593 26.3109 17.0594C26.3786 17.321 26.3964 17.593 26.3634 17.8612C26.3618 17.8793 26.3591 17.8973 26.3554 17.9151C26.3521 17.9376 26.347 17.9598 26.3401 17.9814C26.1214 18.9056 26.6316 19.8203 27.4632 20.0645C27.4793 20.0689 27.496 20.074 27.5113 20.0798C27.5416 20.09 27.5707 20.1035 27.5981 20.1199C28.0307 20.3248 28.4109 20.6258 28.7096 21C29.0083 21.3741 29.2177 21.8115 29.3218 22.2788C30.061 20.8713 30.4777 19.3171 30.5417 17.7287C30.6057 16.1403 30.3155 14.5575 29.6921 13.0952C28.9221 13.7573 27.9288 14.1012 26.9142 14.0569C25.8997 14.0126 24.9401 13.5835 24.2308 12.8568L24.222 12.8452C24.2084 12.83 24.1957 12.8139 24.1841 12.7971C23.722 12.1863 23.1346 11.8292 22.5201 11.7964L22.5179 11.7891Z" fill="#3E7232"></path><path d="M3.92629 18.9963C3.75774 18.9922 3.59179 19.0384 3.44961 19.129L3.42921 19.1428C3.0604 19.3615 2.90589 19.8928 3.05822 20.2893C3.0636 20.3037 3.06822 20.3183 3.07207 20.3331C3.8223 23.1795 4.57229 26.0252 5.32204 28.8702C5.37013 29.0209 5.45771 29.1561 5.57569 29.2616L5.59318 29.2783H5.59901L5.60994 29.29L5.63472 29.314L9.37084 33.0312C9.40436 33.064 9.4357 33.099 9.46559 33.134C9.48304 33.1493 9.49891 33.1664 9.51296 33.185C9.56198 33.2472 9.60632 33.313 9.64562 33.3818C9.65509 33.3956 9.66165 33.4109 9.66967 33.4255C9.70417 33.4873 9.73508 33.5511 9.76223 33.6165C9.76856 33.6324 9.77391 33.6487 9.77827 33.6653C9.79576 33.7141 9.81179 33.7659 9.82564 33.8169L10.2214 35.3213L10.3103 35.6587L14.8103 33.0611L14.6645 32.4984L14.2687 30.994C14.2563 30.9476 14.2403 30.9023 14.2206 30.8585C14.2126 30.8424 14.2053 30.8249 14.1973 30.8089C14.1893 30.7929 14.1798 30.7761 14.1704 30.7608C14.1665 30.7514 14.1613 30.7426 14.155 30.7346C14.1413 30.7129 14.1265 30.692 14.1106 30.6719C14.1041 30.6649 14.0983 30.6573 14.0931 30.6493C14.0734 30.626 14.0515 30.6019 14.0297 30.5764L8.68717 25.2798C8.5996 25.1937 8.49583 25.1257 8.38186 25.0798C8.26789 25.034 8.14597 25.0111 8.02312 25.0126C7.90028 25.0141 7.77895 25.0399 7.66612 25.0885C7.5533 25.1371 7.45121 25.2076 7.36576 25.2958C7.27715 25.3788 7.20626 25.4789 7.15738 25.59C7.10849 25.7011 7.08262 25.8209 7.08133 25.9423C7.08004 26.0637 7.10334 26.1841 7.14985 26.2962C7.19635 26.4083 7.26509 26.5098 7.35191 26.5947L10.0232 29.2426L10.6908 29.9051C10.7682 29.9855 10.811 30.093 10.8102 30.2045C10.8094 30.3161 10.765 30.4229 10.6864 30.5021C10.6079 30.5813 10.5014 30.6267 10.3899 30.6284C10.2783 30.6302 10.1705 30.5882 10.0895 30.5115L9.42113 29.8497L6.74841 27.2033C6.51331 26.9676 6.34984 26.6701 6.27695 26.3452C6.20407 26.0204 6.22475 25.6816 6.33661 25.368C6.33661 25.3607 6.33224 25.3527 6.33078 25.3454C5.82058 23.4125 5.32204 21.4781 4.80018 19.5554C4.68648 19.2208 4.30238 19.0029 3.9292 18.9963H3.92629Z" fill="#7AC638"></path><path d="M35.8108 18.9965C35.4376 18.9965 35.0543 19.221 34.9362 19.5541C34.4129 21.4775 33.9158 23.4126 33.4056 25.3455C33.4056 25.3536 33.4056 25.3616 33.3998 25.3696C33.5115 25.6831 33.532 26.0219 33.459 26.3466C33.386 26.6713 33.2224 26.9686 32.9872 27.2041L30.316 29.8521L29.6483 30.5139C29.6088 30.5552 29.5614 30.5882 29.509 30.6109C29.4566 30.6337 29.4001 30.6458 29.3429 30.6465C29.2573 30.6465 29.1736 30.6207 29.1028 30.5724C29.0319 30.5242 28.9773 30.4558 28.9458 30.3761C28.9144 30.2964 28.9076 30.2091 28.9265 30.1255C28.9453 30.042 28.9888 29.966 29.0514 29.9074L29.7198 29.2449L32.391 26.5977C32.4777 26.5127 32.5463 26.4111 32.5926 26.2989C32.639 26.1867 32.6623 26.0664 32.661 25.945C32.6597 25.8236 32.6339 25.7037 32.5851 25.5926C32.5363 25.4814 32.4656 25.3813 32.3772 25.2982C32.2916 25.2101 32.1894 25.1399 32.0766 25.0914C31.9637 25.043 31.8424 25.0173 31.7196 25.0159C31.5969 25.0145 31.475 25.0373 31.3611 25.0831C31.2471 25.129 31.1434 25.1968 31.0558 25.2829L25.7132 30.5787C25.6843 30.6081 25.6573 30.6392 25.6323 30.672C25.617 30.6917 25.6017 30.7143 25.5872 30.7354L25.566 30.7711C25.5587 30.7828 25.5522 30.7945 25.5456 30.8076C25.539 30.8207 25.5252 30.8499 25.5157 30.871C25.4985 30.9112 25.4841 30.9526 25.4727 30.9949L25.0762 32.5L24.9305 33.0627L29.4304 35.6603L29.5193 35.3236L29.9158 33.8185C29.9282 33.7697 29.9442 33.7201 29.961 33.6727C29.966 33.6539 29.9721 33.6354 29.9792 33.6173C30.0081 33.5458 30.042 33.4764 30.0805 33.4096C30.0805 33.4096 30.0805 33.3972 30.0864 33.3972C30.0929 33.3855 30.1002 33.3753 30.1068 33.3637C30.1437 33.3014 30.1846 33.2415 30.2292 33.1844C30.243 33.1658 30.2583 33.1485 30.2751 33.1326C30.3058 33.0976 30.3371 33.0597 30.3706 33.0299L34.1067 29.3127C34.1162 29.3032 34.125 29.2945 34.1352 29.2857C34.1445 29.2756 34.1547 29.2663 34.1658 29.258C34.2844 29.1515 34.3727 29.0155 34.4216 28.8637C35.1743 26.0197 35.924 23.174 36.6709 20.3266C36.6747 20.3118 36.6796 20.2971 36.6854 20.2829C36.837 19.8864 36.6854 19.3573 36.3137 19.1371L36.2933 19.1233C36.1522 19.0316 35.9863 18.9853 35.8181 18.9906L35.8108 18.9965Z" fill="#7AC638"></path><path d="M18.7869 29.6299C17.8467 29.6299 17.0945 30.428 17.0945 31.3791C17.0945 32.4382 17.7906 33.2319 18.4269 33.7501C18.8169 34.067 19.2434 34.3361 19.6973 34.5518C19.7521 34.5763 19.8114 34.589 19.8715 34.589C19.9315 34.589 19.9908 34.5763 20.0456 34.5518C20.4995 34.3361 20.926 34.067 21.316 33.7501C21.9523 33.2319 22.6484 32.4382 22.6484 31.3791C22.6484 30.4316 21.8962 29.6299 20.956 29.6299C20.5362 29.6299 20.1754 29.834 19.8722 30.1117C19.5682 29.8347 19.2075 29.6299 18.7876 29.6299H18.7869Z" fill="#7AC638"></path><path d="M15.8962 33.4249L9.93568 36.8662L11.7451 40.0002L17.7056 36.5589L15.8962 33.4249Z" fill="#3E7232"></path><path d="M23.841 33.423L22.0313 36.5576L27.9911 39.9985L29.8009 36.864L23.841 33.423Z" fill="#3E7232"></path></svg>