<svg xmlns="http://www.w3.org/2000/svg" width="40" height="40" viewBox="0 0 40 40" fill="none"><g clip-path="url(#clip0_413_1224)"><rect width="40" height="40" fill="white"></rect><path d="M27.741 19.4043C26.9531 18.7032 26.5997 18.1466 25.783 18.0005C25.0241 17.8774 25.2478 18.2177 23.3881 17.3869C22.6144 17.0467 22.1164 17.3142 21.1048 17.3869C19.3343 17.5165 18.3226 15.6593 17.7305 15.1316C17.2607 14.7129 16.292 13.5998 16.8486 12.5815C17.2821 11.7797 19.421 11.693 21.7043 11.2949C22.7234 11.1215 24.7028 9.98025 24.6772 8.66474C24.6557 7.78361 23.1908 7.64652 22.9216 6.39543C22.6978 5.32188 23.6375 4.97256 23.0297 4.10547C21.4462 4.21374 19.8876 4.55719 18.4052 5.12451C18.833 9.61772 17.292 12.9631 13.955 15.4215C14.4983 15.9384 15.1026 16.3874 15.7544 16.7585C21.5565 19.8585 18.847 21.3004 19.6415 23.2757C20.3715 25.0751 22.3228 25.0248 22.7795 26.6615C23.2345 28.3305 21.4425 29.1835 21.8472 31.3224C22.1007 32.6957 23.1338 33.9022 23.7118 33.7791C24.2536 33.6635 23.9356 32.4422 24.7854 31.2505C26.8805 28.295 28.8459 28.2297 30.4356 24.7762C32.2201 20.8809 30.0227 21.4011 27.7476 19.3994L27.741 19.4043Z" fill="#3E7232"></path><path d="M38.4067 13.0098C37.647 13.4774 37.0745 14.1956 36.7881 15.0404C36.5404 15.9149 36.8608 16.3989 37.1184 17.7788C37.6139 20.3801 37.0673 21.8038 37.732 22.0854C38.2746 22.3166 38.7725 21.4355 39.5744 21.6378C39.6904 21.6644 39.7992 21.7159 39.8932 21.7889H39.8998C40.2391 18.78 39.7207 15.7366 38.4042 13.0098H38.4067Z" fill="#3E7232"></path><path d="M4.61024 14.9681C5.80102 15.4252 6.87843 16.1352 7.76812 17.0492C7.33374 14.9359 6.31305 12.9201 4.14779 12.8945C3.42521 12.8945 2.06676 13.357 0.383767 12.641C0.334809 12.6234 0.281968 12.6194 0.230914 12.6295C0.179861 12.6396 0.132523 12.6634 0.0939832 12.6984C0.0554431 12.7334 0.0271559 12.7782 0.0121575 12.828C-0.00284089 12.8778 -0.00398413 12.9308 0.00885104 12.9812C0.346038 14.722 1.33269 16.2693 2.76869 17.3093C4.01229 18.1598 5.52051 18.5341 7.01746 18.3638C6.24191 17.4852 5.27555 16.7956 4.19238 16.3481C4.00939 16.2925 3.85595 16.1666 3.76582 15.9979C3.67569 15.8293 3.65624 15.6317 3.71176 15.4488C3.76728 15.2658 3.89322 15.1123 4.06187 15.0222C4.23053 14.9321 4.42808 14.9126 4.61106 14.9681H4.61024Z" fill="#3E7232"></path><path d="M16.7425 4.19397C16.7277 4.14864 16.7017 4.1078 16.6668 4.07531C16.6319 4.04283 16.5894 4.01975 16.5431 4.00827C16.4968 3.99679 16.4484 3.99727 16.4024 4.00968C16.3564 4.02208 16.3143 4.046 16.28 4.07918C15.6501 4.66579 14.9542 5.17736 14.2064 5.60362C12.7588 6.38565 6.00123 7.78209 8.06409 14.4397C8.19649 14.8604 8.35085 15.2739 8.52654 15.6784C8.94758 13.2282 10.2376 11.0117 12.1601 9.43535C12.2303 9.36725 12.3136 9.31411 12.405 9.27915C12.4964 9.2442 12.5939 9.22817 12.6916 9.23202C12.7894 9.23588 12.8853 9.25954 12.9737 9.30158C13.062 9.34362 13.1409 9.40316 13.2055 9.47658C13.2702 9.55001 13.3192 9.6358 13.3497 9.72875C13.3802 9.8217 13.3915 9.91987 13.383 10.0173C13.3744 10.1148 13.3461 10.2095 13.2999 10.2957C13.2536 10.3819 13.1904 10.4578 13.1139 10.5188C11.4313 11.8744 10.3085 13.8035 9.96097 15.9361C10.55 15.7214 11.1223 15.463 11.6729 15.1631C15.6169 13.0425 17.93 9.11412 16.7458 4.19479L16.7425 4.19397Z" fill="#7AC638"></path><path d="M39.6268 23.393C38.8055 27.1127 36.6755 30.4136 33.6248 32.6948C30.5741 34.976 26.8055 36.0856 23.0054 35.8215C19.2053 35.5575 15.6264 33.9374 12.9205 31.2562C10.2146 28.575 8.56164 25.0112 8.26268 21.2137C8.22448 20.6293 8.0674 20.0588 7.80106 19.5373C7.58822 19.1157 7.32477 18.7216 7.01654 18.3638C7.33173 18.3329 7.64367 18.2749 7.94887 18.1904C7.87538 17.6767 7.86629 17.571 7.76802 17.0483C7.90511 17.1865 8.04274 17.331 8.18093 17.4818C8.25277 16.9401 8.40472 16.2175 8.52776 15.6832C8.56823 15.7658 8.67063 16.0028 8.73752 16.1556C8.76642 16.2192 8.79037 16.2729 8.79532 16.2828C9.18773 16.1921 9.57391 16.0762 9.95145 15.9359C9.83501 16.462 9.72188 17.021 9.62526 17.5958C10.6978 17.2507 11.7319 16.796 12.7113 16.239C13.4125 16.9392 14.2047 17.5419 15.0665 18.031C20.0882 20.7215 17.1698 21.0452 18.297 23.8191C18.748 24.8438 19.5218 25.693 20.5003 26.237C21.0784 26.6128 21.3021 26.7854 21.374 27.0529C21.4392 27.2916 21.374 27.4865 21.0635 28.1157C20.4418 29.1607 20.2112 30.3924 20.4128 31.5916C20.6399 32.8805 21.3414 34.0377 22.379 34.8353C22.6114 35.0024 22.875 35.1211 23.1542 35.1846C23.4333 35.248 23.7224 35.2547 24.0042 35.2045C25.7202 34.8271 25.2966 33.0053 25.9556 32.0969C27.8904 29.3718 29.988 29.186 31.7428 25.384C34.0807 20.2945 30.5702 19.9799 28.7014 18.3242C27.9581 17.6743 27.3611 16.8187 26.0134 16.5834C25.0521 16.4232 25.541 16.7675 23.9612 16.0705C22.7746 15.542 21.9347 15.8757 20.9883 15.9549C20.4028 15.9838 19.8752 15.4198 19.2905 14.7261C18.8743 14.3099 18.4926 13.8606 18.1492 13.3825C18.7843 13.167 20.7092 12.9399 21.9355 12.7219C23.46 12.4618 26.1628 10.8787 26.1116 8.63169C26.0763 8.20636 25.939 7.79582 25.7113 7.43486C25.4836 7.07389 25.1722 6.77314 24.8036 6.55809C24.1743 6.08903 24.3081 6.06261 24.4063 5.81487C24.6704 5.27389 24.7344 4.65693 24.5872 4.07324C27.2418 4.15379 29.834 4.89755 32.1274 6.23669C34.4209 7.57584 36.3427 9.46778 37.7175 11.74C36.6156 12.3957 35.7901 13.4302 35.3953 14.6502C35.0287 15.964 35.468 16.7683 35.7058 18.0533C36.2236 20.7677 35.3854 22.6621 37.1733 23.4144C37.512 23.5414 37.8764 23.584 38.2352 23.5387C38.594 23.4934 38.9364 23.3614 39.2329 23.1543C39.2456 23.1425 39.2601 23.1328 39.2758 23.1254L39.6268 23.393Z" fill="#7AC638"></path></g><defs><clipPath id="clip0_413_1224"><rect width="40" height="40" fill="white"></rect></clipPath></defs></svg>