<svg xmlns="http://www.w3.org/2000/svg" width="40" height="40" viewBox="0 0 40 40" fill="none"><rect width="40" height="40" fill="white"></rect><g clip-path="url(#clip0_413_1242)"><path fill-rule="evenodd" clip-rule="evenodd" d="M34.9474 5.77217C31.727 5.77217 28.0907 4.39776 25.2923 2.9934C22.546 1.61556 20.7197 0.30191 20.6495 0.254841C20.501 0.122449 20.3162 0.0375105 20.119 0.0109391H20.1035C20.0738 0.00663804 20.0438 0.00406632 20.0137 0.00323692H19.9991C19.9672 0.00152519 19.9352 0.00152519 19.9033 0.00323692C19.8691 0.00323692 19.8357 0.0117947 19.8015 0.0177853C19.6104 0.0484842 19.4321 0.133441 19.288 0.262544L19.2734 0.277092C19.1784 0.345556 17.3864 1.62925 14.659 2.99767C11.8588 4.39776 8.21652 5.77217 4.99957 5.77217H4V20.07C4 27.3717 7.97261 32.3935 11.8648 35.4966C15.757 38.5997 19.6628 39.8963 19.6628 39.8963L19.976 39.9998L20.2918 39.8963C20.2918 39.8963 24.1985 38.598 28.0907 35.4966C31.9829 32.3952 35.9546 27.3717 35.9546 20.07V5.77217H34.9474ZM27.0347 27.037C25.4012 28.6712 23.2517 29.6883 20.9524 29.9152C18.6531 30.1421 16.3462 29.5647 14.4249 28.2813C12.5036 26.998 11.0868 25.0881 10.4158 22.8772C9.74484 20.6663 9.86128 18.2911 10.7453 16.1564C11.6293 14.0217 13.2261 12.2596 15.2638 11.1703C17.3014 10.081 19.6536 9.732 21.9198 10.1827C24.1859 10.6334 26.2256 11.8559 27.6913 13.642C29.1571 15.428 29.9582 17.6671 29.9581 19.9776C29.9581 22.6252 28.9065 25.1645 27.0347 27.037Z" fill="#3E7232"></path><path fill-rule="evenodd" clip-rule="evenodd" d="M25.4403 14.9768C25.0509 14.9871 24.6809 15.1489 24.4091 15.4279L18.4827 21.362L15.5413 18.4206C15.4028 18.2781 15.2373 18.1646 15.0545 18.0867C14.8717 18.0088 14.6753 17.9681 14.4766 17.9668C14.2779 17.9655 14.0809 18.0038 13.8971 18.0793C13.7133 18.1549 13.5464 18.2663 13.4061 18.4069C13.2658 18.5476 13.1548 18.7148 13.0797 18.8987C13.0046 19.0827 12.9668 19.2798 12.9685 19.4785C12.9703 19.6772 13.0115 19.8735 13.0899 20.0561C13.1682 20.2387 13.2821 20.4039 13.4249 20.5421L17.4215 24.5353C17.702 24.8153 18.0821 24.9725 18.4784 24.9725C18.8747 24.9725 19.2548 24.8153 19.5353 24.5353L26.5229 17.5434C26.7376 17.3331 26.8842 17.0632 26.9434 16.7685C27.0027 16.4739 26.9719 16.1683 26.8552 15.8913C26.7384 15.6144 26.541 15.379 26.2887 15.2158C26.0364 15.0526 25.7408 14.969 25.4403 14.976V14.9768Z" fill="#7AC638"></path></g><defs><clipPath id="clip0_413_1242"><rect width="31.9512" height="40" fill="white" transform="translate(4)"></rect></clipPath></defs></svg>