<svg xmlns="http://www.w3.org/2000/svg" width="54" height="55" viewBox="0 0 54 55" fill="none"><path d="M7.45749 55.0015C5.68155 54.997 3.90718 54.8952 2.14237 54.6965C1.68183 54.6272 1.25569 54.412 0.926368 54.0826C0.597051 53.7533 0.381978 53.3271 0.312651 52.8665C-0.500268 45.9 0.277056 38.8398 2.58617 32.2171C4.89529 25.5944 8.67605 19.5817 13.644 14.6314C18.5867 9.64972 24.5956 5.85538 31.2179 3.53442C37.8402 1.21346 44.9029 0.426474 51.8736 1.23278C52.3341 1.30212 52.7604 1.51722 53.0897 1.84659C53.419 2.17595 53.6341 2.60223 53.7034 3.06283C54.4421 9.58052 53.7972 16.1808 51.8111 22.4322C49.825 28.6836 46.5422 34.4455 42.1775 39.3414C37.8127 44.2373 32.4643 48.1569 26.4814 50.8441C20.4986 53.5314 14.016 54.9258 7.45749 54.9361V55.0015ZM4.29902 50.6442C10.3783 51.0929 16.4828 50.2256 22.1967 48.1015C27.9106 45.9774 33.0995 42.6463 37.4099 38.3353C41.7203 34.0243 45.0509 28.8346 47.1747 23.1199C49.2985 17.4052 50.1657 11.2998 49.7171 5.21966C43.6367 4.758 37.5284 5.6193 31.8126 7.74422C26.0968 9.86915 20.9091 13.2073 16.6065 17.529C12.2911 21.8465 8.96381 27.049 6.85401 32.7775C4.74421 38.506 3.90217 44.624 4.38611 50.7096L4.29902 50.6442Z" fill="white"></path><path d="M2.38209 54.7197C1.82879 54.7119 1.29921 54.4938 0.900846 54.1097C0.527274 53.7069 0.319702 53.1777 0.319702 52.6283C0.319702 52.0788 0.527274 51.5497 0.900846 51.1468L39.1086 12.9335C39.522 12.7123 39.9958 12.6303 40.4595 12.6999C40.9231 12.7694 41.3521 12.9868 41.6824 13.3196C42.0127 13.6524 42.2268 14.083 42.2929 14.5472C42.359 15.0115 42.2736 15.4847 42.0493 15.8965L3.86334 54.1097C3.46498 54.4938 2.93539 54.7119 2.38209 54.7197Z" fill="white"></path><path d="M23.8607 33.2156C23.283 33.2156 22.7289 32.9861 22.3204 32.5776C21.9119 32.169 21.6824 31.6148 21.6824 31.037V16.5491C21.8143 16.0966 22.0895 15.6991 22.4665 15.4162C22.8436 15.1334 23.3023 14.9805 23.7736 14.9805C24.2449 14.9805 24.7035 15.1334 25.0806 15.4162C25.4576 15.6991 25.7328 16.0966 25.8647 16.5491V31.037C25.8665 31.5858 25.6611 32.1151 25.2896 32.5191C24.918 32.923 24.4077 33.1717 23.8607 33.2156Z" fill="white"></path><path d="M28.718 42.8452H14.2322C13.9062 42.9465 13.5609 42.9697 13.2243 42.913C12.8876 42.8563 12.5691 42.7212 12.2943 42.5188C12.0194 42.3163 11.796 42.0521 11.642 41.7474C11.488 41.4427 11.4077 41.106 11.4077 40.7646C11.4077 40.4232 11.488 40.0865 11.642 39.7818C11.796 39.4771 12.0194 39.2129 12.2943 39.0104C12.5691 38.8079 12.8876 38.6729 13.2243 38.6162C13.5609 38.5595 13.9062 38.5827 14.2322 38.684H28.718C29.044 38.5827 29.3893 38.5595 29.7259 38.6162C30.0625 38.6729 30.3811 38.8079 30.6559 39.0104C30.9308 39.2129 31.1542 39.4771 31.3082 39.7818C31.4622 40.0865 31.5425 40.4232 31.5425 40.7646C31.5425 41.106 31.4622 41.4427 31.3082 41.7474C31.1542 42.0521 30.9308 42.3163 30.6559 42.5188C30.3811 42.7212 30.0625 42.8563 29.7259 42.913C29.3893 42.9697 29.044 42.9465 28.718 42.8452Z" fill="white"></path></svg>