<svg xmlns="http://www.w3.org/2000/svg" width="84" height="84" viewBox="0 0 84 84" fill="none"><circle cx="42" cy="42" r="41.5" stroke="#333333" stroke-opacity="0.4"></circle><path d="M51 59H33" stroke="#3E7232" stroke-width="2" stroke-linecap="round"></path><path d="M43 56C43 56.5523 42.5523 57 42 57C41.4477 57 41 56.5523 41 56H43ZM41 56V51H43V56H41Z" fill="#3E7232"></path><path d="M39 37H45" stroke="#7AC638" stroke-width="2" stroke-linecap="round"></path><path d="M29 47C29 47 25 44 25 39C25 37.4693 25 36.126 25 34.9989C25 33.114 25 32.1716 25.5858 31.5858C26.1716 31 27.1144 31 29 31V31C30.8856 31 31.8284 31 32.4142 31.5858C33 32.1716 33 33.1144 33 35V37" stroke="#7AC638" stroke-width="2" stroke-linecap="round"></path><path d="M55 47C55 47 59 44 59 39C59 37.4693 59 36.126 59 34.9989C59 33.114 59 32.1716 58.4142 31.5858C57.8284 31 56.8856 31 55 31V31C53.1144 31 52.1716 31 51.5858 31.5858C51 32.1716 51 33.1144 51 35V37" stroke="#7AC638" stroke-width="2" stroke-linecap="round"></path><path d="M51 42.8593V31C51 29.8954 50.1046 29 49 29H35C33.8954 29 33 29.8954 33 31V42.8593C33 44.1967 33.6684 45.4456 34.7812 46.1875L41.4453 50.6302C41.7812 50.8541 42.2188 50.8541 42.5547 50.6302L49.2188 46.1875C50.3316 45.4456 51 44.1967 51 42.8593Z" stroke="#3E7232" stroke-width="2"></path></svg>