<svg xmlns="http://www.w3.org/2000/svg" width="40" height="40" viewBox="0 0 40 40" fill="none"><path d="M10.4934 17.3367C11.1001 19.4244 12.2857 20.5889 14.4445 21.2302C15.7847 21.6354 17.1816 21.7196 18.1149 21.7196C18.2877 21.7196 18.4375 21.7163 18.567 21.7117V27.5834C18.7047 27.5947 18.8478 27.6 18.9908 27.6C19.1339 27.6 19.283 27.594 19.4261 27.5775V21.7057C19.5341 21.707 19.6562 21.7083 19.7986 21.7083C21.4303 21.7083 24.3962 21.4723 26.0394 19.8906C26.0563 19.874 26.0738 19.8621 26.0914 19.8455C26.893 19.0464 27.4545 17.8593 27.7575 16.3114C28.101 14.5387 27.9809 12.9352 27.9748 12.8675C27.9579 12.6593 27.7919 12.4962 27.5793 12.4789C27.5793 12.4789 27.2642 12.4504 26.7608 12.4504C25.129 12.4504 22.1402 12.6978 20.468 14.3298C20.2622 14.5434 20.1077 14.7291 19.9869 14.9095C19.7723 15.2046 19.586 15.5454 19.4254 15.9036V14.1886C20.1353 13.5579 23.1876 10.6764 23.1876 7.71267C23.1876 4.42066 19.4376 1.23609 19.277 1.10147C19.1163 0.966178 18.8815 0.966178 18.7216 1.10147C18.5616 1.23675 14.8049 4.42133 14.8049 7.71267C14.8049 10.6684 17.845 13.5427 18.567 14.1833V15.8691C18.4037 15.5083 18.2175 15.1834 18.0056 14.8975C17.8794 14.7118 17.7309 14.5314 17.5244 14.3239C15.8637 12.6978 12.8749 12.4504 11.2431 12.4504C10.7336 12.4504 10.4185 12.4789 10.4185 12.4789C10.2127 12.4955 10.0406 12.6586 10.0231 12.8675C10.0231 12.9352 9.89686 14.5275 10.235 16.2889C10.2984 16.6324 10.3841 16.9806 10.4927 17.3354L10.4934 17.3367Z" fill="#7AC638"></path><path d="M29.6302 22.0736L26.6693 21.7623C26.5977 21.4838 26.5143 21.2168 26.4154 20.9602L26.4102 20.9659L26.3496 21.0148C25.7253 21.615 24.9303 22.0408 24.0905 22.3361C24.8581 25.4417 22.5052 28.6998 18.9974 28.6998C15.4896 28.6998 13.1309 25.4578 13.9043 22.3303C12.9648 21.9971 12.2083 21.5442 11.5957 20.9492C11.485 21.2168 11.4023 21.4844 11.3307 21.7623L8.36979 22.0736C8.16016 22.0955 8 22.2705 8 22.4776V24.5901C8 24.803 8.16016 24.9773 8.36979 24.9992L11.3366 25.3105C11.513 26.031 11.8118 26.7405 12.2038 27.3844L10.3307 29.6712C10.1979 29.8294 10.209 30.07 10.3587 30.2166L12.082 31.9193C12.237 32.0666 12.474 32.0776 12.6341 31.947L14.9486 30.0963C15.5951 30.4894 16.3021 30.784 17.0586 30.9692L17.3678 33.8838C17.39 34.091 17.5723 34.2492 17.7819 34.2492H20.2181C20.4277 34.2492 20.6048 34.091 20.627 33.8838L20.9473 30.9692C21.6986 30.7833 22.4004 30.4894 23.0462 30.0963L25.3548 31.947C25.5208 32.0782 25.7585 32.0673 25.9069 31.9193L27.6309 30.2166C27.7799 30.0693 27.7969 29.8345 27.6641 29.6712L25.7969 27.3895C26.1836 26.7508 26.4818 26.0522 26.6751 25.3099L29.6302 24.9985C29.8398 24.9767 30 24.8023 30 24.5894V22.477C30 22.2698 29.8398 22.0949 29.6302 22.073V22.0736Z" fill="#2F5B28"></path></svg>