<svg xmlns="http://www.w3.org/2000/svg" width="40" height="40" viewBox="0 0 40 40" fill="none"><path d="M28.443 12.99C28.4417 14.0538 28.022 15.0745 27.2751 15.8321C26.528 16.5897 25.5133 17.0235 24.4494 17.04L23.916 16.9109L25.2611 15.5654H27.1756V14.5654H26.2611L28.443 12.3848L28.443 12.99ZM27.1309 11.6779H27.7358L25.5539 13.8605V12.946H24.5539V14.8605L23.2088 16.2056L23.0794 15.6721C23.0928 14.8179 23.3778 13.9895 23.893 13.3078C23.9191 13.2911 23.9434 13.2719 23.9659 13.2504C24.1217 13.0922 24.2668 12.9241 24.4005 12.7469C25.1441 12.0602 26.1189 11.6788 27.1309 11.6779ZM22.8309 10.8848L24.1849 9.53122L23.4773 8.82431L22.8309 9.47071V6.38477L23.2591 6.81289C23.9423 7.49861 24.3577 8.40621 24.43 9.37158C24.5026 10.3368 24.2274 11.2964 23.6539 12.0763C23.4939 12.2272 23.3436 12.3883 23.2039 12.5584L22.8285 12.7874L22.8309 10.8848ZM20.0729 17.0414C19.009 17.0251 17.9943 16.5914 17.2472 15.8338C16.5001 15.0762 16.0805 14.0555 16.0789 12.9914V12.3865L18.2609 14.5684H17.347V15.5684H19.2611L20.6066 16.914L20.0729 17.0414ZM21.3133 16.2055L19.968 14.8599V12.9461H18.968V13.8601L16.786 11.678H17.3929C18.457 11.6795 19.4777 12.0992 20.2353 12.8463C20.9929 13.5933 21.4266 14.6081 21.4429 15.6719L21.3133 16.2055ZM21.3604 12.5015C20.6182 11.7383 20.2064 10.7135 20.214 9.64899C20.2216 8.58425 20.6479 7.56551 21.401 6.81305L21.8285 6.38515V9.47109L21.1825 8.82469L20.4749 9.53161L21.8285 10.8852V12.7877L21.3604 12.5015ZM22.2954 21.2312L29.4451 25.1977L23.2954 29.1783H21.5813L18.2479 27.1783H20.4429C21.2383 27.1774 22.001 26.8611 22.5635 26.2988C23.1257 25.7363 23.442 24.9736 23.4429 24.1783C23.4429 24.0457 23.3903 23.9184 23.2965 23.8247C23.2028 23.7309 23.0755 23.6783 22.9429 23.6783L19.4929 23.6807L16.903 23.4218L22.2954 21.2312ZM23.2659 33.678H20.5324L11.1159 30.2091C11.0605 30.1885 11.002 30.178 10.9429 30.178H6.94287V25.678H10.9429C11.0107 25.6782 11.0777 25.6644 11.14 25.6376L14.5215 24.1876L19.4429 24.678H22.3795C22.2681 25.107 22.0177 25.4872 21.6672 25.7586C21.3168 26.03 20.8862 26.1776 20.4429 26.178H16.4429C16.2183 26.178 16.0212 26.328 15.9612 26.5443C15.9011 26.7608 15.9929 26.9907 16.1853 27.1066L21.1853 30.1066C21.2632 30.1532 21.3523 30.178 21.4429 30.178H23.4429C23.5393 30.178 23.6335 30.1499 23.7143 30.0974L30.1143 25.9559C30.9993 25.3869 32.1125 25.3057 33.0708 25.74L23.2659 33.678Z" fill="#3E7232"></path><path d="M21.9 16.7129H22.9V19.4698H21.9V16.7129Z" fill="#7AC638"></path></svg>