<?xml version="1.0" encoding="utf-8"?>
<!-- Generator: Adobe Illustrator 16.0.0, SVG Export Plug-In . SVG Version: 6.00 Build 0)  -->
<!DOCTYPE svg PUBLIC "-//W3C//DTD SVG 1.1//EN" "http://www.w3.org/Graphics/SVG/1.1/DTD/svg11.dtd">
<svg version="1.1" id="Layer_1" xmlns="http://www.w3.org/2000/svg" xmlns:xlink="http://www.w3.org/1999/xlink" x="0px" y="0px"
	 width="371px" height="720.75px" viewBox="-23.338 0 371 720.75" enable-background="new -23.338 0 371 720.75"
	 xml:space="preserve">
<g>
	<path fill="#292929" stroke="#B9DFFF" stroke-width="1.5" d="M270.779,1.25H53.543c-29.107,0-52.705,23.58-52.705,52.669v572.162
		c0,29.089,23.598,52.669,52.705,52.669h217.235c29.107,0,52.707-23.58,52.707-52.669V53.919
		C323.486,24.83,299.886,1.25,270.779,1.25z"/>
	<path fill="#F2F6F9" d="M268.804,10.396H55.52c-24.212,0-43.84,19.614-43.84,43.81V623.83c0,24.196,19.628,43.81,43.84,43.81
		h213.283c24.213,0,43.842-19.612,43.842-43.81V54.206C312.644,30.01,293.015,10.396,268.804,10.396z"/>
	<path fill="#292929" d="M83.676,3.908l1.337,13.013c0.878,8.51,9.031,15.017,18.769,15.017h116.761
		c9.738,0,17.873-6.506,18.77-15.017l1.336-13.013H83.676z"/>
</g>
<radialGradient id="SVGID_1_" cx="196.3081" cy="366.0684" r="1.0003" gradientTransform="matrix(8.104284e-016 13.2353 196.412 -1.202677e-014 -71738.0469 -1890.6882)" gradientUnits="userSpaceOnUse">
	<stop  offset="0" style="stop-color:#3C3C3C"/>
	<stop  offset="0.8299" style="stop-color:#606060;stop-opacity:0"/>
</radialGradient>
<ellipse opacity="0.3" fill="url(#SVGID_1_)" enable-background="new    " cx="162.162" cy="708.25" rx="185.5" ry="12.5"/>
</svg>
