<svg xmlns="http://www.w3.org/2000/svg" width="72" height="72" viewBox="0 0 72 72" fill="none"><path fill-rule="evenodd" clip-rule="evenodd" d="M16.3583 53.0663H57.4805V49.812H16.3583V53.0663ZM57.9493 53.9998H15.8886C15.6294 53.9998 15.4189 53.7906 15.4189 53.533V49.3461C15.4189 49.0886 15.6294 48.8794 15.8886 48.8794H57.9493C58.2085 48.8794 58.4189 49.0886 58.4189 49.3461V53.533C58.4189 53.7906 58.2085 53.9998 57.9493 53.9998Z" fill="#2F5B28"></path><path fill-rule="evenodd" clip-rule="evenodd" d="M44.9627 49.8123C44.7035 49.8123 44.493 49.604 44.493 49.3464V28.6401H29.0466V49.3464C29.0466 49.604 28.837 49.8132 28.577 49.8132C28.3169 49.8132 28.1082 49.604 28.1082 49.3464V28.1734C28.1082 27.9158 28.3178 27.7075 28.5761 27.7075H44.9609C45.2201 27.7075 45.4298 27.9167 45.4298 28.1743V49.3473C45.4298 49.6049 45.2201 49.814 44.9609 49.8132H44.9618L44.9627 49.8123Z" fill="#2F5B28"></path><path fill-rule="evenodd" clip-rule="evenodd" d="M31.9848 34.4225H34.541V31.8822H31.9848V34.4225ZM35.0107 35.3552H31.5159C31.2568 35.3552 31.0463 35.146 31.0463 34.8884V31.4155C31.0463 31.1579 31.2568 30.9487 31.5159 30.9487H35.0107C35.2708 30.9487 35.4795 31.1579 35.4795 31.4155V34.8884C35.4795 35.146 35.2699 35.3552 35.0107 35.3552Z" fill="#7AC638"></path><path fill-rule="evenodd" clip-rule="evenodd" d="M38.9985 34.4225H41.5548V31.8822H38.9985V34.4225ZM42.0245 35.3552H38.5297C38.2705 35.3552 38.0601 35.146 38.0601 34.8884V31.4155C38.0601 31.1579 38.2705 30.9487 38.5297 30.9487H42.0245C42.2837 30.9487 42.4933 31.1579 42.4933 31.4155V34.8884C42.4933 35.146 42.2828 35.3552 42.0245 35.3552Z" fill="#7AC638"></path><path fill-rule="evenodd" clip-rule="evenodd" d="M31.9848 40.0296H34.541V37.4893H31.9848V40.0296ZM35.0107 40.9622H31.5159C31.2568 40.9622 31.0463 40.7539 31.0463 40.4963V37.0234C31.0463 36.7658 31.2568 36.5566 31.5159 36.5566H35.0107C35.2708 36.5566 35.4795 36.7658 35.4795 37.0234V40.4963C35.4795 40.7539 35.2699 40.9631 35.0107 40.9622Z" fill="#7AC638"></path><path fill-rule="evenodd" clip-rule="evenodd" d="M38.9985 40.0296H41.5548V37.4893H38.9985V40.0296ZM42.0245 40.9622H38.5297C38.2705 40.9622 38.0601 40.7539 38.0601 40.4963V37.0234C38.0601 36.7658 38.2705 36.5566 38.5297 36.5566H42.0245C42.2837 36.5566 42.4933 36.7658 42.4933 37.0234V40.4963C42.4933 40.7539 42.2828 40.9631 42.0245 40.9622Z" fill="#7AC638"></path><path fill-rule="evenodd" clip-rule="evenodd" d="M35.0881 28.6392C34.8289 28.6392 34.6184 28.4301 34.6184 28.1725V20.1401C34.6184 19.4746 34.0739 18.9335 33.4051 18.9335H32.3752C31.7055 18.9335 31.161 19.4746 31.161 20.1401V28.1725C31.161 28.4301 30.9506 28.6392 30.6914 28.6392C30.4322 28.6392 30.2217 28.4301 30.2217 28.1725V20.1393C30.2217 18.9594 31.1871 18 32.3752 18H33.4051C34.5923 18 35.5578 18.9594 35.5578 20.1393V28.1716C35.5578 28.4292 35.3481 28.6384 35.0889 28.6384L35.0881 28.6392Z" fill="#2F5B28"></path><path fill-rule="evenodd" clip-rule="evenodd" d="M35.0881 22.6762H30.6914C30.4322 22.6762 30.2217 22.467 30.2217 22.2094C30.2217 21.9518 30.4322 21.7427 30.6914 21.7427H35.0881C35.3481 21.7427 35.5569 21.9518 35.5569 22.2094C35.5569 22.467 35.3473 22.6762 35.0881 22.6762Z" fill="#2F5B28"></path><path fill-rule="evenodd" clip-rule="evenodd" d="M39.4257 49.8121C39.1665 49.8121 38.956 49.6038 38.956 49.3462V43.4877H34.5836V49.3462C34.5836 49.6038 34.3732 49.813 34.114 49.813C33.8548 49.813 33.6443 49.6038 33.6443 49.3462V43.0209C33.6443 42.7634 33.8539 42.5542 34.1131 42.5542H39.4248C39.684 42.5542 39.8936 42.7634 39.8936 43.0209V49.3462C39.8936 49.6038 39.6831 49.813 39.4248 49.8121H39.4257Z" fill="#2F5B28"></path><path fill-rule="evenodd" clip-rule="evenodd" d="M26.0937 49.8123C25.8336 49.8123 25.624 49.604 25.624 49.3464V40.9588C25.624 38.9017 23.9392 37.2266 21.8674 37.2266C19.7956 37.2266 18.1117 38.9008 18.1117 40.9588V49.3464C18.1117 49.604 17.9012 49.8132 17.642 49.8132C17.3828 49.8132 17.1724 49.604 17.1724 49.3464V40.9588C17.1724 38.3865 19.2781 36.2939 21.8665 36.2939C24.455 36.2939 26.5616 38.3865 26.5616 40.9588V49.3464C26.5616 49.604 26.3511 49.8132 26.0928 49.8123H26.0937Z" fill="#2F5B28"></path><path fill-rule="evenodd" clip-rule="evenodd" d="M26.0938 42.9409H17.643C17.3838 42.9409 17.1733 42.7326 17.1733 42.475C17.1733 42.2175 17.3838 42.0083 17.643 42.0083H26.0938C26.353 42.0083 26.5626 42.2175 26.5626 42.475C26.5626 42.7326 26.3521 42.9409 26.0938 42.9409Z" fill="#2F5B28"></path><path fill-rule="evenodd" clip-rule="evenodd" d="M23.5105 49.8123C23.2513 49.8123 23.0408 49.604 23.0408 49.3464V45.5078H20.6941V49.3464C20.6941 49.604 20.4836 49.8131 20.2244 49.8131C19.9652 49.8131 19.7548 49.604 19.7548 49.3464V45.0411C19.7548 44.7835 19.9652 44.5752 20.2244 44.5752H23.5105C23.7705 44.5752 23.9793 44.7844 23.9793 45.0419V49.3472C23.9793 49.6048 23.7696 49.814 23.5105 49.8131V49.8123Z" fill="#2F5B28"></path><path fill-rule="evenodd" clip-rule="evenodd" d="M56.1949 49.8123C55.9357 49.8123 55.7253 49.604 55.7253 49.3464V36.8774C55.7253 35.9767 54.9877 35.2446 54.0822 35.2446H50.2683C49.362 35.2446 48.6244 35.9767 48.6244 36.8774V49.3464C48.6244 49.604 48.4148 49.8132 48.1556 49.8132C47.8964 49.8132 47.6859 49.604 47.6859 49.3464V36.8774C47.6859 35.4625 48.8436 34.312 50.2674 34.312H54.0814C55.5052 34.312 56.6629 35.4633 56.6629 36.8774V49.3464C56.6629 49.604 56.4533 49.8132 56.1941 49.8123H56.1949Z" fill="#2F5B28"></path><path fill-rule="evenodd" clip-rule="evenodd" d="M56.1949 39.9819H48.1564C47.8964 39.9819 47.6868 39.7728 47.6868 39.5152C47.6868 39.2576 47.8964 39.0493 48.1564 39.0493H56.1949C56.4541 39.0493 56.6637 39.2585 56.6637 39.5161C56.6637 39.7736 56.4532 39.9828 56.1949 39.9828V39.9819Z" fill="#2F5B28"></path><path fill-rule="evenodd" clip-rule="evenodd" d="M50.2683 35.2437C50.0082 35.2437 49.7986 35.0354 49.7986 34.777V26.7299H42.295V28.1725C42.295 28.4301 42.0846 28.6393 41.8254 28.6393C41.5662 28.6393 41.3557 28.4301 41.3557 28.1725V26.2632C41.3557 26.0056 41.5662 25.7973 41.8254 25.7973H50.2683C50.5275 25.7973 50.7371 26.0065 50.7371 26.2632V34.777C50.7371 35.0345 50.5266 35.2437 50.2683 35.2437ZM54.0823 35.2437C53.8231 35.2437 53.6126 35.0354 53.6126 34.777V23.6399C53.6126 23.2215 53.2699 22.8818 52.8498 22.8818H40.3868C40.1415 22.8818 39.9414 23.0798 39.9414 23.3235V28.1725C39.9414 28.4301 39.7318 28.6393 39.4718 28.6393C39.2117 28.6393 39.0021 28.4301 39.0021 28.1725V23.3235C39.0021 22.5655 39.6231 21.9492 40.3859 21.9492H52.8489C53.7865 21.9492 54.5502 22.7081 54.5502 23.6407V34.7787C54.5502 35.0363 54.3397 35.2454 54.0814 35.2454L54.0823 35.2437Z" fill="#2F5B28"></path><circle cx="36" cy="36" r="35.5" stroke="#333333" stroke-opacity="0.4"></circle></svg>