<svg xmlns="http://www.w3.org/2000/svg" width="93" height="74" viewBox="0 0 93 74" fill="none"><path d="M0.58 73.93V49.36C0.58 40.18 2.2 31.72 5.44 23.98C8.68 16.24 14.17 8.40999 21.91 0.489984L35.95 11.56C30.19 17.5 26.14 22.99 23.8 28.03C21.46 33.07 20.29 38.47 20.29 44.23L11.92 36.4H38.38V73.93H0.58ZM54.31 73.93V49.36C54.31 40.18 55.93 31.72 59.17 23.98C62.41 16.24 67.9 8.40999 75.64 0.489984L89.68 11.56C83.92 17.5 79.87 22.99 77.53 28.03C75.19 33.07 74.02 38.47 74.02 44.23L65.65 36.4H92.11V73.93H54.31Z" fill="#3E7232" fill-opacity="0.3"></path></svg>