<svg xmlns="http://www.w3.org/2000/svg" width="65" height="67" viewBox="0 0 65 67" fill="none"><path d="M32.4298 52.7282C28.6869 52.7244 25.0291 51.6111 21.9188 49.5289C18.8086 47.4467 16.3855 44.4891 14.9557 41.03C13.526 37.571 13.1539 33.7656 13.8864 30.0951C14.619 26.4246 16.4233 23.0537 19.0712 20.4084C21.7192 17.7631 25.092 15.9622 28.7633 15.2334C32.4345 14.5046 36.2394 14.8806 39.6971 16.3138C43.1547 17.747 46.1098 20.1731 48.1888 23.2855C50.2679 26.3979 51.3775 30.0568 51.3775 33.7997C51.3724 38.8216 49.3739 43.6361 45.8211 47.1854C42.2682 50.7346 37.4517 52.7282 32.4298 52.7282ZM32.4298 18.557C29.4201 18.5797 26.4845 19.493 23.993 21.1817C21.5016 22.8703 19.5658 25.2587 18.4298 28.0459C17.2937 30.8331 17.0083 33.8942 17.6094 36.8433C18.2104 39.7925 19.6711 42.4977 21.8074 44.6179C23.9436 46.7382 26.6598 48.1785 29.6134 48.7573C32.567 49.3362 35.6258 49.0277 38.4044 47.8707C41.1829 46.7137 43.5567 44.76 45.2266 42.256C46.8964 39.7519 47.7876 36.8095 47.7876 33.7997C47.7851 31.789 47.3853 29.7986 46.6112 27.9428C45.8371 26.0871 44.704 24.4027 43.2768 22.9862C41.8497 21.5698 40.1568 20.4494 38.2953 19.6892C36.4338 18.9291 34.4404 18.5443 32.4298 18.557Z" fill="white"></path><path d="M33.2061 12.1684C32.6682 12.1684 32.1524 11.9543 31.7721 11.5734C31.3917 11.1924 31.1781 10.6757 31.1781 10.1369V2.60025C31.0899 2.29749 31.0733 1.97833 31.1296 1.66805C31.186 1.35776 31.3136 1.06488 31.5026 0.812582C31.6915 0.560284 31.9364 0.355494 32.218 0.214456C32.4996 0.073417 32.8101 0 33.125 0C33.4398 0 33.7504 0.073417 34.032 0.214456C34.3136 0.355494 34.5585 0.560284 34.7474 0.812582C34.9363 1.06488 35.064 1.35776 35.1203 1.66805C35.1767 1.97833 35.1601 2.29749 35.0719 2.60025V10.1369C35.0736 10.6487 34.8823 11.1422 34.5364 11.5188C34.1905 11.8955 33.7154 12.1274 33.2061 12.1684Z" fill="white"></path><path d="M21.2477 14.8705C20.9416 14.8648 20.6416 14.7801 20.3752 14.624C20.1087 14.468 19.8842 14.2456 19.7219 13.977L16.3025 7.8554C16.1848 7.45091 16.2006 7.01739 16.3476 6.62326C16.4946 6.22914 16.7643 5.89688 17.1142 5.67891C17.4641 5.46094 17.8742 5.36968 18.2799 5.41954C18.6855 5.46941 19.0635 5.65755 19.3542 5.95428L22.7736 12.0759C22.9885 12.4987 23.0416 12.9897 22.9224 13.4511C22.8032 13.9126 22.5203 14.3107 22.1302 14.5663C21.8661 14.7443 21.5622 14.849 21.2477 14.8705Z" fill="white"></path><path d="M11.7478 24.3349C11.4215 24.3361 11.101 24.2372 10.8198 24.0485L4.61348 19.9731C4.31171 19.6247 4.12039 19.1717 4.06967 18.6857C4.01896 18.1996 4.11177 17.7081 4.33345 17.2889C4.55512 16.8696 4.89303 16.5464 5.29385 16.3702C5.69466 16.1941 6.13554 16.1751 6.5469 16.3162L12.7532 20.3916C13.0601 20.6561 13.2908 21.0188 13.4157 21.4335C13.5406 21.8481 13.5541 22.2959 13.4545 22.7193C13.3548 23.1428 13.1465 23.5227 12.8563 23.8105C12.566 24.0983 12.207 24.2809 11.8252 24.3349H11.7478Z" fill="white"></path><path d="M8.39166 35.0992H1.36388C0.97041 35.0173 0.624768 34.8465 0.378849 34.6125C0.13293 34.3785 0 34.0938 0 33.8013C0 33.5087 0.13293 33.2241 0.378849 32.99C0.624768 32.756 0.97041 32.5852 1.36388 32.5033H8.39166C8.67397 32.4445 8.97156 32.4335 9.2609 32.471C9.55023 32.5086 9.82334 32.5937 10.0586 32.7196C10.2939 32.8456 10.4848 33.0089 10.6163 33.1966C10.7479 33.3843 10.8163 33.5914 10.8163 33.8013C10.8163 34.0112 10.7479 34.2182 10.6163 34.4059C10.4848 34.5937 10.2939 34.757 10.0586 34.8829C9.82334 35.0088 9.55023 35.0939 9.2609 35.1315C8.97156 35.169 8.67397 35.158 8.39166 35.0992Z" fill="white"></path><path d="M5.75144 51.3757C5.3696 51.3307 5.01056 51.1786 4.7203 50.9388C4.43005 50.6991 4.22179 50.3825 4.12213 50.0297C4.02247 49.6769 4.03597 49.3039 4.16089 48.9585C4.28582 48.613 4.51648 48.3108 4.82338 48.0905L11.0297 44.6951C11.441 44.5775 11.8819 44.5934 12.2827 44.7401C12.6835 44.8869 13.0215 45.1561 13.2431 45.5055C13.4648 45.8548 13.5576 46.2642 13.5069 46.6692C13.4562 47.0741 13.2649 47.4515 12.9631 47.7418L6.7568 51.1371C6.45317 51.3076 6.10386 51.3905 5.75144 51.3757Z" fill="white"></path><path d="M16.9165 62.1948C16.5522 62.1906 16.195 62.108 15.8781 61.9546C15.4189 61.7061 15.0861 61.3192 14.9458 60.8707C14.8055 60.4222 14.868 59.9451 15.1209 59.5341L19.1449 53.6032C19.4324 53.2079 19.884 52.9198 20.4094 52.7965C20.9348 52.6732 21.4954 52.7238 21.979 52.9381C22.4382 53.1865 22.7711 53.5735 22.9114 54.0219C23.0517 54.4704 22.9892 54.9476 22.7363 55.3585L18.7122 61.3079C18.5239 61.5723 18.2607 61.7921 17.9469 61.9471C17.6332 62.1021 17.2789 62.1872 16.9165 62.1948Z" fill="white"></path><path d="M33.2061 66.2499C32.6682 66.2499 32.1524 66.0597 31.7721 65.721C31.3917 65.3824 31.1781 64.9231 31.1781 64.4442V57.7449C31.0899 57.4758 31.0733 57.1921 31.1296 56.9163C31.186 56.6405 31.3136 56.3801 31.5026 56.1559C31.6915 55.9316 31.9364 55.7496 32.218 55.6242C32.4996 55.4989 32.8101 55.4336 33.125 55.4336C33.4398 55.4336 33.7504 55.4989 34.032 55.6242C34.3136 55.7496 34.5585 55.9316 34.7474 56.1559C34.9363 56.3801 35.064 56.6405 35.1203 56.9163C35.1767 57.1921 35.1601 57.4758 35.0719 57.7449V64.4442C35.0736 64.8991 34.8823 65.3378 34.5364 65.6726C34.1905 66.0073 33.7154 66.2135 33.2061 66.2499Z" fill="white"></path><path d="M48.3254 62.1948C48.0202 62.1903 47.7211 62.1066 47.456 61.9515C47.191 61.7964 46.9687 61.575 46.81 61.3079L43.4725 55.3585C43.2616 54.9476 43.2095 54.4704 43.3265 54.0219C43.4435 53.5735 43.721 53.1865 44.1039 52.9381C44.5072 52.7238 44.9747 52.6732 45.4128 52.7965C45.8509 52.9198 46.2275 53.2079 46.4672 53.6032L49.8228 59.5341C50.0321 59.9472 50.0814 60.4259 49.961 60.8747C49.8406 61.3234 49.5593 61.709 49.1733 61.9546C48.9144 62.1051 48.6231 62.1876 48.3254 62.1948Z" fill="white"></path><path d="M59.0692 51.3774C58.7429 51.3784 58.4224 51.2959 58.1412 51.1387L51.9349 47.7425C51.6331 47.4522 51.4418 47.0747 51.3911 46.6697C51.3404 46.2646 51.4332 45.8551 51.6549 45.5057C51.8765 45.1563 52.2144 44.8869 52.6153 44.7402C53.0161 44.5934 53.457 44.5775 53.8683 44.6951L60.0746 48.0913C60.3815 48.3117 60.6122 48.614 60.7371 48.9595C60.862 49.3051 60.8755 49.6782 60.7759 50.0311C60.6762 50.3839 60.4679 50.7006 60.1777 50.9404C59.8874 51.1802 59.5284 51.3324 59.1466 51.3774H59.0692Z" fill="white"></path><path d="M63.5341 35.0992H56.5063C56.224 35.158 55.9264 35.169 55.6371 35.1315C55.3478 35.0939 55.0747 35.0088 54.8394 34.8829C54.6041 34.757 54.4132 34.5937 54.2817 34.4059C54.1501 34.2182 54.0817 34.0112 54.0817 33.8013C54.0817 33.5914 54.1501 33.3843 54.2817 33.1966C54.4132 33.0089 54.6041 32.8456 54.8394 32.7196C55.0747 32.5937 55.3478 32.5086 55.6371 32.471C55.9264 32.4335 56.224 32.4445 56.5063 32.5033H63.5341C63.9276 32.5852 64.2732 32.756 64.5191 32.99C64.765 33.2241 64.898 33.5087 64.898 33.8013C64.898 34.0938 64.765 34.3785 64.5191 34.6125C64.2732 34.8465 63.9276 35.0173 63.5341 35.0992Z" fill="white"></path><path d="M53.0729 24.3329C52.691 24.2789 52.332 24.0964 52.0417 23.8086C51.7515 23.5209 51.5432 23.141 51.4435 22.7177C51.3439 22.2943 51.3574 21.8467 51.4823 21.4322C51.6072 21.0176 51.8379 20.655 52.1448 20.3906L58.3511 16.3161C58.7624 16.1751 59.2033 16.1941 59.6042 16.3702C60.005 16.5463 60.3429 16.8694 60.5646 17.2886C60.7862 17.7078 60.879 18.1991 60.8283 18.685C60.7776 19.171 60.5863 19.6238 60.2845 19.9721L54.0782 24.0466C53.7746 24.2511 53.4253 24.3506 53.0729 24.3329Z" fill="white"></path><path d="M45.0001 14.8705C44.6925 14.8721 44.3895 14.7932 44.1188 14.6412C43.7291 14.3842 43.4466 13.9841 43.3275 13.5202C43.2085 13.0564 43.2615 12.5629 43.4762 12.138L46.873 5.98506C47.1613 5.67642 47.5413 5.47815 47.9515 5.42237C48.3616 5.36658 48.7778 5.45655 49.1327 5.6777C49.4876 5.89884 49.7603 6.2382 49.9067 6.6408C50.0531 7.0434 50.0646 7.48566 49.9393 7.8959L46.5241 14.0488C46.3536 14.3046 46.1256 14.5132 45.86 14.6564C45.5944 14.7996 45.2992 14.8731 45.0001 14.8705Z" fill="white"></path></svg>