<svg xmlns="http://www.w3.org/2000/svg" width="64" height="64" viewBox="0 0 64 64" fill="none"><circle cx="32" cy="32" r="32" fill="white"></circle><g clip-path="url(#clip0_483_13016)"><path d="M38.0374 15.648C36.843 15.648 35.8773 16.632 35.8773 17.84V17.848V29.344C39.1371 30.98 41.376 34.388 41.376 38.328C41.376 43.864 36.9534 48.352 31.498 48.352C26.0427 48.352 21.6201 43.864 21.6201 38.328C21.6201 34.388 23.859 30.98 27.1188 29.344V17.852C27.1188 17.852 27.1188 17.852 27.1188 17.848C27.1188 16.636 26.153 15.656 24.9587 15.652H38.0295M38.0295 14H24.9666C24.0718 14.004 23.3426 14.744 23.3426 15.652C23.3426 16.56 24.0679 17.3 24.9626 17.3C25.2425 17.3 25.4751 17.52 25.4987 17.804C25.4987 17.82 25.4987 17.836 25.4987 17.852V28.372C24.0009 29.304 22.7277 30.572 21.7777 32.088C20.6149 33.952 20 36.108 20 38.328C20 41.444 21.1943 44.376 23.3702 46.58C25.5421 48.784 28.4314 49.996 31.502 49.996C34.5726 49.996 37.4619 48.78 39.6338 46.576C41.8057 44.372 43 41.44 43 38.324C43 36.108 42.3851 33.952 41.2223 32.084C40.2763 30.568 39.0031 29.296 37.5052 28.368V17.852C37.5052 17.852 37.5052 17.828 37.5052 17.82C37.5171 17.532 37.7536 17.3 38.0413 17.3C38.94 17.3 39.6653 16.56 39.6614 15.652C39.6614 14.74 38.9361 14.004 38.0374 14.004L38.0295 14Z" fill="#3E7232"></path><path d="M39.5749 35.376H23.4256C23.0827 36.328 22.9053 37.34 22.9053 38.368C22.9053 43.176 26.7603 47.092 31.5022 47.092C36.2441 47.092 40.0991 43.18 40.0991 38.368C40.0991 37.34 39.9217 36.328 39.5788 35.376H39.5749ZM30.4419 45.044C29.9886 45.044 29.622 44.672 29.622 44.212C29.622 43.752 29.9886 43.38 30.4419 43.38C30.8952 43.38 31.2617 43.752 31.2617 44.212C31.2617 44.672 30.8952 45.044 30.4419 45.044ZM29.1608 40.98C27.9113 40.98 26.8982 39.952 26.8982 38.684C26.8982 37.416 27.9113 36.388 29.1608 36.388C30.4103 36.388 31.4234 37.416 31.4234 38.684C31.4234 39.952 30.4103 40.98 29.1608 40.98ZM33.7845 43.296C32.9882 43.296 32.3418 42.64 32.3418 41.832C32.3418 41.024 32.9882 40.368 33.7845 40.368C34.5807 40.368 35.2271 41.024 35.2271 41.832C35.2271 42.64 34.5807 43.296 33.7845 43.296Z" fill="#7AC638"></path></g><defs><clipPath id="clip0_483_13016"><rect width="23" height="36" fill="white" transform="translate(20 14)"></rect></clipPath></defs></svg>