<svg xmlns="http://www.w3.org/2000/svg" width="64" height="64" viewBox="0 0 64 64" fill="none"><circle cx="32" cy="32" r="32" fill="white"></circle><path d="M44.295 36.9998C44.3372 36.8309 46.8304 33.4506 46.8304 33.4506C46.8304 33.4506 47.4219 28.7605 48.0135 27.2815C48.1824 26.8589 48.8585 26.0139 49.2811 26.0984C49.7038 26.183 49.9994 27.6195 49.9994 27.6195L49.7456 34.4645L48.4359 40.6336L42.774 48.4082H37.281C37.281 48.4082 37.0276 42.0702 37.5769 40.042C38.0839 38.3096 41.1686 33.7887 41.1686 33.7887C41.1686 33.7887 42.2671 32.6056 42.7319 32.7323C43.1967 32.8591 43.4502 33.9575 43.4502 34.4223C43.4502 35.3941 42.9008 38.2249 42.9008 38.2249L44.295 36.9998Z" fill="#3E7232"></path><path d="M46.366 33.028C46.4082 32.8591 47.0421 30.1971 46.9575 30.0279C46.8729 29.859 45.6899 27.3237 45.6899 27.3237C45.6899 27.3237 44.9716 26.7743 44.7181 26.9435C44.4222 27.1124 44.2533 28.042 44.2955 28.4225C44.4646 29.7323 46.366 33.028 46.366 33.028Z" fill="#3E7232"></path><path d="M43.7883 32.5209C43.9572 33.197 44.9292 35.2251 44.9292 35.2251L46.1123 33.5772L44.9292 31.7602C44.9292 31.7602 44.1263 31.38 43.915 31.5489C43.704 31.718 43.7462 32.3096 43.7883 32.5209L43.7883 32.5209Z" fill="#3E7232"></path><path d="M19.7044 36.9998C19.6622 36.8309 17.169 33.4506 17.169 33.4506C17.169 33.4506 16.5775 28.7605 15.9859 27.2815C15.8171 26.8589 15.1409 26.0139 14.7183 26.0984C14.2956 26.183 14 27.6195 14 27.6195L14.2538 34.4645L15.5635 40.6336L21.2254 48.4082H26.7184C26.7184 48.4082 26.9718 42.0702 26.4225 40.042C25.9155 38.3096 22.8308 33.7887 22.8308 33.7887C22.8308 33.7887 21.7323 32.6056 21.2675 32.7323C20.8027 32.8591 20.5492 33.9575 20.5492 34.4223C20.5492 35.3941 21.0986 38.2249 21.0986 38.2249L19.7044 36.9998Z" fill="#3E7232"></path><path d="M17.6344 33.028C17.5923 32.8591 16.9583 30.1971 17.0429 30.0279C17.1275 29.859 18.3106 27.3237 18.3106 27.3237C18.3106 27.3237 19.0289 26.7743 19.2823 26.9435C19.5782 27.1124 19.7471 28.042 19.705 28.4225C19.5358 29.7323 17.6345 33.028 17.6345 33.028L17.6344 33.028Z" fill="#3E7232"></path><path d="M20.2107 32.5208C20.0418 33.197 19.0698 35.225 19.0698 35.225L17.8867 33.5772L19.0698 31.7604C19.0698 31.7604 19.8727 31.3802 20.084 31.5491C20.295 31.718 20.2528 32.3095 20.2107 32.5209L20.2107 32.5208Z" fill="#3E7232"></path><path d="M20.8884 16C20.8884 16 17.6773 36.704 33.3531 33.197C41.5925 19.338 20.8884 16 20.8884 16V16ZM31.2404 23.3521C31.2404 24.0704 31.2404 24.7887 31.1558 25.4226C31.0713 26.1409 30.987 26.8591 30.9024 27.4931C30.8178 27.9157 30.691 28.3381 30.6489 28.7608C31.4939 30.0284 32.2122 31.3382 32.9729 32.6059C31.9166 31.465 30.8181 30.2819 29.8039 28.9721C28.7898 27.7044 27.818 26.4792 26.8884 25.127C26.7195 24.9157 26.677 24.7889 26.5503 24.62H25.7053C25.1984 24.5354 24.8603 24.5354 24.2688 24.4087C23.8461 24.3241 23.4238 24.1974 22.9165 24.0706C22.4939 23.8593 22.0715 23.7326 21.6489 23.3524C22.1558 23.2678 22.5784 23.2678 23.0854 23.2678C23.5923 23.3524 23.9304 23.3524 24.5219 23.4791C24.9446 23.5637 25.3669 23.6904 25.8742 23.8172C25.9588 23.9018 26.0855 23.9018 26.1277 23.9018C25.494 23.0568 24.86 22.0426 24.2263 21.1555C23.3814 19.8032 22.4939 18.4934 21.7335 17.0147C22.7898 18.1556 23.8883 19.3387 24.9025 20.6485C25.9166 21.9583 26.8884 23.1414 27.818 24.4936C28.663 25.6345 29.4659 26.8176 30.3109 28.0006V27.2824C30.3109 26.5641 30.3109 25.8458 30.3955 25.2119C30.48 24.4936 30.5643 23.7753 30.6489 23.1414C30.8178 22.4231 30.9024 21.7891 31.2405 21.1555C31.198 21.9999 31.2405 22.6336 31.2405 23.3521L31.2404 23.3521Z" fill="#7AC638"></path><path d="M43.3647 17.859C43.3647 17.859 42.7311 27.366 35.9704 24.1124C33.731 17.2675 43.3647 17.859 43.3647 17.859ZM37.9563 20.056C37.8718 20.3519 37.7875 20.6897 37.745 20.9855C37.7029 21.2815 37.6604 21.6192 37.6604 21.9151V22.5066C37.1535 22.9714 36.6887 23.4784 36.2239 23.9857C36.8154 23.563 37.4491 23.1828 37.9985 22.718C38.548 22.2532 39.1394 21.7884 39.731 21.3657C39.8156 21.3236 39.8999 21.1968 39.9423 21.1544C40.1112 21.1966 40.1958 21.1966 40.365 21.239H40.9986C41.21 21.239 41.4213 21.239 41.6323 21.1968C41.8858 21.1547 42.0971 21.1123 42.266 20.9855C42.0547 20.9009 41.8433 20.8166 41.6323 20.7742C41.3788 20.7321 41.2097 20.7321 40.9986 20.7321C40.7873 20.7321 40.576 20.7321 40.365 20.7742H40.1961C40.5341 20.4783 40.9565 20.0559 41.337 19.76C41.8864 19.2531 42.3933 18.7459 42.9003 18.1968C42.3087 18.6194 41.6751 18.9996 41.1256 19.4644C40.5341 19.9292 39.9847 20.394 39.3932 20.8167C38.8862 21.2393 38.4214 21.6617 37.9142 22.0843C37.9563 21.9998 37.9563 21.8309 37.9988 21.7884C38.0834 21.4925 38.1677 21.1548 38.2101 20.8589C38.2522 20.5629 38.2947 20.2252 38.2947 19.9293C38.2947 19.6334 38.2947 19.2956 38.2525 18.9575C38.1252 19.4223 37.9985 19.7183 37.9563 20.0561L37.9563 20.056Z" fill="#7AC638"></path></svg>