                            <svg xmlns="http://www.w3.org/2000/svg" width="64" height="64" viewBox="0 0 64 64" fill="none"><circle cx="32" cy="32" r="32" fill="white"></circle><path d="M29.494 48.0023H29.1223C29.1594 47.8909 29.1594 47.7794 29.1594 47.668C29.1594 46.8135 28.4907 46.1445 27.6359 46.1445H16.8613C16.0068 46.1445 15.3379 46.8132 15.3379 47.668C15.3379 47.7794 15.3379 47.8909 15.3749 48.0023H15.0033C14.446 48.0023 14 48.4481 14 49.0056C14 49.5629 14.4458 50.0089 15.0033 50.0089H29.4941C30.0513 50.0089 30.4974 49.5631 30.4974 49.0056C30.5347 48.4481 30.0519 48.0023 29.4944 48.0023H29.494Z" fill="#7AC638"></path><path d="M49.5214 40.3853L38.1517 27.7894L40.4182 25.7458C40.5667 25.5973 40.6411 25.4114 40.6784 25.2256C40.6784 25.0398 40.604 24.8169 40.4926 24.6684L34.9192 18.4633C34.659 18.166 34.1761 18.129 33.8788 18.3889L26.5219 25.0027C26.3734 25.1512 26.299 25.3371 26.2617 25.5229C26.2617 25.7087 26.3361 25.9316 26.4476 26.0801L32.0209 32.2852C32.2068 32.471 32.4297 32.5454 32.6526 32.5454C32.8011 32.5454 32.9499 32.471 33.0613 32.3596L35.3278 30.3159L46.6604 42.9118C47.0691 43.3949 47.6637 43.5805 48.258 43.5063C48.6296 43.4693 49.001 43.3205 49.2983 43.0232C50.116 42.3546 50.1904 41.1657 49.5215 40.3853L49.5214 40.3853Z" fill="#3E7232"></path><path d="M25.6286 27.2694C24.9226 26.489 23.7708 26.452 22.9904 27.1209L22.4332 27.6411C22.0615 27.9754 21.8386 28.4215 21.8015 28.9416C21.7645 29.4248 21.9501 29.9076 22.2847 30.2793L27.5608 36.1499C27.9695 36.633 28.5641 36.8186 29.1584 36.7445C29.53 36.7074 29.9014 36.5586 30.1987 36.2614L30.756 35.7412C31.1276 35.4068 31.3505 34.9608 31.3876 34.4406C31.4247 33.9575 31.2391 33.4746 30.9045 33.103L25.6286 27.2694Z" fill="#7AC638"></path><path d="M41.4976 23.5166C41.8319 23.8883 42.278 24.1112 42.7982 24.1482H43.0955C43.4671 24.1112 43.8385 23.9253 44.1358 23.6651L44.6931 23.1449C45.4735 22.4389 45.5105 21.2871 44.8416 20.5067L39.5654 14.6363C39.2311 14.2646 38.785 14.0417 38.2648 14.0047C37.7817 13.9676 37.2988 14.1532 36.9272 14.4878L36.37 15.0079C35.5896 15.714 35.5526 16.8657 36.2215 17.6462L41.4976 23.5166Z" fill="#7AC638"></path></svg>