<svg xmlns="http://www.w3.org/2000/svg" width="64" height="64" viewBox="0 0 64 64" fill="none"><circle cx="32" cy="32" r="32" fill="white"></circle><g clip-path="url(#clip0_483_13017)"><path d="M17.3586 37.0009H14V47.9999H17.3586V37.0009Z" fill="#3E7232"></path><path d="M27.2984 34.9889C28.8508 34.9889 30.3383 35.3621 31.3771 36.0211C31.5188 36.1086 31.6604 36.1903 31.8021 36.2602C32.0972 35.6012 32.0382 34.8081 31.7431 34.1432C31.4066 33.3968 30.8105 32.7902 30.1553 32.2887C29.5119 31.7988 28.656 31.3789 27.9123 31.7055C27.5581 31.8629 27.2394 32.1837 26.8498 32.1312C26.3304 32.0612 26.1651 31.4197 26.0353 30.9182C25.8641 30.2475 25.5512 29.6118 25.1263 29.0636C24.1759 30.6616 23.6211 32.5103 23.6211 34.4932C23.6211 34.9189 23.6447 35.3388 23.6978 35.7529C24.6777 35.263 25.9467 34.9889 27.2984 34.9889Z" fill="#3E7232"></path><path d="M41.3349 27.8914C41.5238 28.6262 41.6301 29.4077 41.4589 30.1484C41.2877 30.889 40.7978 31.5889 40.0777 31.863C39.3694 32.1371 38.5666 31.9621 37.817 32.0671C36.3 32.2829 35.1372 33.6592 34.8362 35.1405C34.7299 35.6479 34.7122 36.167 34.7653 36.6802H37.4687C38.9739 36.6802 40.2016 37.8932 40.2016 39.3804C40.2016 39.4445 40.2016 39.5028 40.2016 39.5612L45.1008 36.8493C45.2779 36.0911 45.3664 35.3038 45.3664 34.4932C45.3664 30.6966 43.3654 27.3665 40.3551 25.4595C40.786 26.2235 41.1224 27.0399 41.3408 27.8914H41.3349Z" fill="#3E7232"></path><path d="M27.1809 30.6382C27.1809 30.6382 27.1986 30.7082 27.2104 30.749C27.2871 30.7082 27.3639 30.6732 27.4347 30.6382C27.7593 30.4982 28.1135 30.4224 28.4795 30.4224C29.2527 30.4224 30.0555 30.7432 30.8818 31.3672C31.8144 32.0845 32.4519 32.8368 32.8238 33.6766C33.2606 34.6622 33.2901 35.7295 32.9241 36.6276C33.1248 36.6626 33.3255 36.6801 33.5203 36.6801H33.5793C33.5262 36.0678 33.5616 35.4729 33.6797 34.9072C34.1046 32.8252 35.7397 31.1806 37.6462 30.9123C37.9827 30.8656 38.3014 30.8598 38.5729 30.8598H38.8267C39.1455 30.8598 39.4465 30.8598 39.6531 30.7782C39.9482 30.6673 40.2079 30.3058 40.3083 29.8859C40.4145 29.4368 40.3732 28.8944 40.1902 28.1771C40.0013 27.4364 39.7062 26.7133 39.3166 26.0309L40.0958 25.3078C38.4549 24.328 36.5424 23.7565 34.4883 23.7565C30.9408 23.7565 27.8007 25.4419 25.8174 28.0371L26.0653 28.3579C26.5906 29.0402 26.9802 29.8275 27.1809 30.6382Z" fill="#3E7232"></path><path d="M49.7107 37.2983C49.2267 36.616 48.3118 36.406 47.574 36.8143L39.2749 41.404C38.7909 41.8239 38.1593 42.0864 37.4628 42.0864H30.7929C30.4682 42.0864 30.2026 41.8239 30.2026 41.5032C30.2026 41.1824 30.4682 40.92 30.7929 40.92H37.4628C37.8583 40.92 38.2184 40.7742 38.4958 40.5292C38.5135 40.5118 38.5312 40.4943 38.5489 40.4826C38.8381 40.2027 39.0152 39.8119 39.0152 39.3862C39.0152 38.5405 38.3187 37.8524 37.4628 37.8524H33.514C32.5696 37.8524 31.6074 37.5608 30.7338 37.0067C29.878 36.4644 28.6266 36.1553 27.2926 36.1553C25.6635 36.1553 24.1701 36.616 23.391 37.3625C22.5174 38.1965 21.3133 38.6514 20.0088 38.6514H18.5391V46.2562C20.3394 45.848 22.181 45.6905 23.8632 45.6905C27.393 45.6905 30.2144 46.3029 30.3974 46.3437C30.5627 46.367 30.7693 46.3962 30.9759 46.4195C34.4171 46.8336 38.0354 46.0696 41.146 44.2675L49.1913 39.6078C49.5868 39.3803 49.8583 39.0071 49.9586 38.5639C50.0649 38.1206 49.9763 37.6716 49.7107 37.2983Z" fill="#7AC638"></path><path d="M33.65 21.9194H33.898V22.6134C34.0927 22.6018 34.2875 22.596 34.4882 22.596C34.6889 22.596 34.8837 22.6076 35.0785 22.6134V21.9194H35.3264C38.1714 21.9194 40.4794 19.6391 40.4794 16.8281V16H39.6412C36.8729 16 34.624 18.1578 34.5 20.858H34.4764C34.3525 18.152 32.1036 16 29.3352 16H28.4971V16.8281C28.4971 19.6391 30.805 21.9194 33.65 21.9194Z" fill="#7AC638"></path></g><defs><clipPath id="clip0_483_13017"><rect width="36" height="32" fill="white" transform="translate(14 16)"></rect></clipPath></defs></svg>