                            <svg xmlns="http://www.w3.org/2000/svg" width="64" height="64" viewBox="0 0 64 64" fill="none"><circle cx="32" cy="32" r="32" fill="white"></circle><g clip-path="url(#clip0_483_13014)"><path d="M49.5044 30.7165L38.0621 42.2921C37.7417 42.6162 37.3169 42.7934 36.8623 42.7934H23.639L19.4809 47L14 41.4553L21.6419 33.7282C22.2902 33.0987 23.1397 32.7519 24.0339 32.7519H40.007C40.51 32.7519 40.987 32.9819 41.3148 33.389L41.3931 33.4832C41.5943 33.7734 41.7061 34.1051 41.7061 34.4632C41.7061 34.9231 41.5309 35.3528 41.2105 35.6769C40.8901 36.0011 40.4653 36.1783 40.0108 36.1783H32.4657C32.1975 36.1783 31.9851 36.3969 31.9851 36.6645C31.9851 36.9321 32.2012 37.1507 32.4657 37.1507H40.0108C40.7224 37.1507 41.3894 36.8718 41.8924 36.3629C42.3954 35.8541 42.6711 35.1794 42.6711 34.4594C42.6711 33.992 42.5481 33.5322 42.3208 33.1251L47.1087 28.2815C47.7495 27.6332 48.8673 27.6332 49.5082 28.2815C49.8286 28.6057 50.0037 29.0354 50.0037 29.4953C50.0037 29.9551 49.8249 30.3848 49.5044 30.709V30.7165Z" fill="#3E7232"></path><path d="M41.3853 29.0543C41.4599 28.8583 41.1357 28.7226 41.1357 28.7226C38.4679 27.294 38.9262 22.3638 35.0624 19.1561C30.0883 15.0249 24.5888 18.1007 24.5888 18.1007C24.5888 18.1007 23.4785 18.4512 23.5269 19.2842C23.5679 19.9853 24.0337 20.0004 24.5441 19.6461C26.489 18.1195 28.7209 17.7464 29.5033 17.7577C30.7664 17.7765 33.9968 18.4248 34.8799 23.6642C34.8799 23.6642 33.341 19.0958 29.8163 18.8432C29.6673 18.8432 29.1866 18.8847 29.1941 19.4463C29.1717 21.1425 29.7492 24.06 31.832 26.5816C34.7122 30.0683 38.9225 29.7441 40.8861 29.3483C41.0537 29.3068 41.3071 29.2541 41.3816 29.0618L41.3853 29.0543Z" fill="#7AC638"></path></g><defs><clipPath id="clip0_483_13014"><rect width="36" height="30" fill="white" transform="translate(14 17)"></rect></clipPath></defs></svg>