<svg xmlns="http://www.w3.org/2000/svg" width="64" height="64" viewBox="0 0 64 64" fill="none"><circle cx="32" cy="32" r="32" fill="white"></circle><g clip-path="url(#clip0_483_13015)"><path fill-rule="evenodd" clip-rule="evenodd" d="M21.6788 19L24.3389 21.641L16.6601 29.2313L14 26.5858L21.6788 19Z" fill="#3E7232"></path><path fill-rule="evenodd" clip-rule="evenodd" d="M42.3214 19L50.0002 26.5858L47.3268 29.2269L39.6436 21.641L42.317 19H42.3214Z" fill="#7AC638"></path><path fill-rule="evenodd" clip-rule="evenodd" d="M24.0378 23.1783C24.5964 23.6733 26.1925 25.0003 28.4757 25.3683C29.3092 25.504 30.2269 25.4734 31.0383 25.3814C31.1491 25.3683 31.2511 25.3551 31.3575 25.342L27.5447 29.1086C26.7999 29.8444 26.7999 31.0576 27.5447 31.7934C28.2895 32.5293 29.5043 32.5293 30.2491 31.7934L32.2708 29.7962L38.3979 35.8492C38.7969 36.2477 38.7969 36.8916 38.3979 37.2857C37.9989 37.6843 37.3427 37.6843 36.9437 37.2857L32.3683 32.7658C32.1999 32.6037 31.9028 32.6081 31.7388 32.7745C31.5747 32.941 31.5792 33.2344 31.7476 33.3965C33.4146 35.109 35.3521 37.0361 36.8905 38.477C37.2895 38.8712 37.2895 39.5063 36.8905 39.9005C36.4915 40.2991 35.8353 40.2991 35.4363 39.9005C33.8535 38.3632 32.2797 36.7864 30.7102 35.2316C30.6304 35.144 30.5107 35.0958 30.391 35.0958C30.0407 35.1002 29.8368 35.6083 30.0851 35.8492C31.6545 37.4128 33.2595 38.9632 34.8112 40.5312C35.2102 40.9254 35.2102 41.5604 34.8112 41.9546C34.6338 42.1298 34.2747 42.2787 33.9112 42.2437C33.6407 42.2174 33.3614 42.1035 33.1087 41.832C33.1087 41.8276 33.0999 41.8232 33.0954 41.8188C31.6723 40.3604 30.023 38.6741 28.5068 37.1762C28.4269 37.0886 28.3072 37.0405 28.1875 37.0405C27.8373 37.0448 27.6334 37.5529 27.8816 37.7938C29.3536 39.318 30.9851 40.956 32.3595 42.3006C32.6299 42.5678 32.4659 43.1372 32.1511 43.4525C31.9693 43.6365 31.5792 43.7985 31.2245 43.7941C30.923 43.7941 30.6703 43.6934 30.4619 43.4394C30.5905 42.8481 30.422 42.2087 29.9609 41.7532C29.5974 41.3984 29.1319 41.2188 28.6575 41.2188C28.6043 41.2188 28.5467 41.2276 28.489 41.232C28.5334 40.7108 28.3604 40.1764 27.9614 39.7822C27.6023 39.4275 27.1324 39.2479 26.658 39.2479C26.6048 39.2479 26.5471 39.2567 26.4895 39.261C26.5338 38.7442 26.3609 38.2143 25.9619 37.8245V37.8113C25.6028 37.4565 25.1329 37.277 24.6585 37.277C24.4058 37.277 24.1442 37.3383 23.9092 37.4434C22.26 35.6126 21.524 34.6754 20.8324 33.5936C20.2782 32.7176 20.2649 32.2139 20.1097 31.4036C19.9457 30.5364 19.3028 29.8532 18.3496 28.8152L24.0334 23.1871L24.0378 23.1783Z" fill="#3E7232"></path><path fill-rule="evenodd" clip-rule="evenodd" d="M40.3665 23.5857L45.4251 28.5831C44.964 28.8371 44.4586 29.0867 43.9709 29.4065C43.3192 29.8269 42.6852 30.3963 42.3482 31.2679C41.8472 32.5599 40.7832 33.3702 38.7438 34.9513L35.7645 32.0081C36.128 31.9774 36.5448 31.9511 36.9837 31.938C37.2142 31.9424 37.4315 31.7365 37.4359 31.5088C37.4359 31.281 37.232 31.0664 37.0014 31.062C36.9926 31.062 36.9837 31.062 36.9748 31.062C36.4561 31.0752 35.9551 31.1102 35.5605 31.1453C35.2458 31.1759 35.0729 31.1891 34.9487 31.2022L32.896 29.1743L33.4901 28.5874C33.6275 28.421 33.6098 28.1538 33.4591 28.0005C33.3039 27.8473 33.0335 27.8341 32.865 27.9699L29.6197 31.1759C29.2206 31.5701 28.5645 31.5701 28.1655 31.1759C27.7665 30.7817 27.7665 30.1204 28.1655 29.7262L33.0601 24.904C34.1374 24.4222 35.5251 24.8602 36.5403 25.1624C37.4359 25.4296 38.3049 25.0661 39.0098 24.6281C39.5862 24.2689 40.0428 23.8704 40.3665 23.5857Z" fill="#7AC638"></path><path fill-rule="evenodd" clip-rule="evenodd" d="M24.6576 38.1442C24.9015 38.1442 25.1453 38.2405 25.336 38.4332C25.7217 38.8099 25.7217 39.3968 25.336 39.7735C24.9547 40.1501 24.3562 40.1501 23.9793 39.7735C23.598 39.3968 23.598 38.8055 23.9793 38.4332C24.17 38.2449 24.4138 38.1442 24.6576 38.1442Z" fill="#7AC638"></path><path fill-rule="evenodd" clip-rule="evenodd" d="M26.6574 40.1151C26.9057 40.1151 27.1451 40.2027 27.3357 40.391C27.717 40.7677 27.717 41.3721 27.3357 41.7488C26.9545 42.1254 26.3471 42.1254 25.9613 41.7488C25.5845 41.3721 25.5845 40.7677 25.9613 40.391C26.152 40.2027 26.4091 40.1151 26.653 40.1151H26.6574Z" fill="#7AC638"></path><path fill-rule="evenodd" clip-rule="evenodd" d="M28.6529 42.0905C28.9012 42.0905 29.1406 42.178 29.3312 42.3664C29.7391 42.7693 29.717 43.3387 29.3312 43.7241C28.9455 44.1008 28.3381 44.1008 27.9569 43.7241C27.5756 43.3475 27.5756 42.743 27.9569 42.3664C28.1475 42.178 28.4046 42.0905 28.6485 42.0905H28.6529Z" fill="#7AC638"></path></g><defs><clipPath id="clip0_483_13015"><rect width="36" height="25" fill="white" transform="translate(14 19)"></rect></clipPath></defs></svg>