<svg xmlns="http://www.w3.org/2000/svg" width="64" height="61" viewBox="0 0 64 61" fill="none"><path d="M19.7729 24.8162C19.507 24.8195 19.2454 24.747 19.0174 24.6067C18.6834 24.3901 18.4413 24.0527 18.3392 23.6616C18.2371 23.2705 18.2826 22.8544 18.4666 22.496L30.7429 0.712524C30.8868 0.493201 31.0813 0.313512 31.3091 0.189256C31.5369 0.0649993 31.7911 0 32.0492 0C32.3073 0 32.5615 0.0649993 32.7893 0.189256C33.0171 0.313512 33.2116 0.493201 33.3555 0.712524L45.6476 22.496C45.7484 22.8388 45.7348 23.2062 45.609 23.5403C45.4831 23.8743 45.2522 24.1559 44.9527 24.3406C44.6531 24.5254 44.302 24.6027 43.9547 24.5604C43.6074 24.5182 43.2838 24.3587 43.0349 24.1072L32.0177 4.64387L21.0005 24.1072C20.8638 24.315 20.6817 24.4872 20.4686 24.6102C20.2555 24.7333 20.0173 24.8038 19.7729 24.8162Z" fill="white"></path><path d="M62.5596 56.0992H37.3278C37.0876 56.1696 36.8345 56.1828 36.5884 56.1378C36.3423 56.0929 36.11 55.991 35.9099 55.8402C35.7098 55.6895 35.5474 55.494 35.4355 55.2693C35.3236 55.0445 35.2654 54.7967 35.2654 54.5454C35.2654 54.2942 35.3236 54.0464 35.4355 53.8216C35.5474 53.5969 35.7098 53.4014 35.9099 53.2507C36.11 53.0999 36.3423 52.998 36.5884 52.9531C36.8345 52.9081 37.0876 52.9213 37.3278 52.9917H59.8044L48.5258 33.4564C48.4159 33.1089 48.4259 32.7343 48.5544 32.3933C48.6829 32.0523 48.9222 31.7649 49.2336 31.5776C49.545 31.3903 49.9103 31.3141 50.2702 31.3613C50.6301 31.4086 50.9636 31.5765 51.2166 31.8379L63.7842 53.7038C63.9256 53.9499 64 54.229 64 54.5131C64 54.7972 63.9256 55.0763 63.7842 55.3223C63.6546 55.5388 63.4763 55.7219 63.2637 55.8568C63.051 55.9917 62.8099 56.0747 62.5596 56.0992Z" fill="white"></path><path d="M26.7159 56.0287H1.5226C1.25643 56.013 0.998175 55.9299 0.770883 55.7867C0.543591 55.6435 0.354339 55.4448 0.220004 55.2081C0.0856688 54.9715 0.0104238 54.7044 0.00100758 54.4306C-0.0084086 54.1568 0.0482941 53.8849 0.166037 53.6391L12.7789 31.2201C12.8498 30.978 12.9736 30.7558 13.1409 30.5703C13.3082 30.3849 13.5145 30.2412 13.7441 30.1502C13.9737 30.0592 14.2205 30.0234 14.4657 30.0453C14.7108 30.0673 14.9478 30.1466 15.1586 30.2771C15.3694 30.4075 15.5484 30.5858 15.6819 30.7982C15.8154 31.0106 15.8999 31.2515 15.9289 31.5026C15.958 31.7537 15.9308 32.0083 15.8495 32.2469C15.7681 32.4856 15.6348 32.702 15.4597 32.8796L4.15499 52.909H26.6675C26.9082 52.8368 27.1619 52.8233 27.4086 52.8694C27.6553 52.9154 27.8881 53.0199 28.0887 53.1745C28.2892 53.329 28.452 53.5295 28.5642 53.7599C28.6763 53.9903 28.7346 54.2444 28.7346 54.502C28.7346 54.7596 28.6763 55.0137 28.5642 55.2442C28.452 55.4746 28.2892 55.675 28.0887 55.8296C27.8881 55.9842 27.6553 56.0886 27.4086 56.1347C27.1619 56.1808 26.9082 56.1672 26.6675 56.0951L26.7159 56.0287Z" fill="white"></path><path d="M15.4891 40.4764C15.1759 40.4676 14.8728 40.3608 14.6208 40.1705C14.3687 39.9802 14.1799 39.7155 14.0797 39.4121L12.6857 34.7164L8.08983 36.1407C7.75683 36.1468 7.43098 36.0417 7.16165 35.8416C6.89231 35.6414 6.69416 35.357 6.59719 35.0315C6.50023 34.706 6.50973 34.357 6.62426 34.0375C6.7388 33.718 6.95211 33.4453 7.23191 33.2607L13.2831 31.3981C13.6587 31.2983 14.0573 31.3478 14.3985 31.5366C14.7398 31.7254 14.9981 32.0396 15.1215 32.4155L16.9292 38.5825C17.0277 38.9642 16.9814 39.3699 16.7996 39.7182C16.6177 40.0665 16.3138 40.3317 15.9487 40.4608C15.7977 40.4942 15.642 40.4995 15.4891 40.4764Z" fill="white"></path><path d="M42.5215 60.0832C42.0789 60.0751 41.655 59.9392 41.3275 59.7006L35.8167 55.5363C35.4837 55.2755 35.2867 54.9231 35.2657 54.5503C35.2576 54.1755 35.4284 53.8124 35.7433 53.535L40.9417 49.1205C41.0728 48.9186 41.2605 48.7439 41.4901 48.61C41.7197 48.4761 41.985 48.3867 42.265 48.3487C42.545 48.3108 42.8322 48.3254 43.104 48.3914C43.3758 48.4573 43.6248 48.5729 43.8315 48.729C44.0381 48.885 44.1967 49.0774 44.2949 49.2909C44.3931 49.5043 44.4282 49.7331 44.3974 49.9593C44.3666 50.1855 44.2707 50.4028 44.1173 50.5943C43.9639 50.7858 43.7572 50.9462 43.5134 51.0629L39.5273 54.4473L43.7522 57.6405C44.062 57.9118 44.2338 58.2661 44.2338 58.6338C44.2338 59.0014 44.062 59.3558 43.7522 59.627C43.4296 59.8993 42.9893 60.0625 42.5215 60.0832Z" fill="white"></path><path d="M44.1673 24.8026C44.0554 24.8188 43.9417 24.8188 43.8297 24.8026L37.6912 23.3402C37.3186 23.2341 36.9992 22.9892 36.7972 22.6545C36.5951 22.3198 36.5253 21.9201 36.6016 21.5355C36.7061 21.1609 36.9454 20.8397 37.2721 20.6352C37.5988 20.4307 37.9893 20.3578 38.3664 20.4309L43.0931 21.5666L44.2134 16.7748C44.3194 16.4216 44.5459 16.1181 44.8523 15.9186C45.1587 15.7191 45.5252 15.6365 45.8861 15.6858C46.2616 15.7886 46.5845 16.0322 46.7896 16.3672C46.9948 16.7022 47.0668 17.1037 46.9911 17.4905L45.5332 23.7136C45.4387 24.0986 45.2026 24.4325 44.8733 24.647C44.6535 24.7551 44.4115 24.8084 44.1673 24.8026Z" fill="white"></path></svg>